SplineFontDB: 1.0
FontName: Kinnari-Bold
FullName: Kinnari Bold
FamilyName: Kinnari
Weight: Bold
Copyright: KinnariBold by Db Type : Fontographer 3.5
Version: 001.000
ItalicAngle: 0
UnderlinePosition: -70
UnderlineWidth: 25
Ascent: 800
Descent: 200
NeedsXUIDChange: 1
FSType: 0
PfmFamily: 17
TTFWeight: 700
TTFWidth: 5
Panose: 0 0 0 0 0 0 0 0 0 0
LineGap: 138
VLineGap: 0
OS2WinAscent: 0
OS2WinAOffset: 1
OS2WinDescent: 0
OS2WinDOffset: 1
HheadAscent: 0
HheadAOffset: 1
HheadDescent: 0
HheadDOffset: 1
ScriptLang: 5
 1 DFLT 1 dflt 
 1 thai 4 KUY  PAL  THA  dflt 
 1 latn 1 dflt 
 1 thai 1 dflt 
 1 thai 1 PAL  
ContextSub: glyph 0 4 ' RQD' 0 0 0 1
 String: 15 uni0E0D uni0E10
 BString: 0 
 FString: 0 
 1
  SeqLookup: 0 'nds0'
EndFPST
ChainSub: coverage 0 1 'ccmp' 0 0 0 1
 2 0 0
  Coverage: 19 uni0E4B uni0E4B.low
  Coverage: 7 uni0E4D
 2
  SeqLookup: 0 'amni'
  SeqLookup: 1 'G006'
EndFPST
ChainSub: coverage 0 1 'ccmp' 0 0 0 1
 2 0 0
  Coverage: 19 uni0E4A uni0E4A.low
  Coverage: 7 uni0E4D
 2
  SeqLookup: 0 'amni'
  SeqLookup: 1 'G005'
EndFPST
ChainSub: coverage 0 1 'ccmp' 0 0 0 1
 2 0 0
  Coverage: 19 uni0E49 uni0E49.low
  Coverage: 7 uni0E4D
 2
  SeqLookup: 0 'amni'
  SeqLookup: 1 'G004'
EndFPST
ChainSub: coverage 0 1 'ccmp' 0 0 0 1
 2 0 0
  Coverage: 19 uni0E48 uni0E48.low
  Coverage: 7 uni0E4D
 2
  SeqLookup: 0 'amni'
  SeqLookup: 1 'G003'
EndFPST
ChainSub: coverage 0 1 'ccmp' 0 0 0 1
 1 0 1
  Coverage: 15 uni0E0D uni0E10
  FCoverage: 23 uni0E38 uni0E39 uni0E3A
 1
  SeqLookup: 0 'ndsc'
EndFPST
ChainSub: coverage 0 1 'ccmp' 0 0 0 1
 1 2 0
  Coverage: 39 uni0E48 uni0E49 uni0E4A uni0E4B uni0E4C
  BCoverage: 23 uni0E38 uni0E39 uni0E3A

StartChar: .notdef
Encoding: 0 -1 0
Width: 384
Flags: W
HStem: 0 23<23 384> 568 23<0 361>
VStem: 0 23<0 568> 361 23<23 591>
Fore
23 568 m 1
 23 23 l 1
 361 23 l 1
 361 568 l 1
 23 568 l 1
384 0 m 1
 0 0 l 1
 0 591 l 1
 384 591 l 1
 384 0 l 1
EndSplineSet
EndChar
StartChar: exclam
Encoding: 33 33 2
Width: 333
Flags: W
HStem: -14 140<160 178>
Fore
232 608 m 0
 232 608 l 0
 232 591 230 573 229 558 c 1
 184 177 l 1
 149 177 l 1
 104 559 l 1
 104 574 101 591 101 608 c 0
 101 647 117 700 167 700 c 0
 221 700 232 647 232 608 c 0
237 54 m 0
 237 14 203 -14 166 -14 c 0
 132 -14 97 17 97 54 c 0
 97 92 126 126 167 126 c 0
 206 126 237 92 237 54 c 0
EndSplineSet
EndChar
StartChar: quotedbl
Encoding: 34 34 3
Width: 407
Flags: W
Fore
349 651 m 0
 315 444 l 1
 273 444 l 1
 238 651 l 2
 233 679 263 708 293 708 c 0
 326 708 355 680 349 651 c 0
169 651 m 2
 134 444 l 1
 92 444 l 1
 58 651 l 1
 52 680 81 708 114 708 c 0
 144 708 174 679 169 651 c 2
EndSplineSet
EndChar
StartChar: numbersign
Encoding: 35 35 4
Width: 499
Flags: W
HStem: 217 78<-8 97 192 289 384 482> 404 80<18 127 221 318 412 507>
DStem: 97 217 180 217 65 0 147 0 127 404 210 404 109 295 192 295 169 687 252 687 138 484 221 484 289 217 372 217 258 0 341 0 318 404 401 404 301 295 384 295 359 687 441 687 329 484 412 484
Fore
507 404 m 1
 401 404 l 1
 384 295 l 1
 482 295 l 1
 482 217 l 1
 372 217 l 1
 341 0 l 1
 258 0 l 1
 289 217 l 1
 180 217 l 1
 147 0 l 1
 65 0 l 1
 97 217 l 1
 -8 217 l 1
 -8 295 l 1
 109 295 l 1
 127 404 l 1
 18 404 l 1
 18 484 l 1
 138 484 l 1
 169 687 l 1
 252 687 l 1
 221 484 l 1
 329 484 l 1
 359 687 l 1
 441 687 l 1
 412 484 l 1
 507 484 l 1
 507 404 l 1
318 404 m 1
 210 404 l 1
 192 295 l 1
 301 295 l 1
 318 404 l 1
EndSplineSet
EndChar
StartChar: dollar
Encoding: 36 36 5
Width: 499
Flags: W
VStem: 40 100<508 533> 218 58<-100 -11 40 272 430 622 673 739> 366 102<152 178>
Fore
468 178 m 0
 468 178 l 0
 468 61 381 0 276 -11 c 1
 276 -100 l 1
 218 -100 l 1
 218 -12 l 1
 155 -11 92 8 32 43 c 1
 32 194 l 1
 71 194 l 1
 86 100 135 46 218 40 c 1
 218 303 l 1
 140 347 40 406 40 508 c 0
 40 613 124 667 218 674 c 1
 218 739 l 1
 276 739 l 1
 276 674 l 1
 332 670 389 653 436 616 c 1
 436 487 l 1
 399 487 l 1
 387 564 343 613 276 622 c 1
 276 398 l 1
 366 349 468 298 468 178 c 0
218 430 m 0
 218 622 l 0
 187 614 140 581 140 533 c 0
 140 481 180 456 218 430 c 0
366 152 m 0
 366 210 323 244 276 272 c 1
 276 41 l 1
 332 54 366 92 366 152 c 0
EndSplineSet
EndChar
StartChar: percent
Encoding: 37 37 6
Width: 832
Flags: W
HStem: -11 56<574 589> 290 60<180 198> 327 57<664 678> 636 54<274 283>
VStem: 49 100<412 439> 346 50<548 568> 733 50<244 265>
DStem: 524 604 654 703 180 -11 257 -11
Fore
654 703 m 1xde
 257 -11 l 1
 180 -11 l 1
 524 604 l 1
 476 588 427 585 390 591 c 1
 393 579 396 565 396 554 c 0
 396 412 272 290 180 290 c 0
 95 290 49 346 49 439 c 0
 49 553 158 690 276 690 c 0
 313 690 336 680 364 654 c 1
 387 637 407 634 436 634 c 0
 492 634 545 659 579 703 c 1
 654 703 l 1xde
783 263 m 0
 783 263 l 0
 783 98 667 -11 576 -11 c 0
 464 -11 436 55 436 138 c 0
 436 252 547 384 665 384 c 0xbe
 740 384 783 321 783 263 c 0
346 568 m 0
 346 568 l 0
 346 581 343 593 339 605 c 1
 309 616 296 636 281 636 c 0
 246 636 149 541 149 412 c 0
 149 376 160 350 198 350 c 1xde
 290 359 346 478 346 568 c 0
733 257 m 0
 733 290 714 327 676 327 c 0xbe
 627 327 594 275 574 235 c 0
 525 131 515 45 587 45 c 0
 674 45 733 181 733 257 c 0
EndSplineSet
EndChar
StartChar: ampersand
Encoding: 38 38 7
Width: 777
Flags: W
HStem: -11 79<220 263> 647 56<350 368>
VStem: 31 115<160 187> 190 103<531 564> 425 77<562 582>
Fore
768 120 m 1
 768 120 l 0
 710 31 671 -11 599 -11 c 0
 531 -11 476 31 429 75 c 1
 372 25 296 -11 220 -11 c 0
 100 -11 31 51 31 160 c 0
 31 273 143 356 221 398 c 1
 204 441 190 485 190 531 c 0
 190 625 258 703 355 703 c 0
 435 703 502 656 502 571 c 0
 502 482 427 427 353 393 c 1
 387 330 425 270 467 214 c 1
 501 255 547 326 547 373 c 0
 547 396 533 407 482 412 c 1
 482 453 l 1
 722 453 l 1
 722 412 l 1
 653 402 641 378 614 332 c 0
 581 270 530 195 508 164 c 1
 545 123 585 86 644 86 c 0
 679 86 705 106 731 146 c 1
 768 120 l 1
425 574 m 0
 425 574 l 0
 425 613 398 647 359 647 c 0
 307 647 293 607 293 564 c 0
 293 530 312 481 327 449 c 1
 375 473 425 518 425 574 c 0
387 121 m 1
 333 189 289 264 247 341 c 1
 189 304 146 263 146 187 c 0
 146 126 201 68 263 68 c 0
 298 68 349 91 387 121 c 1
EndSplineSet
EndChar
StartChar: quotesingle
Encoding: 39 39 8
Width: 179
Flags: W
Fore
146 650 m 2
 111 442 l 1
 69 442 l 1
 35 650 l 1
 29 679 58 707 91 707 c 0
 121 707 151 677 146 650 c 2
EndSplineSet
EndChar
StartChar: parenleft
Encoding: 40 40 9
Width: 333
Flags: W
VStem: 37 109<250 300>
Fore
321 -147 m 1
 295 -181 l 1
 154 -86 37 55 37 272 c 0
 37 450 127 599 300 707 c 1
 321 667 l 1
 181 571 146 432 146 281 c 0
 146 120 164 -23 321 -147 c 1
EndSplineSet
EndChar
StartChar: parenright
Encoding: 41 41 10
Width: 333
Flags: W
VStem: 187 109<218 268>
Fore
296 244 m 0
 296 68 194 -86 35 -181 c 1
 12 -146 l 1
 154 -48 187 91 187 241 c 0
 187 404 166 561 12 668 c 1
 38 705 l 1
 88 679 296 533 296 244 c 0
EndSplineSet
EndChar
StartChar: asterisk
Encoding: 42 42 11
Width: 499
Flags: W
Fore
447 372 m 0
 421 327 375 349 352 379 c 0
 333 402 313 418 272 447 c 1
 276 404 287 370 295 343 c 0
 304 309 301 257 252 257 c 0
 200 257 197 307 210 343 c 0
 221 370 226 396 229 447 c 1
 186 421 166 404 149 379 c 1
 124 350 80 327 52 373 c 0
 28 416 74 445 106 455 c 1
 132 459 166 468 201 485 c 1
 160 507 135 515 108 518 c 1
 71 525 28 551 54 598 c 0
 78 641 126 616 151 591 c 0
 170 571 194 545 229 521 c 1
 226 571 221 596 210 624 c 0
 197 659 200 710 252 710 c 0
 301 710 304 657 295 624 c 0
 287 598 278 562 272 521 c 1
 306 545 329 574 347 594 c 1
 373 619 419 642 445 599 c 0
 470 556 429 527 390 522 c 0
 361 516 336 504 290 484 c 1
 330 467 366 459 393 453 c 0
 427 444 472 415 447 372 c 0
EndSplineSet
EndChar
StartChar: plus
Encoding: 43 43 12
Width: 563
Flags: W
HStem: 241 89<18 238 326 545>
VStem: 238 88<20 241 330 548>
Fore
545 241 m 1
 326 241 l 1
 326 20 l 1
 238 20 l 1
 238 241 l 1
 18 241 l 1
 18 330 l 1
 238 330 l 1
 238 548 l 1
 326 548 l 1
 326 330 l 1
 545 330 l 1
 545 241 l 1
EndSplineSet
EndChar
StartChar: comma
Encoding: 44 44 13
Width: 250
Flags: W
HStem: -22 20G<142.5 148>
VStem: 151 64<-5 18>
Fore
215 18 m 0
 215 -40 146 -120 84 -143 c 1
 65 -103 l 1
 103 -84 151 -35 151 -5 c 0
 151 -3 149 -2 147 -2 c 0
 138 -2 124 -5 115 -5 c 0
 80 -2 51 20 51 57 c 0
 51 103 77 129 123 129 c 0
 190 129 215 69 215 18 c 0
EndSplineSet
EndChar
StartChar: hyphen
Encoding: 45 45 14
Width: 333
Flags: W
HStem: 241 88<31 301>
Fore
301 241 m 1
 31 241 l 1
 31 329 l 1
 301 329 l 1
 301 241 l 1
EndSplineSet
EndChar
StartChar: period
Encoding: 46 46 15
Width: 250
Flags: W
HStem: -11 21G<106 143.5>
Fore
195 58 m 0
 195 17 163 -11 124 -11 c 0
 88 -11 55 23 55 58 c 0
 55 95 86 129 124 129 c 0
 163 129 195 100 195 58 c 0
EndSplineSet
EndChar
StartChar: slash
Encoding: 47 47 16
Width: 278
Flags: W
DStem: 230 710 319 710 -29 -104 60 -104
Fore
319 710 m 1
 60 -104 l 1
 -29 -104 l 1
 230 710 l 1
 319 710 l 1
EndSplineSet
EndChar
StartChar: zero
Encoding: 48 48 17
Width: 537
Flags: W
HStem: -14 52<259 275> 650 50<259 274>
VStem: 29 122<321 371> 384 121<321 371>
Fore
505 339 m 0
 505 339 l 0
 505 197 447 -14 261 -14 c 0
 114 -14 29 143 29 346 c 0
 29 495 86 700 266 700 c 0
 422 700 505 544 505 339 c 0
384 338 m 0
 384 508 362 650 272 650 c 0
 164 650 151 485 151 326 c 0
 151 184 166 38 269 38 c 0
 376 38 384 192 384 338 c 0
EndSplineSet
EndChar
StartChar: one
Encoding: 49 49 18
Width: 537
Flags: W
HStem: 0 37<129 142.333 413.667 427>
VStem: 223 110<92 545>
Fore
427 0 m 1
 129 0 l 1
 129 37 l 1
 209 43 223 55 223 92 c 2
 223 541 l 2
 223 605 197 588 120 561 c 1
 120 599 l 1
 333 708 l 1
 333 92 l 2
 333 55 347 43 427 37 c 1
 427 0 l 1
EndSplineSet
EndChar
StartChar: two
Encoding: 50 50 19
Width: 537
Flags: W
HStem: 0 101<180 450> 604 96<218 269>
VStem: 349 110<472 513>
DStem: 214 214 319 247 43 31 180 101
Fore
513 155 m 1
 450 0 l 1
 40 0 l 1
 43 31 l 1
 214 214 l 2
 276 281 349 373 349 472 c 0
 349 551 298 604 218 604 c 0
 146 604 109 542 83 470 c 1
 40 484 l 1
 63 613 141 700 269 700 c 0
 373 700 459 617 459 513 c 0
 459 416 413 346 319 247 c 2
 180 101 l 1
 364 101 l 2
 432 101 438 104 482 172 c 1
 513 155 l 1
EndSplineSet
EndChar
StartChar: three
Encoding: 51 51 20
Width: 537
Flags: W
HStem: -11 60<183 247> 619 84<232 264>
VStem: 329 103<525 558> 370 95<183 229>
Fore
465 229 m 0xd0
 465 71 326 -11 183 -11 c 0
 140 -11 55 -3 55 58 c 0
 55 88 77 104 104 104 c 0
 154 104 187 49 247 49 c 0
 323 49 370 111 370 183 c 0xd0
 370 287 313 333 164 333 c 1
 163 369 l 1
 243 393 329 435 329 525 c 0
 329 582 289 619 232 619 c 0
 170 619 127 584 89 513 c 1
 52 524 l 1
 91 641 163 703 264 703 c 0
 378 703 432 642 432 558 c 0xe0
 432 495 396 452 352 419 c 1
 427 382 465 326 465 229 c 0xd0
EndSplineSet
EndChar
StartChar: four
Encoding: 52 52 21
Width: 537
Flags: W
HStem: 0 21G<303 404> 157 87<98 303 404 505>
VStem: 303 101<0 157 244 690>
DStem: 338 690 303 531 22 237 98 244
Fore
505 157 m 1
 404 157 l 1
 404 0 l 1
 303 0 l 1
 303 157 l 1
 22 157 l 1
 22 237 l 1
 338 690 l 1
 404 690 l 1
 404 244 l 1
 505 244 l 1
 505 157 l 1
303 244 m 1
 303 531 l 1
 98 244 l 1
 303 244 l 1
EndSplineSet
EndChar
StartChar: five
Encoding: 53 53 22
Width: 537
Flags: W
HStem: -11 60<180 240> 585 105<189 421>
VStem: 367 94<210 243>
DStem: 189 690 212 585 75 444 181 522
Fore
476 700 m 1
 421 585 l 1
 212 585 l 1
 181 522 l 1
 338 495 461 442 461 243 c 0
 461 86 335 -11 180 -11 c 0
 135 -11 52 -3 43 54 c 0
 37 89 61 112 100 112 c 0
 163 112 186 49 240 49 c 0
 319 49 367 123 367 210 c 0
 367 359 218 407 98 415 c 1
 80 418 72 432 75 444 c 1
 189 690 l 1
 393 690 l 2
 419 690 425 690 450 719 c 1
 476 700 l 1
EndSplineSet
EndChar
StartChar: six
Encoding: 54 54 23
Width: 537
Flags: W
HStem: -11 52<285 307> 386 69<267 304>
VStem: 46 117<260 294>
Fore
502 229 m 0
 502 229 l 0
 502 103 421 -11 286 -11 c 0
 154 -11 46 97 46 289 c 0
 46 511 200 671 409 702 c 0
 425 703 442 710 479 710 c 1
 484 670 l 1
 442 659 412 657 379 641 c 0
 300 604 218 538 192 422 c 1
 227 442 263 455 304 455 c 0
 429 455 502 369 502 229 c 0
386 240 m 0
 376 315 349 386 267 386 c 0
 237 386 203 375 178 356 c 0
 175 353 175 353 174 352 c 0
 163 327 163 296 163 263 c 0
 163 137 209 41 301 41 c 0
 370 41 398 131 386 240 c 0
EndSplineSet
EndChar
StartChar: seven
Encoding: 55 55 24
Width: 537
Flags: W
HStem: -11 21G<175 267> 590 100<95 375>
DStem: 375 590 484 660 175 -11 267 -11
Fore
484 660 m 1
 267 -11 l 1
 175 -11 l 1
 375 590 l 1
 187 590 l 2
 120 590 106 573 66 507 c 1
 29 525 l 1
 95 690 l 1
 484 690 l 1
 484 660 l 1
EndSplineSet
EndChar
StartChar: eight
Encoding: 56 56 25
Width: 537
Flags: W
HStem: -11 49<264 283> 653 50<256 275>
VStem: 65 99<164 182> 362 94<540 567> 376 102<141 169>
Fore
478 169 m 0xe8
 478 169 l 0xe8
 478 54 373 -11 266 -11 c 0
 161 -11 65 52 65 167 c 0
 65 250 127 304 186 347 c 1
 126 406 71 442 71 542 c 0
 71 616 141 703 273 703 c 0
 359 703 456 653 456 554 c 0xf0
 456 470 398 421 333 386 c 1
 402 330 478 267 478 169 c 0xe8
362 551 m 0xf0
 362 551 l 0
 362 611 323 653 264 653 c 0
 212 653 169 619 169 565 c 0
 169 501 232 452 281 419 c 1
 329 449 362 495 362 551 c 0xf0
376 141 m 0xe8
 376 221 292 270 232 312 c 0
 230 312 230 310 230 310 c 2
 192 280 164 226 164 178 c 0
 164 101 201 38 281 38 c 0
 339 38 376 83 376 141 c 0xe8
EndSplineSet
EndChar
StartChar: nine
Encoding: 57 57 26
Width: 537
Flags: W
HStem: 240 67<233 273> 653 50<248 267>
VStem: 41 117<461 492>
Fore
482 304 m 0
 482 304 l 0
 450 195 361 69 237 17 c 0
 178 -9 115 -20 72 -20 c 1
 66 23 l 1
 137 35 226 61 290 147 c 0
 319 186 346 232 361 280 c 1
 318 253 275 240 233 240 c 0
 120 240 41 324 41 462 c 0
 41 550 97 703 267 703 c 0
 361 703 436 636 468 551 c 0
 495 476 505 387 482 304 c 0
373 429 m 0
 373 510 359 653 253 653 c 0
 174 653 158 554 158 492 c 0
 158 412 178 307 273 307 c 0
 301 307 350 326 370 350 c 1
 373 375 373 399 373 429 c 0
EndSplineSet
EndChar
StartChar: colon
Encoding: 58 58 27
Width: 278
Flags: W
HStem: -8 140<140 152> 392 139<140 152>
Fore
210 461 m 0
 210 461 l 0
 210 419 178 392 140 392 c 0
 100 392 71 425 71 461 c 0
 71 498 98 531 140 531 c 0
 177 531 210 502 210 461 c 0
210 61 m 0
 210 20 178 -8 140 -8 c 0
 100 -8 71 26 71 61 c 0
 71 98 98 132 140 132 c 0
 177 132 210 103 210 61 c 0
EndSplineSet
EndChar
StartChar: semicolon
Encoding: 59 59 28
Width: 278
Flags: W
HStem: -5 134<131 138> 392 139<140 147>
VStem: 166 64<-5 18>
Fore
209 464 m 0
 209 464 l 0
 209 429 175 392 140 392 c 0
 98 392 69 429 69 464 c 0
 69 499 103 531 140 531 c 0
 175 531 209 499 209 464 c 0
230 18 m 0
 230 -40 161 -120 100 -143 c 1
 80 -103 l 1
 118 -84 166 -35 166 -5 c 0
 166 -3 164 -2 163 -2 c 0
 154 -2 140 -5 131 -5 c 0
 95 -2 66 20 66 57 c 0
 66 103 92 129 138 129 c 0
 201 129 230 72 230 18 c 0
EndSplineSet
EndChar
StartChar: less
Encoding: 60 60 29
Width: 563
Flags: W
DStem: 15 226 135 261 548 -18 548 71 548 541 548 452 15 295 135 261
Fore
548 -18 m 1
 15 226 l 1
 15 295 l 1
 548 541 l 1
 548 452 l 1
 135 261 l 1
 548 71 l 1
 548 -18 l 1
EndSplineSet
EndChar
StartChar: equal
Encoding: 61 61 30
Width: 563
Flags: W
HStem: 120 89<18 545> 313 89<18 545>
Fore
545 313 m 1
 18 313 l 1
 18 402 l 1
 545 402 l 1
 545 313 l 1
545 120 m 1
 18 120 l 1
 18 209 l 1
 545 209 l 1
 545 120 l 1
EndSplineSet
EndChar
StartChar: greater
Encoding: 62 62 31
Width: 563
Flags: W
DStem: 15 467 15 556 427 276 548 310 427 276 548 241 15 86 15 -3
Fore
548 241 m 1
 15 -3 l 1
 15 86 l 1
 427 276 l 1
 15 467 l 1
 15 556 l 1
 548 310 l 1
 548 241 l 1
EndSplineSet
EndChar
StartChar: question
Encoding: 63 63 32
Width: 443
Flags: W
HStem: -14 140<217 219> 470 21G<72.5 110.5> 647 53<195 217>
VStem: 37 114<522 548> 146 140<55 57> 290 117<528 547>
Fore
407 530 m 0xf4
 407 530 l 0
 407 462 364 399 326 355 c 0
 273 293 246 230 235 164 c 1
 195 164 l 1
 195 332 290 398 290 528 c 0
 290 588 260 647 195 647 c 0
 163 647 106 624 118 585 c 0
 121 576 126 576 132 567 c 0
 146 550 151 542 151 522 c 0
 151 490 127 470 94 470 c 0
 51 470 37 515 37 548 c 0
 37 645 129 700 217 700 c 0
 338 700 407 614 407 530 c 0xf4
286 55 m 0xec
 286 15 250 -14 217 -14 c 0
 181 -14 146 18 146 55 c 0
 146 92 181 126 217 126 c 0
 250 126 286 94 286 55 c 0xec
EndSplineSet
EndChar
StartChar: at
Encoding: 64 64 33
Width: 920
Flags: W
HStem: -155 64<474 514> 41 68<401 433 657 669> 427 71<510 525> 636 63<501 526>
VStem: 43 120<244 278> 267 117<180 214> 816 64<324 358>
Fore
880 343 m 0
 880 343 l 0
 880 177 765 40 659 40 c 0
 625 40 565 49 538 109 c 1
 499 66 441 41 401 41 c 0
 324 41 267 86 267 197 c 0
 267 349 392 498 510 498 c 0
 551 498 581 478 599 455 c 1
 607 484 l 1
 719 484 l 1
 633 154 l 2
 625 124 644 108 667 108 c 0
 737 108 816 232 816 341 c 0
 816 518 654 636 501 636 c 0
 295 636 163 427 163 261 c 0
 163 115 220 -91 495 -91 c 0
 588 -91 700 -55 753 -2 c 1
 774 -14 l 1
 753 -81 l 1
 753 -81 654 -155 493 -155 c 0
 284 -155 43 -35 43 269 c 0
 43 441 186 699 501 699 c 0
 631 699 880 611 880 343 c 0
570 356 m 0
 570 410 550 427 525 427 c 0
 475 427 384 344 384 187 c 0
 384 134 396 109 433 109 c 0
 464 109 502 147 511 166 c 0
 525 189 570 287 570 356 c 0
EndSplineSet
EndChar
StartChar: A
Encoding: 65 65 34
Width: 721
Flags: W
HStem: 0 21G<3 226 438 717> 217 64<235 453>
DStem: 330 513 379 690 429 281 621 134 335 690 330 513 134 210 235 281
Fore
717 0 m 1
 438 0 l 1
 438 45 l 1
 521 48 516 65 485 138 c 2
 453 217 l 1
 209 217 l 1
 194 177 157 108 157 74 c 0
 157 48 187 45 226 45 c 1
 226 0 l 1
 3 0 l 1
 3 43 l 1
 72 49 95 120 134 210 c 2
 335 690 l 1
 379 690 l 1
 621 134 l 2
 636 98 654 41 717 45 c 1
 717 0 l 1
429 281 m 1
 330 513 l 1
 235 281 l 1
 429 281 l 1
EndSplineSet
EndChar
StartChar: B
Encoding: 66 66 35
Width: 666
Flags: W
HStem: 0 45<8 34.9444> 0 61<279 335> 326 64<230 302> 645 45<8 34.4651>
VStem: 104 126<90 326 92 600> 447 127<495 513> 468 140<175 209>
Fore
608 195 m 0xba
 608 195 l 0
 608 69 499 0 335 0 c 2x7a
 8 0 l 1
 8 45 l 1
 89 45 104 68 104 92 c 2
 104 598 l 2
 104 621 89 645 8 645 c 1
 8 690 l 1
 287 690 l 2
 450 690 574 642 574 508 c 0xbc
 574 433 535 386 473 361 c 1
 547 335 608 281 608 195 c 0xba
447 505 m 0x3c
 447 505 l 0
 447 574 404 611 341 622 c 1
 261 628 230 625 230 598 c 2
 230 390 l 1
 300 390 l 2
 392 390 447 432 447 505 c 0x3c
468 197 m 0x7a
 468 309 356 326 267 326 c 2
 230 326 l 1
 230 103 l 2
 230 74 240 61 300 61 c 0
 396 61 468 89 468 197 c 0x7a
EndSplineSet
EndChar
StartChar: C
Encoding: 67 67 36
Width: 666
Flags: W
HStem: -14 69<373 391> 634 66<373 391>
VStem: 22 139<321 371>
Fore
651 123 m 1
 584 38 476 -14 376 -14 c 0
 175 -14 22 115 22 343 c 0
 22 548 166 700 375 700 c 0
 504 700 553 614 587 699 c 1
 628 699 l 1
 636 450 l 1
 591 450 l 1
 561 562 493 634 384 634 c 0
 227 634 161 507 161 335 c 0
 161 201 230 55 386 55 c 0
 481 55 544 86 621 163 c 1
 651 123 l 1
EndSplineSet
EndChar
StartChar: D
Encoding: 68 68 37
Width: 721
Flags: W
HStem: 0 45<8 32.2885> 627 63<8 297> 645 45<8 31.8559>
VStem: 95 128<92 600> 567 133<319 369>
Fore
700 344 m 0xd8
 700 344 l 0
 700 135 562 0 286 0 c 2
 8 0 l 1
 8 45 l 1
 81 45 95 68 95 92 c 2
 95 598 l 2
 95 621 81 645 8 645 c 1xb8
 8 690 l 1
 278 690 l 2
 541 690 700 576 700 344 c 0xd8
567 343 m 0
 567 531 444 627 267 627 c 0xd8
 230 627 223 627 223 588 c 2
 223 103 l 2
 223 75 241 68 258 66 c 0
 455 57 567 166 567 343 c 0
EndSplineSet
EndChar
StartChar: E
Encoding: 69 69 38
Width: 609
Flags: W
HStem: 0 45<0 24.0562> 0 66<223 561> 326 66<215 361> 522 168<0 554> 624 66<0 417> 645 45<0 23.6262>
VStem: 88 127<82.2384 326 92 600> 455 44<229 247.214 487 487>
Fore
613 194 m 1x6b
 561 0 l 1x6b
 0 0 l 1
 0 45 l 1
 72 45 88 68 88 92 c 2
 88 598 l 2
 88 621 72 645 0 645 c 1xa7
 0 690 l 1
 554 690 l 1
 554 522 l 1
 510 522 l 1x33
 499 581 468 624 407 624 c 2
 246 624 l 2
 229 624 215 614 215 598 c 2
 215 392 l 1
 343 392 l 2
 402 392 455 406 455 487 c 1
 499 487 l 1
 499 229 l 1
 455 229 l 1
 455 310 402 326 343 326 c 2
 215 326 l 1
 215 92 l 2
 215 81 215 66 227 66 c 2
 359 66 l 2
 435 66 508 68 561 194 c 1
 613 194 l 1x6b
EndSplineSet
EndChar
StartChar: F
Encoding: 70 70 39
Width: 556
Flags: W
HStem: 0 45<0 24.0562 304 304> 326 66<215 353> 522 168<0 556> 624 66<0 417> 645 45<0 23.6262>
VStem: 88 127<82.2384 326 92 600> 445 47<229 247.421 487 487>
Fore
556 522 m 1xe6
 508 522 l 1xe6
 496 633 441 624 376 624 c 2
 244 624 l 2xd6
 221 624 215 613 215 598 c 2
 215 392 l 1
 333 392 l 2
 393 392 445 406 445 487 c 1
 492 487 l 1
 492 229 l 1
 445 229 l 1
 445 310 393 326 333 326 c 2
 215 326 l 1
 215 92 l 2
 215 68 229 45 304 45 c 1
 304 0 l 1
 0 0 l 1
 0 45 l 1
 72 45 88 68 88 92 c 2
 88 598 l 2
 88 621 72 645 0 645 c 1xce
 0 690 l 1
 556 690 l 1
 556 522 l 1xe6
EndSplineSet
EndChar
StartChar: G
Encoding: 71 71 40
Width: 721
Flags: W
HStem: -14 66<371 400> 336 45<436 460.956 436 716> 464 21G<593 636> 636 64<366 385>
VStem: 15 140<321 355> 524 121<97 275>
Fore
716 336 m 1
 648 336 645 307 645 260 c 2
 645 61 l 1
 581 26 465 -14 382 -14 c 0
 206 -14 15 98 15 341 c 0
 15 547 163 700 370 700 c 0
 485 700 559 622 585 700 c 1
 628 700 l 1
 636 464 l 1
 593 464 l 1
 554 573 492 636 379 636 c 0
 221 636 155 501 155 333 c 0
 155 186 235 52 395 52 c 0
 430 52 470 58 502 72 c 0
 524 83 524 88 524 111 c 2
 524 260 l 2
 524 309 519 336 436 336 c 1
 436 381 l 1
 716 381 l 1
 716 336 l 1
EndSplineSet
EndChar
StartChar: H
Encoding: 72 72 41
Width: 721
Flags: W
HStem: 0 45<8 32.2885 310 310 412 436.371 714 714> 321 66<223 501> 645 45<3 32.5463 3 310 412 435.936 412 714>
VStem: 95 128<81.7675 321 92 600> 501 126<82.2384 321 387 600>
Fore
714 0 m 1
 412 0 l 1
 412 45 l 1
 485 45 501 68 501 92 c 2
 501 321 l 1
 223 321 l 1
 223 92 l 2
 223 68 237 45 310 45 c 1
 310 0 l 1
 8 0 l 1
 8 45 l 1
 81 45 95 68 95 92 c 2
 95 598 l 2
 95 621 81 645 9 645 c 1
 3 690 l 1
 310 690 l 1
 310 645 l 1
 237 645 223 621 223 598 c 2
 223 387 l 1
 501 387 l 1
 501 598 l 2
 501 621 485 645 412 645 c 1
 412 690 l 1
 714 690 l 1
 714 645 l 1
 642 645 627 621 627 598 c 2
 627 92 l 2
 627 68 642 45 714 45 c 1
 714 0 l 1
EndSplineSet
EndChar
StartChar: I
Encoding: 73 73 42
Width: 333
Flags: W
HStem: 0 45<6 33.5767 329 329> 645 45<6 33.0861 6 329>
VStem: 104 126<82.3731 600>
Fore
329 0 m 1
 6 0 l 1
 6 45 l 1
 89 45 104 68 104 92 c 2
 104 598 l 2
 104 621 89 645 6 645 c 1
 6 690 l 1
 329 690 l 1
 329 645 l 1
 246 645 230 621 230 598 c 2
 230 92 l 2
 230 68 246 45 329 45 c 1
 329 0 l 1
EndSplineSet
EndChar
StartChar: J
Encoding: 74 74 43
Width: 388
Flags: W
HStem: -14 63<112 135> 645 45<66 93.0861 66 389>
VStem: 164 126<126 600>
Fore
389 645 m 1
 306 645 290 621 290 598 c 2
 290 210 l 2
 290 60 210 -14 112 -14 c 0
 78 -14 12 0 2 54 c 2
 -2 71 l 1
 -2 100 23 132 58 132 c 0
 98 132 120 100 117 86 c 0
 112 72 121 49 135 49 c 0
 160 49 164 91 164 126 c 2
 164 598 l 2
 164 621 149 645 66 645 c 1
 66 690 l 1
 389 690 l 1
 389 645 l 1
EndSplineSet
EndChar
StartChar: K
Encoding: 75 75 44
Width: 721
Flags: W
HStem: 0 45<8 32.9598 315 315 392 432.676 720 720> 645 45<8 32.5143 8 316 387 673>
VStem: 98 126<82.2721 307 92 600>
DStem: 237 315 336 390 326 224 485 230
Fore
720 0 m 1
 392 0 l 1
 392 45 l 1
 459 45 470 49 456 71 c 0
 429 118 364 187 326 224 c 1
 237 315 l 1
 224 306 l 1
 224 92 l 2
 224 68 240 45 315 45 c 1
 315 0 l 1
 8 0 l 1
 8 45 l 1
 83 45 98 68 98 92 c 2
 98 598 l 2
 98 621 83 645 8 645 c 1
 8 690 l 1
 316 690 l 1
 316 645 l 1
 240 645 224 621 224 598 c 2
 224 390 l 1
 292 449 455 584 455 624 c 0
 455 653 418 644 387 647 c 1
 387 690 l 1
 673 690 l 1
 673 645 l 1
 590 645 554 608 508 562 c 2
 336 390 l 1
 485 230 l 1
 553 157 l 2
 602 101 641 45 720 45 c 1
 720 0 l 1
EndSplineSet
EndChar
StartChar: L
Encoding: 76 76 45
Width: 609
Flags: W
HStem: 0 45<0 24.0562> 0 66<271 559> 645 45<0 23.6262 0 303>
VStem: 88 127<92 600>
Fore
614 198 m 1x70
 559 0 l 1x70
 0 0 l 1
 0 45 l 1xb0
 72 45 88 68 88 92 c 2
 88 598 l 2
 88 621 72 645 0 645 c 1
 0 690 l 1
 303 690 l 1
 303 645 l 1
 229 645 215 621 215 598 c 2
 215 92 l 2
 215 69 249 66 303 66 c 0
 422 66 508 60 565 198 c 1
 614 198 l 1x70
EndSplineSet
EndChar
StartChar: M
Encoding: 77 77 46
Width: 887
Flags: W
HStem: 0 45<8 34.9444 269 269 581 605.015 882 882> 645 45<9 35.155 662 882>
VStem: 104 68<82.1374 505> 668 126<82.0028 528>
DStem: 172 505 227 690 402 0 450 198 662 690 668 528 450 198 432 0
Fore
882 0 m 1
 581 0 l 1
 581 45 l 1
 653 45 668 68 668 92 c 2
 668 528 l 1
 432 0 l 1
 402 0 l 1
 172 505 l 1
 172 92 l 2
 172 68 187 45 269 45 c 1
 269 0 l 1
 8 0 l 1
 8 45 l 1
 89 45 104 68 104 92 c 2
 104 598 l 2
 104 621 89 645 9 645 c 1
 9 690 l 1
 227 690 l 1
 450 198 l 1
 662 690 l 1
 882 690 l 1
 882 645 l 1
 808 645 794 621 794 598 c 2
 794 92 l 2
 794 68 809 45 882 45 c 1
 882 0 l 1
EndSplineSet
EndChar
StartChar: N
Encoding: 78 78 47
Width: 721
Flags: W
HStem: 0 45<0 26.9859 263 263> 645 45<0 26.8006 458 485.006 458 720>
VStem: 97 69<82.3394 518> 554 70<229 607>
DStem: 166 518 189 690 590 -14 554 229
Fore
720 645 m 1
 639 645 624 621 624 598 c 2
 624 -14 l 1
 590 -14 l 1
 166 518 l 1
 166 92 l 2
 166 68 180 45 263 45 c 1
 263 0 l 1
 0 0 l 1
 0 45 l 1
 81 45 97 68 97 92 c 2
 97 596 l 1
 91 605 l 1
 63 636 57 645 0 645 c 1
 0 690 l 1
 189 690 l 1
 554 229 l 1
 554 598 l 2
 554 621 541 645 458 645 c 1
 458 690 l 1
 720 690 l 1
 720 645 l 1
EndSplineSet
EndChar
StartChar: O
Encoding: 79 79 48
Width: 721
Flags: W
HStem: -14 21G<269.5 464.5>
VStem: 22 138<343 371> 562 137<343 372.922>
Fore
699 343 m 0
 699 343 l 0
 699 143 568 -14 361 -14 c 0
 178 -14 22 124 22 343 c 0
 22 550 158 703 361 700 c 1
 539 708 699 564 699 343 c 0
562 343 m 1
 562 492 510 642 361 639 c 1
 220 630 160 525 160 343 c 0
 160 146 247 38 359 48 c 0
 530 61 567 241 562 343 c 1
EndSplineSet
EndChar
StartChar: P
Encoding: 80 80 49
Width: 556
Flags: W
HStem: 0 45<-2 22.6852 301 301> 289 63<245 287> 627 63<5 271> 645 45<5 27.5371>
VStem: 88 126<82.2721 291 92 600> 421 133<479 513>
Fore
554 502 m 0xec
 554 502 l 0
 554 347 422 289 287 289 c 0
 264 289 238 290 214 292 c 1
 214 92 l 2
 214 68 229 45 301 45 c 1
 301 0 l 1
 -2 0 l 1
 -2 45 l 1
 72 45 88 68 88 92 c 2
 88 598 l 2
 88 621 74 645 5 645 c 1xdc
 5 690 l 1
 267 690 l 2
 430 690 554 627 554 502 c 0xec
421 495 m 0
 421 601 333 627 244 627 c 0xec
 215 627 214 624 214 594 c 2
 214 355 l 1
 226 353 238 352 250 352 c 0
 350 352 421 387 421 495 c 0
EndSplineSet
EndChar
StartChar: Q
Encoding: 81 81 50
Width: 721
Flags: W
HStem: -177 225<361 713> 639 61<361 375>
VStem: 22 138<343 368> 562 137<343 368>
Fore
713 -177 m 1
 713 -177 l 0
 522 -177 401 -146 313 -61 c 0
 295 -45 275 -17 258 -5 c 1
 250 5 237 8 230 9 c 0
 95 46 22 201 22 343 c 0
 22 545 149 700 361 700 c 0
 570 700 699 544 699 343 c 0
 699 154 578 14 449 -6 c 1
 515 -84 594 -132 713 -135 c 1
 713 -177 l 1
562 343 m 0
 562 531 484 639 361 639 c 0
 230 637 160 533 160 343 c 0
 160 155 237 48 361 48 c 0
 493 48 562 167 562 343 c 0
EndSplineSet
EndChar
StartChar: R
Encoding: 82 82 51
Width: 666
Flags: W
HStem: 0 45<0 23.6172 300 300> 627 63<0 289> 645 45<0 23.1976>
VStem: 84 128<81.7675 307 92 609> 421 133<480.795 513>
DStem: 249 307 384 323 487 0 568 95
Fore
665 0 m 1xd8
 487 0 l 1
 249 307 l 1
 212 306 l 1
 212 92 l 2
 212 68 226 45 300 45 c 1
 300 0 l 1
 0 0 l 1
 0 45 l 1
 71 45 84 68 84 92 c 2
 84 598 l 2
 84 621 71 645 0 645 c 1xb8
 0 690 l 1
 276 690 l 2
 452 690 554 624 554 501 c 0
 554 395 475 341 384 323 c 1
 568 95 l 2
 593 66 613 48 665 43 c 1
 665 0 l 1xd8
421 499 m 0
 421 590 355 627 273 627 c 0xd8
 220 627 212 630 212 591 c 2
 212 367 l 1
 339 373 421 401 421 499 c 0
EndSplineSet
EndChar
StartChar: S
Encoding: 83 83 52
Width: 556
Flags: W
HStem: -14 63<261 286> 462 21G<433 482> 634 66<245 265>
VStem: 58 111<521 551>
Fore
502 181 m 0
 502 86 425 -14 280 -14 c 0
 183 -14 115 66 104 -14 c 1
 61 -14 l 1
 29 226 l 1
 74 226 l 1
 106 129 172 49 272 49 c 0
 344 49 393 111 372 181 c 0
 332 321 58 329 58 521 c 0
 58 627 144 700 247 700 c 0
 347 700 392 622 416 700 c 1
 458 700 l 1
 482 462 l 1
 433 462 l 1
 410 559 349 634 263 634 c 0
 210 634 169 607 169 551 c 0
 169 498 229 461 269 436 c 0
 410 352 502 306 502 181 c 0
EndSplineSet
EndChar
StartChar: T
Encoding: 84 84 53
Width: 609
Flags: W
HStem: 0 45<154 178.288 456 456> 622 68<12 241 12 459>
VStem: 241 128<81.7675 622>
Fore
605 495 m 1
 559 495 l 1
 536 625 492 622 427 622 c 2
 369 622 l 1
 369 92 l 2
 369 68 382 45 456 45 c 1
 456 0 l 1
 154 0 l 1
 154 45 l 1
 227 45 241 68 241 92 c 2
 241 622 l 1
 178 622 109 627 84 590 c 1
 65 565 61 533 54 495 c 1
 6 495 l 1
 12 690 l 1
 599 690 l 1
 605 495 l 1
EndSplineSet
EndChar
StartChar: U
Encoding: 85 85 54
Width: 721
Flags: W
HStem: -14 69<356 381> 645 45<5 28.5862 5 306 461 486.441 461 716>
VStem: 92 126<241 600> 554 68<280 600>
Fore
716 645 m 1
 637 645 622 621 622 598 c 2
 622 280 l 2
 622 161 611 69 492 14 c 1
 459 -3 404 -14 359 -14 c 0
 169 -14 92 74 92 266 c 2
 92 598 l 2
 92 621 77 645 5 645 c 1
 5 690 l 1
 306 690 l 1
 306 645 l 1
 233 645 218 621 218 598 c 2
 218 258 l 2
 218 112 261 55 379 55 c 0
 554 55 554 190 554 280 c 2
 554 598 l 2
 554 621 539 645 461 645 c 1
 461 690 l 1
 716 690 l 1
 716 645 l 1
EndSplineSet
EndChar
StartChar: V
Encoding: 86 86 55
Width: 721
Flags: W
HStem: -14 21G<366 393> 645 45<8 23.1521 8 298 484 712.937>
DStem: 120 538 267 507 366 -14 402 204
Fore
713 645 m 1
 659 645 642 616 628 581 c 0
 554 404 452 138 393 -14 c 1
 366 -14 l 1
 120 538 l 2
 95 593 74 645 8 645 c 1
 8 690 l 1
 298 690 l 1
 298 645 l 1
 235 645 223 641 223 621 c 0
 223 601 260 527 267 507 c 1
 402 204 l 1
 533 536 l 2
 541 556 556 593 556 614 c 0
 556 645 518 645 484 645 c 1
 484 690 l 1
 713 690 l 1
 713 645 l 1
EndSplineSet
EndChar
StartChar: W
Encoding: 87 87 56
Width: 943
Flags: W
HStem: -14 21G<296 329 627 656> 645 45<-3 266 304 328.226 304 596>
DStem: 140 427 215 573 296 -14 344 233 436 481 475 389 344 233 329 -14 475 389 527 590 627 -14 664 233 774 533 865 582 664 233 656 -14
Fore
948 647 m 1
 915 644 895 639 882 624 c 1
 872 610 868 596 865 582 c 1
 656 -14 l 1
 627 -14 l 1
 475 389 l 1
 329 -14 l 1
 296 -14 l 1
 140 427 l 1
 121 476 91 570 65 613 c 0
 52 634 32 642 -3 647 c 1
 -3 690 l 1
 266 690 l 1
 266 645 l 1
 241 645 l 1
 217 642 201 644 201 617 c 0
 201 608 212 581 215 573 c 2
 344 233 l 1
 436 481 l 1
 424 522 409 570 389 607 c 0
 373 637 350 645 304 645 c 1
 304 690 l 1
 596 690 l 1
 596 645 l 1
 561 645 519 651 519 627 c 0
 519 613 525 596 527 590 c 1
 664 233 l 1
 774 533 l 1
 790 578 799 614 790 628 c 0
 779 645 754 644 725 647 c 1
 725 690 l 1
 948 690 l 1
 948 647 l 1
EndSplineSet
EndChar
StartChar: X
Encoding: 88 88 57
Width: 721
Flags: W
HStem: 0 45<0 15.1541 257 257 396 436.604 717 717> 645 45<12 338 447 498.122 447 710>
DStem: 298 339 338 280 155 163 238 154 338 280 418 381 416 164 596 123 473 556 550 547 378 439 418 381
Fore
717 0 m 1
 396 0 l 1
 396 45 l 1
 464 45 479 49 468 77 c 1
 462 100 432 144 416 164 c 1
 338 280 l 1
 238 154 l 2
 220 132 198 106 184 81 c 0
 174 60 197 45 257 45 c 1
 257 0 l 1
 0 0 l 1
 0 45 l 1
 66 45 106 100 155 163 c 1
 298 339 l 1
 201 485 l 2
 123 602 94 642 12 645 c 1
 12 690 l 1
 338 690 l 1
 338 645 l 1
 275 645 263 645 263 627 c 0
 263 598 335 499 352 476 c 2
 378 439 l 1
 473 556 l 2
 485 571 518 602 518 625 c 0
 518 651 476 645 447 645 c 1
 447 690 l 1
 710 690 l 1
 710 645 l 1
 630 645 578 582 550 547 c 2
 418 381 l 1
 596 123 l 1
 639 65 662 45 717 45 c 1
 717 0 l 1
EndSplineSet
EndChar
StartChar: Y
Encoding: 89 89 58
Width: 721
Flags: W
HStem: 0 45<201 229.567 530 530> 645 45<11 26.0149 11 315 472 521.563>
VStem: 303 126<82.4068 303>
DStem: 180 484 264 582 303 303 396 386 522 584 568 528 396 386 429 315
Fore
714 647 m 1
 637 636 596 570 568 528 c 2
 429 315 l 1
 429 92 l 2
 429 68 444 45 530 45 c 1
 530 0 l 1
 201 0 l 1
 201 45 l 1
 287 45 303 68 303 92 c 2
 303 303 l 1
 180 484 l 2
 115 579 91 644 11 645 c 1
 11 690 l 1
 315 690 l 1
 315 645 l 1
 260 645 243 647 243 630 c 0
 243 611 253 596 264 582 c 1
 396 386 l 1
 522 584 l 2
 531 599 547 616 539 634 c 0
 535 645 527 645 472 645 c 1
 472 690 l 1
 714 690 l 1
 714 647 l 1
EndSplineSet
EndChar
StartChar: Z
Encoding: 90 90 59
Width: 609
Flags: W
HStem: 0 63<169 584> 627 63<40 421>
DStem: 421 627 590 662 -5 29 169 63
Fore
610 201 m 1
 584 0 l 1
 -5 0 l 1
 -5 29 l 1
 421 627 l 1
 237 627 l 2
 141 627 86 610 68 493 c 1
 17 493 l 1
 40 690 l 1
 593 690 l 1
 590 662 l 1
 169 63 l 1
 390 63 l 2
 492 63 535 89 564 201 c 1
 610 201 l 1
EndSplineSet
EndChar
StartChar: bracketleft
Encoding: 91 91 60
Width: 333
Flags: W
HStem: -157 51<205.897 312> 639 51<75 312>
VStem: 75 102<-157 612>
Fore
312 -157 m 1
 75 -157 l 1
 75 690 l 1
 312 690 l 1
 312 639 l 1
 221 639 l 2
 186 639 177 631 177 596 c 2
 177 -55 l 2
 177 -97 186 -106 224 -106 c 2
 312 -106 l 1
 312 -157 l 1
EndSplineSet
EndChar
StartChar: backslash
Encoding: 92 92 61
Width: 278
Flags: W
HStem: 0 21G<281 382>
DStem: -104 707 -3 707 281 0 382 0
Fore
382 0 m 1
 281 0 l 1
 -104 707 l 1
 -3 707 l 1
 382 0 l 1
EndSplineSet
EndChar
StartChar: bracketright
Encoding: 93 93 62
Width: 333
Flags: W
HStem: -157 51<22 257> 639 51<22 135>
VStem: 157 100<-76.1473 612>
Fore
257 -157 m 1
 22 -157 l 1
 22 -106 l 1
 103 -106 l 2
 152 -104 157 -98 157 -51 c 2
 157 571 l 2
 157 616 161 639 123 639 c 2
 22 639 l 1
 22 690 l 1
 257 690 l 1
 257 -157 l 1
EndSplineSet
EndChar
StartChar: asciicircum
Encoding: 94 94 63
Width: 468
Flags: W
DStem: 195 687 235 576 -5 257 94 257
Fore
475 257 m 1
 375 257 l 1
 235 576 l 1
 94 257 l 1
 -5 257 l 1
 195 687 l 1
 275 687 l 1
 475 257 l 1
EndSplineSet
EndChar
StartChar: underscore
Encoding: 95 95 64
Width: 499
Flags: W
HStem: -166 68<-12 511>
Fore
511 -166 m 1
 -12 -166 l 1
 -12 -98 l 1
 511 -98 l 1
 511 -166 l 1
EndSplineSet
EndChar
StartChar: grave
Encoding: 96 96 65
Width: 333
Flags: W
Fore
275 507 m 1
 200 508 l 1
 54 599 l 2
 34 610 5 633 5 653 c 0
 5 684 20 702 48 702 c 0
 68 702 98 688 114 665 c 1
 275 507 l 1
EndSplineSet
EndChar
StartChar: a
Encoding: 97 97 66
Width: 443
Flags: W
HStem: -11 85<143 195> 435 47<200 224>
VStem: 25 112<108 143> 270 109<107 336.814>
Fore
455 108 m 0
 453 52 l 0
 436 32 390 -11 359 -11 c 0
 310 -11 286 18 278 54 c 1
 235 18 183 -11 143 -11 c 0
 75 -11 25 43 25 108 c 0
 25 229 181 276 270 310 c 1
 270 399 266 435 210 435 c 0
 194 435 164 430 155 415 c 1
 152 404 157 386 157 361 c 0
 157 332 129 304 100 304 c 0
 43 304 29 353 55 401 c 0
 92 465 158 482 224 482 c 0
 344 482 379 432 379 300 c 2
 379 89 l 2
 379 61 399 66 455 108 c 0
270 108 m 1
 270 260 l 1
 212 238 137 220 137 143 c 0
 137 108 155 74 195 74 c 0
 210 74 258 89 270 108 c 1
EndSplineSet
EndChar
StartChar: b
Encoding: 98 98 67
Width: 499
Flags: W
HStem: -11 59<241 261> 396 86<258 301>
VStem: 61 111<80 326 80 713> 373 112<212 255>
Fore
485 255 m 0
 485 255 l 0
 485 118 387 -11 243 -11 c 0
 183 -11 121 6 78 40 c 0
 68 48 61 61 61 80 c 2
 61 571 l 2
 61 627 52 619 -3 619 c 1
 -3 659 l 1
 41 671 68 676 92 685 c 2
 172 713 l 1
 172 429 l 1
 204 464 252 482 301 482 c 0
 424 482 485 362 485 255 c 0
373 212 m 0
 373 286 352 396 258 396 c 0
 194 396 172 359 172 321 c 2
 172 97 l 1
 169 71 180 69 201 58 c 0
 217 52 241 48 257 48 c 0
 349 48 373 135 373 212 c 0
EndSplineSet
EndChar
StartChar: c
Encoding: 99 99 68
Width: 443
Flags: W
HStem: -11 95<212 257> 316 21G<338.5 367.5> 429 53<228 249>
VStem: 12 103<226 267> 295 115<370 373>
Fore
429 167 m 1
 379 66 319 -11 212 -11 c 0
 98 -11 12 95 12 226 c 0
 12 362 92 482 249 482 c 0
 310 482 406 447 410 373 c 0
 410 344 382 316 353 316 c 0
 324 316 295 344 295 372 c 0
 295 406 275 429 230 429 c 0
 151 429 115 344 115 267 c 0
 115 181 161 84 257 84 c 0
 318 84 356 129 395 186 c 1
 429 167 l 1
EndSplineSet
EndChar
StartChar: d
Encoding: 100 100 69
Width: 499
Flags: W
HStem: -11 74<212 250> 427 55<221 250>
VStem: 14 110<223 253> 327 109<121 713>
Fore
502 48 m 1
 502 48 l 0
 447 31 396 14 327 -22 c 1
 327 38 l 1
 296 9 255 -11 212 -11 c 0
 80 -11 14 104 14 223 c 0
 14 346 101 482 237 482 c 0
 275 482 306 468 327 456 c 1
 327 571 l 2
 327 625 321 619 261 619 c 1
 261 659 l 1
 307 671 332 677 356 685 c 2
 436 713 l 1
 436 103 l 2
 436 74 465 84 502 84 c 1
 502 48 l 1
327 129 m 2
 327 312 l 2
 327 376 300 427 235 427 c 0
 158 427 124 338 124 253 c 0
 124 132 177 63 250 63 c 0
 300 63 327 100 327 129 c 2
EndSplineSet
EndChar
StartChar: e
Encoding: 101 101 70
Width: 443
Flags: W
HStem: -11 92<212 253> 276 56<109 415> 422 60<204 226>
Fore
438 178 m 1
 438 178 l 0
 401 71 316 -11 212 -11 c 0
 91 -11 11 100 11 226 c 0
 11 376 97 482 226 482 c 0
 341 482 412 399 415 276 c 1
 103 276 l 1
 109 189 152 81 253 81 c 0
 315 81 364 131 399 194 c 1
 438 178 l 1
286 332 m 1
 281 378 258 422 204 422 c 0
 146 422 118 382 109 332 c 1
 286 332 l 1
EndSplineSet
EndChar
StartChar: f
Encoding: 102 102 71
Width: 333
Flags: W
HStem: 0 37<8 19.5 279.167 292> 416 56<9 91 200 321> 579 128<273 344>
VStem: 91 109<92 416 472 512.84>
Fore
393 639 m 1
 393 611 373 579 344 579 c 0
 287 579 300 630 260 650 c 0
 252 654 238 656 230 651 c 1
 195 642 200 594 200 565 c 2
 200 472 l 1
 321 472 l 1
 321 416 l 1
 200 416 l 1
 200 92 l 2
 200 55 215 43 292 37 c 1
 292 0 l 1
 8 0 l 1
 8 37 l 1
 77 43 91 55 91 92 c 2
 91 416 l 1
 9 416 l 1
 9 472 l 1
 91 472 l 1
 91 504 92 530 98 559 c 0
 117 642 184 707 273 707 c 0
 318 707 369 696 393 639 c 1
EndSplineSet
EndChar
StartChar: g
Encoding: 103 103 72
Width: 499
Flags: W
HStem: -217 80<200 240> 147 51<242 257> 386 96<244 482> 430 52<222 244>
VStem: 15 96<-101 -78> 57 107<309 347> 316 102<284 312> 421 52<-55 -37>
Fore
482 386 m 1xe7
 406 386 l 0
 415 359 418 332 418 312 c 0
 418 209 338 147 244 147 c 0
 229 147 210 151 192 154 c 1
 175 149 144 121 146 103 c 1
 160 86 204 89 223 88 c 0
 366 81 473 88 473 -37 c 0
 473 -157 298 -217 200 -217 c 0
 75 -217 15 -144 15 -101 c 0xeb
 15 -61 54 -32 104 11 c 1
 83 22 61 40 61 66 c 0
 61 104 101 143 140 174 c 1
 88 200 57 244 57 309 c 0
 57 415 141 482 244 482 c 0
 330 482 339 432 482 450 c 1
 482 386 l 1xe7
316 284 m 0
 316 284 l 0
 316 335 292 430 230 430 c 0
 178 430 164 390 164 347 c 0xd7
 164 290 181 198 255 198 c 0
 304 198 316 241 316 284 c 0
421 -55 m 0
 421 -11 356 -15 298 -14 c 0
 255 -14 198 -12 151 -5 c 1
 134 -25 111 -52 111 -78 c 0xcb
 111 -111 147 -137 240 -137 c 0
 349 -137 421 -108 421 -55 c 0
EndSplineSet
EndChar
StartChar: h
Encoding: 104 104 73
Width: 499
Flags: W
HStem: 0 37<-3 9.75 219.25 232 267 279.75 489.5 502> 404 78<266 301>
VStem: 60 109<92 352 92 713> 330 109<92 321>
Fore
502 0 m 1
 267 0 l 1
 267 37 l 1
 318 41 330 57 330 92 c 2
 330 300 l 2
 330 350 329 404 266 404 c 0
 217 404 194 379 169 352 c 1
 169 92 l 2
 169 57 181 41 232 37 c 1
 232 0 l 1
 -3 0 l 1
 -3 37 l 1
 48 41 60 57 60 92 c 2
 60 571 l 2
 60 622 52 621 -3 619 c 1
 -3 659 l 1
 40 671 65 677 89 685 c 2
 169 713 l 1
 169 422 l 1
 203 458 249 482 301 482 c 0
 410 482 439 421 439 301 c 2
 439 92 l 2
 439 57 452 41 502 37 c 1
 502 0 l 1
EndSplineSet
EndChar
StartChar: i
Encoding: 105 105 74
Width: 278
Flags: W
HStem: 0 38<11 31.3333 251 272> 579 128<134 140>
VStem: 86 109<92 353>
Fore
197 642 m 0
 197 642 l 0
 197 608 167 579 134 579 c 0
 97 579 71 608 71 642 c 0
 71 679 97 707 134 707 c 0
 167 707 197 679 197 642 c 0
272 0 m 1
 11 0 l 1
 11 38 l 1
 72 41 86 57 86 92 c 2
 86 335 l 2
 86 398 77 404 11 386 c 1
 11 425 l 1
 195 488 l 1
 195 92 l 2
 195 57 209 41 272 38 c 1
 272 0 l 1
EndSplineSet
EndChar
StartChar: j
Encoding: 106 106 75
Width: 278
Flags: W
HStem: 579 128<161 163>
VStem: 109 109<-81 360>
Fore
224 642 m 0
 224 642 l 0
 224 608 195 579 161 579 c 0
 127 579 98 608 98 642 c 0
 98 679 127 707 161 707 c 0
 195 707 224 679 224 642 c 0
218 25 m 2
 218 -137 154 -217 35 -217 c 0
 5 -217 -32 -204 -52 -186 c 1
 -78 -157 -69 -112 -41 -101 c 1
 -15 -88 11 -94 26 -112 c 1
 35 -127 48 -146 74 -158 c 0
 108 -174 109 -114 109 -81 c 2
 109 355 l 2
 109 398 97 398 35 389 c 1
 35 425 l 1
 218 488 l 1
 218 25 l 2
EndSplineSet
EndChar
StartChar: k
Encoding: 107 107 76
Width: 499
Flags: W
HStem: 0 37<496.25 511> 433 39<258 305.827 258 487>
VStem: 65 109<92 224 92 713>
DStem: 174 224 247 293 301 55 384 118
Fore
511 0 m 1
 270 0 l 1
 270 38 l 1
 309 38 306 49 301 55 c 2
 174 224 l 1
 174 92 l 2
 174 57 187 41 249 38 c 1
 249 0 l 1
 -11 0 l 1
 -11 38 l 1
 51 41 65 57 65 92 c 2
 65 591 l 2
 65 627 54 622 -2 617 c 1
 -2 659 l 1
 45 671 69 677 94 685 c 2
 174 713 l 1
 174 301 l 1
 280 395 l 2
 290 406 301 415 309 427 c 1
 309 436 296 433 258 433 c 1
 258 472 l 1
 487 472 l 1
 487 433 l 1
 378 433 330 367 247 293 c 1
 384 118 l 2
 413 81 452 41 511 37 c 1
 511 0 l 1
EndSplineSet
EndChar
StartChar: l
Encoding: 108 108 77
Width: 278
Flags: W
HStem: 0 38<8 29.3333 250.333 272>
VStem: 84 111<92 593>
Fore
272 0 m 1
 8 0 l 1
 8 38 l 1
 72 41 84 57 84 92 c 2
 84 571 l 2
 84 633 77 624 8 624 c 1
 8 660 l 1
 65 671 135 690 195 711 c 1
 195 92 l 2
 195 57 207 41 272 38 c 1
 272 0 l 1
EndSplineSet
EndChar
StartChar: m
Encoding: 109 109 78
Width: 777
Flags: W
HStem: 0 37<2 14.5 224.25 237 270 282.75 492.5 505 541 553.5 763.25 776> 404 78<276 316 538 574>
VStem: 65 109<92 335> 333 109<92 300> 604 109<92 321>
Fore
776 0 m 1
 541 0 l 1
 541 37 l 1
 591 41 604 57 604 92 c 2
 604 295 l 2
 604 381 593 404 538 404 c 0
 498 404 462 384 442 353 c 1
 442 92 l 2
 442 57 455 41 505 37 c 1
 505 0 l 1
 270 0 l 1
 270 37 l 1
 321 41 333 57 333 92 c 2
 333 300 l 1
 335 346 335 404 276 404 c 0
 240 404 194 386 174 355 c 1
 174 92 l 2
 174 57 186 41 237 37 c 1
 237 0 l 1
 2 0 l 1
 2 37 l 1
 52 41 65 57 65 92 c 2
 65 335 l 1
 68 379 55 389 2 389 c 1
 2 427 l 1
 174 488 l 1
 174 404 l 2
 174 384 177 424 189 433 c 0
 224 461 269 482 316 482 c 0
 366 482 406 452 425 409 c 1
 464 447 522 482 574 482 c 0
 702 482 713 375 713 280 c 2
 713 92 l 2
 713 57 725 41 776 37 c 1
 776 0 l 1
EndSplineSet
EndChar
StartChar: n
Encoding: 110 110 79
Width: 499
Flags: W
HStem: 0 37<-3 9.75 219.25 232 267 279.75 489.5 502> 404 78<266 310>
VStem: 60 109<92 353> 330 109<92 338>
Fore
502 0 m 1
 267 0 l 1
 267 37 l 1
 318 41 330 57 330 92 c 2
 330 307 l 2
 330 358 327 404 266 404 c 0
 223 404 192 378 169 353 c 1
 169 92 l 2
 169 57 181 41 232 37 c 1
 232 0 l 1
 -3 0 l 1
 -3 37 l 1
 48 41 60 57 60 92 c 2
 60 336 l 2
 60 399 54 399 -3 395 c 1
 -3 432 l 1
 169 487 l 1
 169 421 l 1
 204 453 247 482 310 482 c 0
 393 482 439 425 439 309 c 2
 439 92 l 2
 439 57 452 41 502 37 c 1
 502 0 l 1
EndSplineSet
EndChar
StartChar: o
Encoding: 111 111 80
Width: 499
Flags: W
HStem: -11 56<246 266> 427 55<225 248>
VStem: 18 117<230 284> 366 116<203 250>
Fore
482 250 m 0
 482 250 l 0
 482 114 392 -11 246 -11 c 0
 111 -11 18 103 18 230 c 0
 18 370 100 482 246 482 c 0
 386 482 482 389 482 250 c 0
366 203 m 0
 366 287 341 427 233 427 c 0
 166 427 135 364 135 284 c 0
 134 151 175 45 264 45 c 0
 336 45 366 124 366 203 c 0
EndSplineSet
EndChar
StartChar: p
Encoding: 112 112 81
Width: 499
Flags: W
HStem: -217 37<-9 2.6> -11 59<251 265> 402 80<258 306>
VStem: 63 109<-124 344> 372 110<215 255>
Fore
482 255 m 0
 482 255 l 0
 482 114 389 -11 253 -11 c 0
 224 -11 195 2 172 20 c 1
 172 -124 l 2
 172 -161 186 -175 255 -178 c 1
 255 -217 l 1
 -9 -217 l 1
 -9 -180 l 1
 49 -175 63 -161 63 -124 c 2
 63 339 l 2
 63 386 63 402 -9 395 c 1
 -9 432 l 1
 172 487 l 1
 172 429 l 1
 174 430 175 433 178 435 c 0
 207 462 243 482 306 482 c 0
 424 482 482 379 482 255 c 0
372 215 m 0
 372 290 355 402 258 402 c 0
 232 402 204 390 187 372 c 1
 172 358 172 355 172 336 c 2
 172 115 l 2
 172 91 183 80 204 66 c 0
 221 55 243 48 263 48 c 0
 329 48 372 123 372 215 c 0
EndSplineSet
EndChar
StartChar: q
Encoding: 113 113 82
Width: 499
Flags: W
HStem: -217 37<498 510> -11 86<194 233> 433 49<231 252>
VStem: 12 111<226 257> 327 109<-124 46 118 452>
Fore
510 -217 m 1
 244 -217 l 1
 244 -178 l 1
 313 -175 327 -161 327 -124 c 2
 327 46 l 1
 287 15 243 -11 194 -11 c 0
 55 -11 12 117 12 226 c 0
 12 361 106 482 250 482 c 0
 290 482 327 473 359 453 c 1
 401 479 l 1
 433 496 436 472 436 452 c 2
 436 -124 l 2
 436 -161 450 -175 510 -180 c 1
 510 -217 l 1
327 152 m 2
 327 335 l 2
 327 376 332 404 287 425 c 0
 270 432 263 433 244 433 c 0
 154 433 123 333 123 257 c 0
 123 154 160 75 233 75 c 0
 261 75 293 84 316 103 c 1
 332 118 327 131 327 152 c 2
EndSplineSet
EndChar
StartChar: r
Encoding: 114 114 83
Width: 333
Flags: W
HStem: 0 38<-8 12.6667 231.333 252> 396 86<226 278>
VStem: 68 109<92 337>
Fore
346 402 m 0
 341 373 319 361 293 361 c 0
 258 361 250 396 226 396 c 0
 209 396 177 355 177 330 c 2
 177 92 l 2
 177 57 190 41 252 38 c 1
 252 0 l 1
 -8 0 l 1
 -8 38 l 1
 54 41 68 57 68 92 c 2
 68 310 l 2
 68 390 58 404 -8 384 c 1
 -8 425 l 1
 177 488 l 1
 177 419 l 1
 201 452 238 482 278 482 c 0
 324 482 353 455 346 402 c 0
EndSplineSet
EndChar
StartChar: s
Encoding: 115 115 84
Width: 388
Flags: W
HStem: -11 49<181 202> 435 47<181 202>
VStem: 38 88<347 382> 266 93<97 137>
Fore
359 137 m 0
 359 43 287 -11 200 -11 c 0
 169 -11 152 -3 124 5 c 0
 80 18 78 12 75 -3 c 1
 38 -3 l 1
 38 178 l 1
 78 178 l 1
 91 101 121 38 198 38 c 0
 233 38 266 60 266 97 c 0
 266 203 38 206 38 347 c 0
 38 433 111 482 190 482 c 0
 215 482 233 478 267 464 c 0
 289 456 290 465 298 473 c 1
 327 473 l 1
 327 313 l 1
 290 313 l 1
 270 386 250 435 189 435 c 0
 157 435 126 415 126 382 c 0
 126 283 359 263 359 137 c 0
EndSplineSet
EndChar
StartChar: t
Encoding: 116 116 85
Width: 278
Flags: W
HStem: -11 21G<114 176> 416 56<169 267>
VStem: 58 111<132 416>
Fore
296 81 m 1
 250 22 201 -11 151 -11 c 0
 77 -11 57 32 58 141 c 1
 58 416 l 1
 41 416 l 2
 22 416 -9 418 6 450 c 1
 61 487 100 545 169 624 c 1
 169 472 l 1
 267 472 l 1
 267 416 l 1
 169 416 l 1
 169 158 l 2
 169 97 172 52 224 72 c 0
 238 78 247 89 266 111 c 1
 296 81 l 1
EndSplineSet
EndChar
StartChar: u
Encoding: 117 117 86
Width: 499
Flags: W
HStem: -11 83<189 232> 433 39<-3 21.0213 247 275.387>
VStem: 60 109<130 384> 319 110<162 472>
Fore
492 40 m 1
 442 25 390 6 326 -17 c 1
 326 58 l 1
 303 32 258 -11 189 -11 c 0
 101 -11 60 51 60 144 c 2
 60 373 l 2
 60 422 54 433 -3 433 c 1
 -3 472 l 1
 169 472 l 1
 169 149 l 2
 169 106 184 72 232 72 c 0
 257 72 283 86 303 101 c 0
 326 121 319 132 319 163 c 2
 319 372 l 2
 319 422 315 433 247 433 c 1
 247 472 l 1
 429 472 l 1
 429 132 l 2
 429 89 432 72 492 77 c 1
 492 40 l 1
EndSplineSet
EndChar
StartChar: v
Encoding: 118 118 87
Width: 499
Flags: W
HStem: -11 21G<244 252> 433 39<-2 11.7764 -2 218 316 478.937>
DStem: 63 387 184 375 220 25 270 164
Fore
479 433 m 1
 435 433 427 393 410 350 c 1
 276 25 l 1
 273 14 257 -11 247 -11 c 0
 241 -11 223 14 220 25 c 1
 63 387 l 2
 49 418 31 433 -2 433 c 1
 -2 472 l 1
 218 472 l 1
 218 433 l 1
 158 433 175 402 184 375 c 1
 270 164 l 1
 336 339 l 1
 361 407 378 433 316 433 c 1
 316 472 l 1
 479 472 l 1
 479 433 l 1
EndSplineSet
MinimumDistance: x6,9 
EndChar
StartChar: w
Encoding: 119 119 88
Width: 721
Flags: W
HStem: -11 21G<232 238 485 491.5> 433 39<9 22.4334 250 265.489 443 476 558 575.762>
DStem: 77 350 221 261 217 5 261 158 336 323 370 250 261 158 255 5 370 250 433 359 468 3 507 167
Fore
705 436 m 1
 674 425 665 393 657 378 c 1
 507 5 l 2
 504 -2 495 -11 488 -11 c 0
 482 -11 475 -2 468 3 c 1
 370 250 l 1
 255 5 l 2
 252 -2 241 -11 235 -11 c 0
 229 -11 220 -2 217 5 c 2
 77 350 l 2
 54 406 54 433 9 433 c 1
 9 472 l 1
 214 472 l 1
 214 432 l 1
 183 435 167 433 167 412 c 0
 167 387 212 287 221 261 c 1
 261 158 l 1
 336 323 l 1
 315 399 307 433 250 433 c 1
 250 472 l 1
 476 472 l 1
 476 433 l 1
 410 435 412 416 433 359 c 2
 507 167 l 1
 507 166 579 339 579 339 c 1
 605 407 619 433 558 433 c 1
 558 472 l 1
 705 472 l 1
 705 436 l 1
EndSplineSet
EndChar
StartChar: x
Encoding: 120 120 89
Width: 499
Flags: W
HStem: 0 38<5 19.2886 175 175 266 284.5 492 492> 433 39<12 244 264 294.26 264 445>
DStem: 189 244 221 186 86 97 160 91 221 186 284 281 313 54 401 103
Fore
492 0 m 1
 266 0 l 1
 266 38 l 1
 303 40 324 38 313 54 c 2
 221 186 l 1
 160 91 l 2
 132 48 126 38 175 38 c 1
 175 0 l 1
 5 0 l 1
 5 38 l 1
 49 38 63 63 86 97 c 2
 189 244 l 1
 108 369 l 2
 86 401 83 430 12 433 c 1
 12 472 l 1
 244 472 l 1
 244 433 l 1
 209 433 201 427 201 419 c 0
 201 409 232 362 249 335 c 1
 270 361 304 402 304 422 c 0
 304 435 286 433 264 433 c 1
 264 472 l 1
 445 472 l 1
 445 433 l 1
 401 433 373 409 355 384 c 1
 284 281 l 1
 401 103 l 2
 424 68 447 38 492 38 c 1
 492 0 l 1
EndSplineSet
MinimumDistance: x2,27 x9,6 
EndChar
StartChar: y
Encoding: 121 121 90
Width: 499
Flags: W
HStem: -217 125<83 103> 433 39<3 233 329 329 329 329 329 488>
DStem: 60 398 184 384 230 32 286 160
Fore
488 433 m 1
 459 433 442 402 435 384 c 2
 287 0 l 1
 258 -78 207 -217 103 -217 c 0
 72 -217 43 -204 26 -177 c 1
 18 -158 15 -141 25 -121 c 0
 34 -100 60 -92 83 -92 c 0
 100 -92 121 -103 146 -109 c 0
 170 -115 186 -91 220 -6 c 0
 224 6 233 23 230 32 c 1
 60 398 l 1
 51 419 38 430 3 435 c 1
 3 472 l 1
 233 472 l 1
 233 433 l 1
 170 433 170 416 184 384 c 2
 286 160 l 1
 373 409 l 2
 378 421 375 432 329 433 c 1
 329 472 l 1
 488 472 l 1
 488 433 l 1
EndSplineSet
EndChar
StartChar: z
Encoding: 122 122 91
Width: 443
Flags: W
HStem: 0 55<157 415> 416 56<45 269>
DStem: 270 416 415 442 12 29 157 55
Fore
432 158 m 1
 415 0 l 1
 12 0 l 1
 12 29 l 1
 270 416 l 1
 167 416 l 2
 92 416 88 389 81 330 c 1
 41 330 l 1
 45 472 l 1
 418 472 l 1
 415 442 l 1
 157 55 l 1
 260 55 l 2
 287 55 316 57 343 68 c 1
 378 77 379 124 392 167 c 1
 432 158 l 1
EndSplineSet
EndChar
StartChar: braceleft
Encoding: 123 123 92
Width: 479
Flags: W
VStem: 174 96<-37 157 379 573>
Fore
344 -140 m 1
 341 -164 l 1
 218 -167 174 -138 174 -5 c 2
 174 155 l 2
 174 214 166 241 63 269 c 1
 161 296 174 326 174 382 c 2
 174 556 l 2
 174 684 233 707 341 707 c 1
 344 682 l 1
 286 667 270 633 270 571 c 2
 270 396 l 2
 270 332 260 292 214 269 c 1
 261 244 270 200 270 134 c 2
 270 -31 l 2
 270 -91 287 -129 344 -140 c 1
EndSplineSet
EndChar
StartChar: bar
Encoding: 124 124 93
Width: 199
Flags: W
HStem: 0 21G<55 144>
VStem: 55 89<0 707>
Fore
144 0 m 1
 55 0 l 1
 55 707 l 1
 144 707 l 1
 144 0 l 1
EndSplineSet
EndChar
StartChar: braceright
Encoding: 125 125 94
Width: 479
Flags: W
VStem: 210 96<-37 157 379 573>
Fore
419 269 m 1
 315 241 306 214 306 155 c 2
 306 -5 l 2
 306 -138 261 -167 140 -164 c 1
 137 -140 l 1
 194 -129 210 -91 210 -31 c 2
 210 134 l 2
 210 198 218 244 266 269 c 1
 220 292 210 332 210 396 c 2
 210 571 l 2
 210 633 195 667 137 682 c 1
 140 707 l 1
 247 707 306 684 306 556 c 2
 306 382 l 2
 306 326 318 296 419 269 c 1
EndSplineSet
EndChar
StartChar: asciitilde
Encoding: 126 126 95
Width: 540
Flags: W
HStem: 198 158<160 174.768 160 383>
Fore
538 321 m 1
 502 257 450 198 381 198 c 0
 304 198 229 267 160 267 c 0
 109 267 86 220 57 169 c 1
 5 229 l 1
 40 292 84 356 160 356 c 0
 229 356 329 286 382 286 c 0
 422 286 458 330 485 381 c 1
 538 321 l 1
EndSplineSet
EndChar
StartChar: uni0E10.descless
Encoding: 128 63232 96
Width: 508
Flags: HW
HStem: -5 50<293 300> 166 44<140 146> 315 43<140 146> 489 76<348 365> 489 109<189 365>
VStem: 166 101<90 258> 192 75<256 272> 319 102<74 338>
DStem: 17 445 86 478 298 370 358 407
Fore
442 558 m 0xf3
 422 505 387 489 348 489 c 0
 286 489 212 528 156 528 c 0
 125 528 100 516 86 478 c 1
 358 407 l 2
 373 402 421 395 421 335 c 2
 421 106 l 2
 421 34 379 -5 293 -5 c 0
 221 -5 166 38 166 106 c 2
 166 169 l 1
 157 167 149 166 140 166 c 0
 78 166 41 215 43 269 c 0
 48 319 83 358 140 358 c 0
 229 359 267 313 267 258 c 2xf5
 267 75 l 2
 267 61 275 45 293 45 c 0
 312 45 319 61 319 74 c 2
 319 333 l 2
 319 358 310 367 298 370 c 2
 17 445 l 1
 32 493 71 601 189 598 c 0xeb
 235 598 310 565 365 565 c 0
 387 565 406 570 418 585 c 0
 430 601 459 599 442 558 c 0xf3
140 210 m 0
 175 210 192 236 192 262 c 0xe3
 192 289 175 315 140 315 c 0
 104 315 87 289 87 262 c 0
 87 236 104 210 140 210 c 0
EndSplineSet
KernsSLIF: 212 31 0 0 215 31 0 0 214 31 0 0 213 31 0 0
EndChar
StartChar: uni0E34.left
Encoding: 129 63233 97
Width: 0
Flags: HW
HStem: 726 45<-589 -556> 839 55<-493 -459>
Fore
-233 636 m 1
 -368 694 -470 726 -577 726 c 0
 -617 726 -657 722 -700 713 c 1
 -669 833 -570 894 -470 894 c 0
 -351 894 -233 808 -233 636 c 1
-293 708 m 1
 -322 788 -400 839 -477 839 c 0
 -528 839 -579 818 -616 768 c 1
 -597 770 -578 771 -558 771 c 0
 -472 771 -377 750 -293 708 c 1
EndSplineSet
EndChar
StartChar: uni0E35.left
Encoding: 130 63234 98
Width: 0
Flags: HW
HStem: 726 46<-579 -553> 827 55<-493 -475>
VStem: -355 97<849 948>
Fore
-233 636 m 1
 -368 694 -470 726 -577 726 c 0
 -617 726 -657 722 -700 713 c 1
 -671 829 -577 882 -482 882 c 0
 -438 882 -394 870 -355 849 c 1
 -355 948 l 1
 -258 948 l 1
 -258 751 l 1
 -247 739 -233 690 -233 636 c 1
-296 710 m 1
 -320 781 -403 827 -483 827 c 0
 -533 827 -582 809 -616 768 c 1
 -596 770 -576 772 -555 772 c 0
 -470 772 -379 752 -296 710 c 1
EndSplineSet
EndChar
StartChar: uni0E36.left
Encoding: 131 63235 99
Width: 0
Flags: HW
HStem: 726 46<-579 -553> 819 8<-483 -327> 827 54<-483 -475> 914 38<-327 -315>
VStem: -416 37<866 876> -275 43<866 876>
Fore
-233 636 m 1
 -368 694 -470 726 -577 726 c 0
 -617 726 -657 722 -700 713 c 1
 -670 832 -572 881 -483 881 c 0
 -460 881 -437 878 -416 872 c 1
 -416 875 l 0
 -416 909 -387 952 -327 952 c 0
 -262 952 -232 908 -232 866 c 0
 -232 833 -250 801 -283 791 c 1
 -250 768 -233 688 -233 636 c 1
-327 819 m 0
 -292 819 -275 843 -275 866 c 0
 -275 890 -292 914 -327 914 c 0
 -362 914 -379 890 -379 866 c 0
 -379 843 -362 819 -327 819 c 0
-296 710 m 1
 -320 781 -403 827 -483 827 c 0
 -533 827 -582 809 -616 768 c 1
 -596 770 -576 772 -555 772 c 0
 -470 772 -379 752 -296 710 c 1
EndSplineSet
EndChar
StartChar: uni0E37.left
Encoding: 132 63236 100
Width: 0
Flags: HW
HStem: 726 46<-579 -553> 827 55<-493 -476> 827 121<-483 -472>
VStem: -338 78<839 948>
Fore
-296 710 m 1xd0
 -320 781 -403 827 -483 827 c 0
 -533 827 -582 809 -616 768 c 1
 -596 770 -576 772 -555 772 c 0
 -470 772 -379 752 -296 710 c 1xd0
-258 743 m 1
 -246 733 -233 684 -233 636 c 1
 -368 694 -470 726 -577 726 c 0
 -617 726 -657 722 -700 713 c 1
 -670 831 -573 883 -476 882 c 1xd0
 -475 948 l 1
 -402 948 l 1
 -401 869 l 1
 -387 866 -352 851 -338 839 c 1
 -336 948 l 1
 -260 948 l 1xb0
 -258 743 l 1
EndSplineSet
EndChar
StartChar: ellipsis
Encoding: 133 8230 101
Width: 998
Flags: HW
HStem: -14 21G<147.5 185 480 517.5 812.5 850>
VStem: 98 139<57 67> 430 140<57 67> 763 139<57 67>
CounterMasks: 1 70
Fore
902 57 m 0
 902 57 l 0
 902 18 869 -14 831 -14 c 0
 794 -14 763 20 763 57 c 0
 763 92 796 126 831 126 c 0
 868 126 902 94 902 57 c 0
570 57 m 0
 570 57 l 0
 570 18 536 -14 499 -14 c 0
 461 -14 430 20 430 57 c 0
 430 92 462 126 499 126 c 0
 536 126 570 94 570 57 c 0
237 57 m 0
 237 18 204 -14 166 -14 c 0
 129 -14 98 20 98 57 c 0
 98 92 131 126 166 126 c 0
 203 126 237 94 237 57 c 0
EndSplineSet
EndChar
StartChar: uni0E48.low_left
Encoding: 134 63237 102
Width: 0
Flags: HW
Fore
-266 926 m 1
 -281 688 l 1
 -353 688 l 1
 -370 926 l 1
 -266 926 l 1
EndSplineSet
EndChar
StartChar: uni0E49.low_left
Encoding: 135 63238 103
Width: 0
Flags: HW
HStem: 892 48<-566.446 -547>
VStem: -652 50<840 852> -510 52<840 853>
Fore
-229 940 m 17
 -266 627 -570 665 -624 670 c 1
 -624 710 l 1
 -578 716 -559 736 -550 757 c 1
 -550 760 l 1
 -550 760 -559 757 -576 759 c 0
 -626 767 -652 808 -652 850 c 0
 -652 895 -621 940 -556 940 c 0
 -458 940 -458 851 -458 849 c 0
 -458 765 -502 725 -502 725 c 1
 -502 722 l 1
 -502 722 -326 737 -330 940 c 1
 -229 940 l 17
-556 800 m 0
 -526 800 -510 823 -510 846 c 0
 -510 869 -526 892 -556 892 c 0
 -586 892 -602 869 -602 846 c 0
 -602 823 -586 800 -556 800 c 0
EndSplineSet
EndChar
StartChar: uni0E4A.low_left
Encoding: 136 63239 104
Width: 0
Flags: HW
HStem: 677 31<-558 -546> 785 31<-558 -546>
VStem: -511 33<740 750> -400 56<794 814>
Fore
-237 917 m 17
 -227 790 -307 677 -447 677 c 1
 -447 713 l 1
 -413 731 -400 763 -400 794 c 0
 -400 827 -416 858 -438 866 c 1
 -493 828 l 1
 -556 869 l 1
 -587 863 -601 822 -598 799 c 1
 -594 796 l 1
 -594 796 -582 816 -548 816 c 0
 -508 816 -478 790 -478 748 c 0
 -478 705 -507 677 -548 677 c 0
 -613 677 -651 734 -651 806 c 0
 -651 851 -613 919 -551 923 c 1
 -493 874 l 1
 -435 923 l 1
 -367 904 -344 858 -344 814 c 0
 -344 789 -352 764 -364 746 c 1
 -361 745 l 1
 -319 771 -290 833 -310 917 c 1
 -237 917 l 17
-550 708 m 0
 -524 708 -511 727 -511 746 c 0
 -511 766 -524 785 -550 785 c 0
 -576 785 -588 766 -588 746 c 0
 -588 727 -576 708 -550 708 c 0
EndSplineSet
EndChar
StartChar: uni0E4B.low_left
Encoding: 137 63240 105
Width: 0
Flags: HW
HStem: 691 21G<-422 -349> 773 75<-518 -424 -347 -253>
VStem: -424 75<691 773 849 931>
DStem: -424 849 -347 849 -518 848 -253 848
Fore
-253 774 m 1
 -347 773 l 1
 -349 691 l 1
 -422 691 l 1
 -424 773 l 1
 -518 774 l 1
 -518 848 l 1
 -424 849 l 1
 -425 931 l 1
 -346 931 l 1
 -347 849 l 1
 -253 848 l 1
 -253 774 l 1
EndSplineSet
MinimumDistance: x8,9 
EndChar
StartChar: uni0E4C.low_left
Encoding: 138 63241 106
Width: 0
Flags: HW
HStem: 679 43<-435 -427>
VStem: -524 46<758 768> -395 46<758 768>
Fore
-238 954 m 17
 -264 857 -375 836 -399 829 c 1
 -399 826 l 1
 -375 825 -349 802 -349 760 c 0
 -349 714 -384 679 -435 679 c 0
 -490 679 -524 720 -524 766 c 0
 -524 806 -495 859 -404 876 c 0
 -358 885 -326 919 -316 975 c 1
 -238 954 l 17
-435 722 m 0
 -408 722 -395 743 -395 764 c 0
 -395 784 -408 805 -435 805 c 0
 -464 805 -478 784 -478 764 c 0
 -478 743 -464 722 -435 722 c 0
EndSplineSet
EndChar
StartChar: uni0E48.low
Encoding: 139 63242 107
Width: 0
Flags: HW
AnchorPoint: "AboveBase" -93.6963 629.76 mark 0
Fore
-88 926 m 1
 -103 688 l 1
 -183 688 l 1
 -200 926 l 1
 -88 926 l 1
EndSplineSet
Substitution: 0 65534 'amni' uni0E4D
EndChar
StartChar: uni0E49.low
Encoding: 140 63243 108
Width: 0
Flags: HW
HStem: 925 53<-315 -296>
VStem: -410 56<864 881> -254 57<864 881>
AnchorPoint: "AboveBase" -93.6963 629.76 mark 0
Fore
57 972 m 17
 23 631 -332 673 -378 677 c 1
 -378 727 l 1
 -349 730 -312 742 -298 777 c 1
 -298 780 l 1
 -298 780 -310 777 -327 779 c 0
 -381 784 -410 831 -410 877 c 0
 -410 927 -376 978 -303 978 c 0
 -198 978 -197 880 -197 879 c 0
 -197 771 -252 736 -252 736 c 1
 -250 733 l 1
 -250 733 -41 763 -51 972 c 1
 57 972 l 17
-307 823 m 0
 -272 823 -254 848 -254 874 c 0
 -254 900 -272 925 -307 925 c 0
 -338 925 -354 900 -354 874 c 0
 -354 848 -338 823 -307 823 c 0
EndSplineSet
Substitution: 0 65534 'amni' uni0E4D
EndChar
StartChar: uni0E4A.low
Encoding: 141 63244 109
Width: 0
Flags: HW
HStem: 671 40<-353 -344> 794 39<-353 -344>
VStem: -314 42<748 759> -176 66<809 833>
AnchorPoint: "AboveBase" -93.6963 629.76 mark 0
Fore
20 954 m 17
 25 803 -68 671 -233 671 c 1
 -233 713 l 1
 -192 734 -176 773 -176 809 c 0
 -176 849 -195 885 -221 894 c 1
 -289 848 l 1
 -362 899 l 1
 -399 891 -416 842 -412 816 c 1
 -407 809 l 1
 -407 809 -393 833 -353 833 c 0
 -307 833 -272 803 -272 757 c 0
 -272 705 -304 671 -353 671 c 0
 -429 671 -473 737 -473 823 c 0
 -473 877 -429 955 -356 963 c 1
 -289 906 l 1
 -218 963 l 1
 -138 940 -110 884 -110 833 c 0
 -110 802 -120 773 -134 753 c 1
 -131 750 l 1
 -81 782 -48 856 -71 954 c 1
 20 954 l 17
-353 711 m 0
 -327 711 -314 732 -314 752 c 0
 -314 773 -327 794 -353 794 c 0
 -382 794 -396 773 -396 752 c 0
 -396 732 -382 711 -353 711 c 0
EndSplineSet
Substitution: 0 65534 'amni' uni0E4D
EndChar
StartChar: uni0E4B.low
Encoding: 142 63245 110
Width: 0
Flags: HW
HStem: 768 83<-292 -189 -95 5>
DStem: -190 852 -95 852 -292 851 5 851
AnchorPoint: "AboveBase" -93.6963 629.76 mark 0
Fore
5 770 m 1
 -97 768 l 1
 -98 677 l 1
 -187 677 l 1
 -189 768 l 1
 -292 770 l 1
 -292 851 l 1
 -190 852 l 1
 -192 942 l 1
 -94 942 l 1
 -95 852 l 1
 5 851 l 1
 5 770 l 1
EndSplineSet
MinimumDistance: x8,9 
Substitution: 0 65534 'amni' uni0E4D
EndChar
StartChar: uni0E4C.low
Encoding: 143 63246 111
Width: 0
Flags: HW
HStem: 671 48<-188.404 -175>
VStem: -273 50<758 770> -133 52<758 770>
AnchorPoint: "AboveBase" -93.6963 629.76 mark 0
Fore
40 974 m 17
 11 866 -111 843 -137 837 c 1
 -137 836 l 1
 -111 834 -81 806 -81 760 c 0
 -81 710 -120 671 -177 671 c 0
 -237 671 -273 717 -273 768 c 0
 -273 811 -241 865 -143 889 c 0
 -94 902 -55 935 -45 998 c 1
 40 974 l 17
-178 719 m 0
 -148 719 -133 742 -133 764 c 0
 -133 786 -148 809 -178 809 c 0
 -208 809 -223 786 -223 764 c 0
 -223 742 -208 719 -178 719 c 0
EndSplineSet
EndChar
StartChar: uni0E0D.descless
Encoding: 144 63247 112
Width: 800
Flags: HW
HStem: -8 49<530.535 547> 143 44<209 219> 378 44<88 117 88 275> 545 53<242 271>
VStem: 83 76<90 124> 83 103<124 326> 265 45<87 102> 379 103<115 401> 604 103<100 519>
Fore
707 117 m 2xf780
 707 61 639 -8 542 -8 c 0
 449 -8 379 54 379 124 c 2
 379 401 l 2
 379 496 312 545 242 545 c 0
 178 545 112 505 88 422 c 1
 276 422 l 1
 276 378 l 1
 253 378 226 378 226 378 c 2
 198 378 186 355 186 326 c 2
 186 183 l 1xf780
 197 186 208 187 217 187 c 0
 278 187 310 140 310 93 c 0
 310 46 279 -1 212 -5 c 0
 106 -9 83 80 83 124 c 2xfb80
 83 315 l 2
 83 336 97 373 117 378 c 1
 34 378 l 1
 39 522 157 598 271 598 c 0
 375 598 475 534 482 401 c 1
 482 101 l 2
 482 68 507 41 542 41 c 0
 579 41 604 66 604 100 c 1
 605 519 l 1
 656 582 l 2
 674 593 707 608 707 551 c 2
 707 117 l 2xf780
212 38 m 0
 248 38 265 64 265 90 c 0
 265 117 248 143 212 143 c 0
 176 143 159 117 159 90 c 0xfb80
 159 64 176 38 212 38 c 0
EndSplineSet
EndChar
StartChar: quoteleft
Encoding: 145 8216 113
Width: 333
Flags: HW
VStem: 89 54<559 588>
Fore
247 524 m 0
 247 479 218 452 175 452 c 0
 109 452 89 504 89 559 c 0
 89 637 157 713 217 731 c 1
 230 703 l 1
 178 680 143 622 143 588 c 0
 143 585 143 579 146 581 c 0
 158 587 163 588 181 588 c 0
 217 588 247 564 247 524 c 0
EndSplineSet
EndChar
StartChar: quoteright
Encoding: 146 8217 114
Width: 333
Flags: HW
HStem: 594 21G<133 160>
VStem: 189 54<594 624>
Fore
243 624 m 0
 243 545 175 470 115 452 c 1
 101 479 l 1
 154 502 189 561 189 594 c 0
 189 598 189 604 186 602 c 0
 174 596 169 594 151 594 c 0
 115 594 84 619 84 659 c 0
 84 703 114 731 157 731 c 0
 223 731 243 679 243 624 c 0
EndSplineSet
EndChar
StartChar: quotedblleft
Encoding: 147 8220 115
Width: 473
Flags: HW
VStem: 35 54<559 588> 267 54<559 588>
Fore
425 524 m 0
 425 479 396 452 353 452 c 0
 287 452 267 504 267 559 c 0
 267 637 335 713 395 731 c 1
 409 703 l 1
 356 680 321 622 321 588 c 0
 321 585 321 579 324 581 c 0
 336 587 341 588 359 588 c 0
 395 588 425 564 425 524 c 0
194 524 m 0
 194 479 164 452 121 452 c 0
 55 452 35 504 35 559 c 0
 35 637 103 713 163 731 c 1
 177 703 l 1
 124 680 89 622 89 588 c 0
 89 585 89 579 92 581 c 0
 104 587 109 588 127 588 c 0
 163 588 194 564 194 524 c 0
EndSplineSet
EndChar
StartChar: quotedblright
Encoding: 148 8221 116
Width: 473
Flags: HW
VStem: 149 54<591 621> 381 54<591 621>
Fore
435 621 m 0
 435 542 367 467 307 449 c 1
 293 476 l 1
 346 499 381 558 381 591 c 0
 381 594 381 601 378 599 c 0
 366 593 361 591 343 591 c 0
 307 591 276 616 276 656 c 0
 276 700 306 728 349 728 c 0
 415 728 435 676 435 621 c 0
203 621 m 0
 203 542 135 467 75 449 c 1
 61 476 l 1
 114 499 149 558 149 591 c 0
 149 594 149 601 146 599 c 0
 134 593 129 591 111 591 c 0
 75 591 45 616 45 656 c 0
 45 700 74 728 117 728 c 0
 183 728 203 676 203 621 c 0
EndSplineSet
EndChar
StartChar: bullet
Encoding: 149 8226 117
Width: 385
Flags: HW
Fore
335 319 m 0
 335 241 273 177 192 177 c 0
 115 177 51 241 51 319 c 0
 49 398 114 462 192 462 c 0
 273 462 335 398 335 319 c 0
EndSplineSet
EndChar
StartChar: endash
Encoding: 150 8211 118
Width: 768
Flags: HW
HStem: 201 72<22 746>
Fore
746 201 m 1
 22 201 l 1
 22 273 l 1
 746 273 l 1
 746 201 l 1
EndSplineSet
EndChar
StartChar: emdash
Encoding: 151 8212 119
Width: 1536
Flags: HW
HStem: 201 72<9 1527>
Fore
1527 201 m 1
 9 201 l 1
 9 273 l 1
 1527 273 l 1
 1527 201 l 1
EndSplineSet
EndChar
StartChar: uni0E31.left
Encoding: 152 63248 120
Width: 0
Flags: HW
HStem: 676 50<-301 -251> 676 100<-402 -281> 880 49<-402 -395>
VStem: -508 53<819 837> -350 54<819 837>
Fore
92 923 m 17xb8
 55 737 -134 676 -281 676 c 0
 -399 676 -508 736 -508 823 c 0
 -508 882 -461 929 -402 929 c 0
 -339 929 -296 885 -296 826 c 0
 -296 786 -318 754 -359 737 c 1
 -333 730 -304 726 -275 726 c 0
 -164 726 -42 782 -9 923 c 1
 92 923 l 17xb8
-402 776 m 0x78
 -367 776 -350 802 -350 828 c 0
 -350 854 -367 880 -402 880 c 0
 -438 880 -455 854 -455 828 c 0
 -455 802 -438 776 -402 776 c 0x78
EndSplineSet
EndChar
StartChar: uni0E4D.left
Encoding: 153 63249 121
Width: 0
Flags: HW
HStem: 673 54<-347.738 -333> 831 57<-347.738 -333>
VStem: -445 56<768 786> -284 54<768 786>
Fore
-336 673 m 0
 -408 673 -445 727 -445 780 c 0
 -445 834 -408 888 -336 888 c 0
 -265 888 -230 834 -230 780 c 0
 -230 727 -265 673 -336 673 c 0
-336 727 m 0
 -301 727 -284 753 -284 779 c 0
 -284 805 -301 831 -336 831 c 0
 -372 831 -389 805 -389 779 c 0
 -389 753 -372 727 -336 727 c 0
EndSplineSet
EndChar
StartChar: uni0E47.left
Encoding: 154 63250 122
Width: 0
Flags: HW
HStem: 656 44<-322 -304> 787 43<-312 -304>
VStem: -641 68<804 820> -396 40<741 753> -269 42<743 753>
Fore
-218 1008 m 17
 -220 897 -298 872 -370 876 c 0
 -404 877 -467 886 -505 888 c 0
 -545 891 -573 861 -573 818 c 0
 -574 797 -568 773 -554 748 c 1
 -525 813 -444 777 -410 742 c 1
 -410 742 -396 733 -396 746 c 0
 -396 801 -354 830 -312 830 c 0
 -270 830 -227 802 -227 743 c 0
 -227 684 -276 656 -315 656 c 0
 -395 656 -441 733 -496 733 c 0
 -538 733 -533 687 -504 656 c 1
 -573 657 l 1
 -619 698 -641 753 -641 804 c 0
 -642 882 -592 949 -502 940 c 0
 -470 937 -409 931 -379 928 c 0
 -355 925 -300 928 -309 1008 c 1
 -218 1008 l 17
-269 743 m 0
 -269 772 -291 787 -312 787 c 0
 -334 787 -356 772 -356 743 c 0
 -356 714 -334 700 -312 700 c 0
 -291 700 -269 714 -269 743 c 0
EndSplineSet
EndChar
StartChar: uni0E48.left
Encoding: 155 63251 123
Width: 0
Flags: HW
Fore
-240 1227 m 1
 -253 1021 l 1
 -330 1021 l 1
 -344 1227 l 1
 -240 1227 l 1
EndSplineSet
EndChar
StartChar: uni0E49.left
Encoding: 156 63252 124
Width: 0
Flags: HW
HStem: 1187 42<-350 -337>
VStem: -429 43<1146 1153> -306 46<1138.81 1153>
Fore
-54 1229 m 17
 -86 957 -358 991 -404 994 c 1
 -404 1029 l 1
 -364 1034 -349 1052 -339 1071 c 1
 -339 1074 l 1
 -339 1074 -349 1071 -362 1072 c 0
 -406 1079 -429 1115 -429 1151 c 0
 -429 1190 -402 1229 -346 1229 c 0
 -260 1229 -260 1152 -260 1150 c 0
 -260 1077 -298 1043 -298 1043 c 1
 -298 1040 l 1
 -298 1040 -138 1054 -143 1229 c 1
 -54 1229 l 17
-347 1109 m 0
 -320 1109 -306 1128 -306 1148 c 0
 -306 1168 -320 1187 -347 1187 c 0
 -373 1187 -386 1168 -386 1148 c 0
 -386 1128 -373 1109 -347 1109 c 0
EndSplineSet
EndChar
StartChar: uni0E4A.left
Encoding: 157 63253 125
Width: 0
Flags: HW
HStem: 986 35<-370 -360> 1089 35<-370 -360>
VStem: -336 35<1049 1059> -222 56<1102 1123>
Fore
-58 1226 m 17
 -49 1098 -129 986 -269 986 c 1
 -269 1021 l 1
 -235 1039 -222 1071 -222 1102 c 0
 -222 1136 -238 1167 -260 1175 c 1
 -315 1137 l 1
 -378 1178 l 1
 -409 1172 -422 1130 -419 1107 c 1
 -416 1104 l 1
 -416 1104 -404 1124 -370 1124 c 0
 -330 1124 -301 1098 -301 1057 c 0
 -301 1014 -329 986 -370 986 c 0
 -435 986 -473 1043 -473 1115 c 0
 -473 1160 -435 1227 -373 1232 c 1
 -315 1183 l 1
 -257 1232 l 1
 -189 1213 -166 1167 -166 1123 c 0
 -166 1098 -174 1073 -186 1055 c 1
 -183 1054 l 1
 -141 1080 -112 1141 -132 1226 c 1
 -58 1226 l 17
-370 1021 m 0
 -347 1021 -336 1038 -336 1055 c 0
 -336 1072 -347 1089 -370 1089 c 0
 -392 1089 -404 1072 -404 1055 c 0
 -404 1038 -392 1021 -370 1021 c 0
EndSplineSet
EndChar
StartChar: uni0E4B.left
Encoding: 158 63254 126
Width: 0
Flags: HW
HStem: 1074 75<-429 -335 -258 -164>
VStem: -336 78<1150 1229>
DStem: -335 1150 -258 1150 -429 1149 -164 1149 -335 1074 -258 1074 -333 995 -260 995
Fore
-164 1075 m 1
 -258 1074 l 1
 -260 995 l 1
 -333 995 l 1
 -335 1074 l 1
 -429 1075 l 1
 -429 1149 l 1
 -335 1150 l 1
 -336 1229 l 1
 -257 1229 l 1
 -258 1150 l 1
 -164 1149 l 1
 -164 1075 l 1
EndSplineSet
MinimumDistance: x8,9 x5,0 
EndChar
StartChar: uni0E4C.left
Encoding: 159 63255 127
Width: 0
Flags: HW
HStem: 926 42<-309 -301>
VStem: -398 46<1005 1016> -270 47<1005 1016>
Fore
-112 1201 m 17
 -138 1104 -249 1086 -273 1080 c 1
 -273 1077 l 1
 -249 1075 -223 1049 -223 1008 c 0
 -223 962 -258 926 -309 926 c 0
 -364 926 -398 968 -398 1014 c 0
 -398 1054 -369 1106 -278 1123 c 0
 -232 1132 -200 1166 -190 1223 c 1
 -112 1201 l 17
-309 968 m 0
 -283 968 -270 989 -270 1010 c 0
 -270 1030 -283 1051 -309 1051 c 0
 -338 1051 -352 1030 -352 1010 c 0
 -352 989 -338 968 -309 968 c 0
EndSplineSet
EndChar
StartChar: uni0E01
Encoding: 161 3585 129
Width: 602
Flags: W
HStem: 0 21G<83 187 410 511> 378 44<89 275> 544 54<257 288>
VStem: 83 104<0 326> 410 101<0 404>
Fore
511 0 m 1
 410 0 l 1
 410 399 l 2
 410 495 335 544 257 544 c 0
 186 544 112 503 89 422 c 1
 276 422 l 1
 276 378 l 1
 253 378 227 378 227 378 c 2
 200 378 187 355 187 326 c 2
 187 0 l 1
 83 0 l 1
 83 315 l 2
 83 336 97 373 117 378 c 1
 34 378 l 1
 39 522 166 598 288 598 c 0
 398 598 503 536 511 404 c 1
 511 0 l 1
EndSplineSet
EndChar
StartChar: uni0E02
Encoding: 162 3586 130
Width: 585
Flags: W
HStem: -8 46<359 361> 298 35<121 128> 432 35<121 128> 542 56<147 170>
VStem: 170 37<375 393> 224 103<103 457> 392 103<68 524>
Fore
495 118 m 2
 495 46 447 -8 359 -8 c 0
 280 -8 224 48 224 118 c 2
 224 472 l 2
 224 516 186 542 147 542 c 0
 104 542 61 512 61 441 c 0
 61 439 61 438 61 436 c 1
 77 461 100 467 121 467 c 0
 175 467 207 430 207 384 c 0
 207 339 177 298 121 298 c 0
 37 298 9 386 15 458 c 0
 22 535 75 598 170 598 c 0
 270 598 327 527 327 436 c 2
 327 69 l 2
 327 54 341 38 359 38 c 0
 376 38 392 54 392 68 c 2
 392 524 l 1
 444 587 l 2
 462 598 495 613 495 556 c 2
 495 118 l 2
121 333 m 0
 154 333 170 358 170 382 c 0
 170 407 154 432 121 432 c 0
 88 432 72 407 72 382 c 0
 72 358 88 333 121 333 c 0
EndSplineSet
EndChar
StartChar: uni0E03
Encoding: 163 3587 131
Width: 637
Flags: W
HStem: -8 46<401.278 416> 255 37<131 133> 390 37<131 133>
VStem: 15 67<341 427> 180 40<338 345> 273 105<103 473> 442 103<68 524>
DStem: 112 536 117 599 186 459 186 525
Fore
545 118 m 2
 545 46 498 -8 410 -8 c 0
 330 -8 273 51 273 118 c 2
 273 485 l 2
 273 505 267 521 250 525 c 1
 186 459 l 1
 112 536 l 1
 81 515 54 476 65 395 c 1
 81 421 112 427 131 427 c 0
 190 426 220 383 220 340 c 0
 220 297 190 255 131 255 c 0
 40 255 17 346 15 427 c 0
 14 478 35 559 117 599 c 1
 186 525 l 1
 257 599 l 1
 353 588 378 521 378 455 c 2
 378 69 l 2
 378 54 389 38 410 38 c 0
 430 38 442 54 442 68 c 2
 442 524 l 1
 495 587 l 2
 513 598 545 613 545 556 c 2
 545 118 l 2
131 292 m 0
 164 292 180 316 180 341 c 0
 180 366 164 390 131 390 c 0
 98 390 82 366 82 341 c 0
 82 316 98 292 131 292 c 0
EndSplineSet
EndChar
StartChar: uni0E04
Encoding: 164 3588 132
Width: 589
Flags: W
HStem: 0 21G<89 192 399 501> 249 44<260 266> 398 46<248 266> 547 52<232 266>
VStem: 25 49<401 417.932> 89 -15<233 401> 89 103<0 235> 312 48<335 353> 399 102<0 406>
Fore
501 0 m 1
 399 0 l 1
 399 389 l 2
 399 484 350 547 249 547 c 0
 141 547 74 482 74 401 c 0
 74 361 101 333 114 319 c 1
 117 319 l 1
 135 387 167 444 258 444 c 0
 326 444 360 394 360 345 c 0
 360 297 327 249 260 249 c 0
 235 249 212 258 200 267 c 1
 194 257 192 233 192 206 c 2
 192 0 l 1
 89 0 l 1
 89 233 l 2
 89 275 25 304 25 401 c 0
 25 525 123 599 247 599 c 0
 386 599 501 550 501 404 c 2
 501 0 l 1
260 293 m 0
 295 293 312 319 312 346 c 0
 312 372 295 398 260 398 c 0
 224 398 207 372 207 346 c 0
 207 319 224 293 260 293 c 0
EndSplineSet
EndChar
StartChar: uni0E05
Encoding: 165 3589 133
Width: 591
Flags: W
HStem: 0 21G<89 192 398 499> 218 45<255 266> 367 46<255 266>
VStem: 25 49<401 417.267> 89 -15<229 401> 89 103<0 193> 314 46<312 321> 398 101<0 415>
DStem: 169 535 174 598 257 459 257 521 341 596 346 535 257 521 257 459
Fore
499 0 m 1
 398 0 l 1
 398 387 l 2
 398 444 401 504 346 535 c 1
 257 459 l 1
 169 535 l 1
 135 527 74 475 74 401 c 0
 74 362 95 327 123 295 c 1
 126 295 l 1
 143 346 170 413 258 413 c 0
 326 413 360 363 360 314 c 0
 360 266 327 218 260 218 c 0
 235 218 215 223 200 237 c 1
 194 226 192 197 192 186 c 2
 192 0 l 1
 89 0 l 1
 89 229 l 2
 89 264 25 304 25 401 c 0
 25 525 112 576 174 598 c 1
 257 521 l 1
 341 596 l 1
 402 581 499 548 499 387 c 2
 499 0 l 1
261 263 m 0
 296 263 314 289 314 315 c 0
 314 341 296 367 261 367 c 0
 226 367 208 341 208 315 c 0
 208 289 226 263 261 263 c 0
EndSplineSet
EndChar
StartChar: uni0E06
Encoding: 166 3590 134
Width: 757
Flags: W
HStem: -8 66<261 283> 255 37<131 133> 390 37<131 133>
VStem: 15 67<341 427> 180 40<338 345> 273 106<80 163 222 473> 561 101<120 519>
DStem: 112 536 117 599 186 459 186 525
Fore
662 0 m 9
 576 0 l 17
 513 120 415 152 379 163 c 1
 381 77 376 -8 283 -8 c 0
 207 -8 171 47 171 104 c 0
 171 160 206 217 273 223 c 1
 273 485 l 2
 273 505 267 521 250 525 c 1
 186 459 l 1
 112 536 l 1
 81 515 54 476 65 395 c 1
 81 421 112 427 131 427 c 0
 190 426 220 383 220 340 c 0
 220 297 190 255 131 255 c 0
 40 255 17 346 15 427 c 0
 14 478 35 559 117 599 c 1
 186 525 l 1
 257 599 l 1
 353 588 378 521 378 455 c 2
 378 214 l 1
 409 206 496 183 561 120 c 1
 561 519 l 1
 613 582 l 2
 628 594 665 608 662 551 c 2
 662 551 662 57 662 0 c 9
273 80 m 2
 273 174 l 0
 238 170 220 136 220 106 c 0
 220 81 233 58 261 58 c 0
 269 58 273 66 273 80 c 2
131 292 m 0
 164 292 180 316 180 341 c 0
 180 366 164 390 131 390 c 0
 98 390 82 366 82 341 c 0
 82 316 98 292 131 292 c 0
EndSplineSet
EndChar
StartChar: uni0E07
Encoding: 167 3591 135
Width: 479
Flags: W
HStem: 0 21G<290 390> 399 46<242 264> 549 49<251 264>
VStem: 157 43<495 501> 286 104<117 480> 306 84<480 501>
Fore
390 0 m 1xf4
 290 0 l 1
 35 296 l 1
 37 353 l 1
 286 117 l 1
 286 403 l 1
 276 400 266 399 257 399 c 0
 191 399 157 449 157 499 c 0
 157 548 191 598 264 598 c 0
 399 598 390 494 390 480 c 2xf8
 390 0 l 1xf4
253 445 m 0
 288 445 306 471 306 497 c 0xf4
 306 523 288 549 253 549 c 0
 218 549 200 523 200 497 c 0
 200 471 218 445 253 445 c 0
EndSplineSet
EndChar
StartChar: uni0E08
Encoding: 168 3592 136
Width: 565
Flags: W
HStem: -5 50<338 344> 237 44<166 186> 386 46<175 186> 540 57<231 255>
VStem: 203 103<106 327> 230 76<325 343> 370 105<74 432>
Fore
475 121 m 2xf6
 475 49 425 -5 338 -5 c 0
 266 -5 203 54 203 121 c 2
 203 240 l 1
 195 238 187 237 178 237 c 0
 115 237 75 286 80 343 c 0
 84 393 123 432 184 432 c 0
 276 432 306 381 306 327 c 2xfa
 306 75 l 2
 306 60 318 45 338 45 c 0
 359 45 370 60 370 74 c 2
 370 415 l 2
 370 498 306 540 235 540 c 0
 169 540 95 503 61 430 c 1
 23 450 l 1
 71 553 165 597 255 597 c 0
 368 597 475 527 475 413 c 2
 475 121 l 2xf6
177 281 m 0
 212 281 230 307 230 334 c 0xf6
 230 360 212 386 177 386 c 0
 142 386 124 360 124 334 c 0
 124 307 142 281 177 281 c 0
EndSplineSet
EndChar
StartChar: uni0E09
Encoding: 169 3593 137
Width: 615
Flags: W
HStem: -8 43<465 470> 195 45<130 148> 344 46<130 148> 542 57<261 287>
VStem: 164 102<0 197> 190 76<284 302> 370 46<82 92> 419 103<183 432> 521 49<82 92>
Fore
522 226 m 2xf7
 522 194 507 184 507 184 c 1
 507 181 l 1
 548 169 570 130 570 90 c 0
 570 41 537 -8 467 -8 c 0
 408 -8 370 38 370 84 c 0
 370 96 373 109 378 120 c 1
 295 92 252 20 247 0 c 1
 164 0 l 1
 164 198 l 1xfa80
 157 197 147 195 138 195 c 0
 75 195 38 247 41 300 c 0
 45 350 83 390 144 390 c 0
 237 390 266 339 266 286 c 2xf6
 266 286 266 198 266 154 c 0xfa
 266 131 261 109 261 109 c 1
 280 131 329 175 419 183 c 1
 419 421 l 2
 419 499 347 542 266 542 c 0
 193 542 112 506 74 430 c 1
 35 450 l 1
 80 552 186 599 287 599 c 0
 407 599 522 532 522 412 c 2
 522 226 l 2xf7
137 240 m 0
 172 240 190 266 190 292 c 0xf6
 190 318 172 344 137 344 c 0
 102 344 84 318 84 292 c 0
 84 266 102 240 137 240 c 0
468 35 m 0
 504 35 521 61 521 88 c 0xf280
 521 114 504 140 468 140 c 0
 433 140 416 114 416 88 c 0
 416 61 433 35 468 35 c 0
EndSplineSet
EndChar
StartChar: uni0E0A
Encoding: 170 3594 138
Width: 583
Flags: W
HStem: 0 45<157 369> 298 35<121 128> 432 35<121 128> 541 57<146 170>
VStem: 170 37<380 393> 224 102<45 463.051>
Fore
553 594 m 17
 538 476 473 435 409 418 c 1
 551 412 573 0 369 0 c 2
 157 0 l 1
 157 45 l 1
 224 45 l 1
 224 470 l 2
 224 514 185 541 146 541 c 0
 104 541 61 512 61 441 c 0
 61 439 61 438 61 436 c 1
 77 461 100 467 121 467 c 0
 175 467 207 430 207 384 c 0
 207 339 177 298 121 298 c 0
 37 298 9 386 15 458 c 0
 22 535 75 598 170 598 c 0
 270 598 327 524 327 445 c 1
 402 449 438 531 439 594 c 1
 553 594 l 17
366 386 m 0
 355 392 336 393 326 393 c 1
 326 45 l 1
 355 45 l 2
 435 45 435 338 366 386 c 0
121 333 m 0
 154 333 170 358 170 382 c 0
 170 407 154 432 121 432 c 0
 88 432 72 407 72 382 c 0
 72 358 88 333 121 333 c 0
EndSplineSet
EndChar
StartChar: uni0E0B
Encoding: 171 3595 139
Width: 649
Flags: W
HStem: 0 45<210 421> 255 37<131 133> 390 37<131 133> 574 20G<492 605>
VStem: 15 67<341 427> 180 40<335 343> 273 105<45 393 45 465>
DStem: 112 536 117 599 186 459 186 525
Fore
605 594 m 17
 590 476 525 435 461 418 c 1
 604 412 625 0 421 0 c 2
 210 0 l 1
 210 45 l 1
 273 45 l 1
 273 485 l 2
 273 505 267 521 250 525 c 1
 186 459 l 1
 112 536 l 1
 81 515 54 476 65 395 c 1
 81 421 112 427 131 427 c 0
 190 426 220 383 220 340 c 0
 220 297 190 255 131 255 c 0
 40 255 15 346 15 427 c 0
 15 478 35 559 117 599 c 1
 186 525 l 1
 257 599 l 1
 353 588 378 521 378 455 c 2
 378 450 l 1
 458 453 490 531 492 594 c 1
 605 594 l 17
418 386 m 0
 407 392 389 393 378 393 c 1
 378 45 l 1
 407 45 l 2
 487 45 487 338 418 386 c 0
131 292 m 0
 164 292 180 316 180 341 c 0
 180 366 164 390 131 390 c 0
 98 390 82 366 82 341 c 0
 82 316 98 292 131 292 c 0
EndSplineSet
EndChar
StartChar: uni0E0C
Encoding: 172 3596 140
Width: 800
Flags: W
HStem: -6 43<184 198> 141 42<186 198> 378 44<89 275> 543 56<257 287>
VStem: 83 55<89 121> 83 103<183 326> 243 46<85 93> 321 48<85 93> 412 99<71 135 189 402> 619 103<132 519>
Fore
412 71 m 2xf3c0
 412 144 l 0
 385 142 369 116 369 91 c 0
 369 78 372 67 381 58 c 0
 390 49 412 51 412 71 c 2xf3c0
186 183 m 1xf7c0
 189 183 193 183 196 183 c 0
 257 183 289 135 289 87 c 0
 289 40 259 -6 194 -6 c 0
 100 -6 83 77 83 121 c 2xfbc0
 83 315 l 2
 83 336 97 373 117 378 c 1
 34 378 l 1
 39 522 165 599 287 599 c 0
 397 599 504 535 511 402 c 1
 511 184 l 1
 530 180 587 167 619 132 c 1
 621 519 l 1
 671 582 l 2
 690 593 722 608 722 551 c 2
 722 551 722 57 722 0 c 1
 639 0 l 1
 634 78 556 129 511 135 c 1
 511 52 504 -8 418 -8 c 0
 352 -8 321 40 321 89 c 0
 321 138 351 187 410 190 c 1
 410 404 l 2
 410 496 335 543 257 543 c 0
 186 543 112 504 89 422 c 1
 276 422 l 1
 276 378 l 1
 253 378 226 378 226 378 c 2
 198 378 186 355 186 326 c 2
 186 326 186 229 186 183 c 1xf7c0
190 37 m 0
 226 37 243 63 243 89 c 0
 243 115 226 141 190 141 c 0
 155 141 138 115 138 89 c 0
 138 63 155 37 190 37 c 0
EndSplineSet
EndChar
StartChar: uni0E0D
Encoding: 173 3597 141
Width: 800
Flags: W
HStem: -62 31<465 482> -8 49<542 551> 143 44<209 219> 378 44<88 117 88 275> 545 53<242 271>
VStem: 83 76<90 124> 83 103<124 326> 265 45<87 102> 379 103<115 401> 382 45<-116 -104> 518 30<-116 -104> 604 103<100 519> 611 96<-121 -43>
Fore
707 117 m 2xf930
 707 61 639 -8 542 -8 c 0
 449 -8 379 54 379 124 c 2
 379 401 l 2
 379 496 312 545 242 545 c 0
 178 545 112 505 88 422 c 1
 276 422 l 1
 276 378 l 1
 253 378 226 378 226 378 c 2
 198 378 186 355 186 326 c 2
 186 183 l 1xfbb0
 197 186 208 187 217 187 c 0
 278 187 310 140 310 93 c 0
 310 46 279 -1 212 -5 c 0
 106 -9 83 80 83 124 c 2xfd20
 83 315 l 2
 83 336 97 373 117 378 c 1
 34 378 l 1
 39 522 157 598 271 598 c 0
 375 598 475 534 482 401 c 1
 482 101 l 2
 482 68 507 41 542 41 c 0
 579 41 604 66 604 100 c 1xfbb0
 605 519 l 1
 656 582 l 2
 674 593 707 608 707 551 c 2xf928
 707 117 l 2xf930
707 -109 m 2xf968
 707 -283 382 -303 382 -112 c 0
 382 -83 404 -31 470 -31 c 0
 524 -31 548 -69 548 -111 c 0
 548 -147 516 -183 475 -177 c 1
 475 -181 l 1
 530 -220 611 -183 611 -114 c 2
 611 -43 l 1
 707 -43 l 1
 707 -109 l 2xf968
518 -106 m 0
 518 -77 495 -62 472 -62 c 0
 450 -62 427 -77 427 -106 c 0
 427 -136 450 -152 472 -152 c 0
 495 -152 518 -136 518 -106 c 0
212 38 m 0
 248 38 265 64 265 90 c 0
 265 117 248 143 212 143 c 0
 176 143 159 117 159 90 c 0xfd20
 159 64 176 38 212 38 c 0
EndSplineSet
Substitution: 0 65534 'nds0' uni0E0D.descless
Substitution: 0 65534 'ndsc' uni0E0D.descless
EndChar
StartChar: uni0E0E
Encoding: 174 3598 142
Width: 612
Flags: W
HStem: -223 51<163 181> -90 52<179 199> -5 43<100 104> 378 44<103 129 103 290> 544 55<271 301>
VStem: 4 43<88 96> 74 52<-137 -124> 95 102<186 318> 152 45<79.1459 95> 419 103<-102 407>
AnchorPoint: "BelowBase" 519.168 -241.152 basechar 0
Fore
522 -241 m 1xfd40
 438 -241 l 0
 410 -183 356 -146 301 -118 c 1
 282 -190 224 -223 171 -223 c 0
 120 -223 74 -191 74 -132 c 0xfe40
 74 -78 121 -38 195 -38 c 0
 218 -38 244 -42 272 -51 c 1
 292 -5 313 6 327 15 c 1
 376 -9 l 1
 352 -22 333 -41 321 -71 c 1
 352 -80 398 -104 422 -127 c 1
 422 -127 419 -101 419 -77 c 2
 419 413 l 2
 419 499 347 544 271 544 c 0
 199 544 124 504 103 422 c 1
 290 422 l 1
 290 378 l 1
 238 378 l 2
 210 378 197 346 197 318 c 2xfd40
 197 92 l 2xfcc0
 197 29 154 -5 100 -5 c 0
 36 -5 4 43 4 92 c 0
 4 138 34 185 95 187 c 1
 95 304 l 2
 95 329 109 373 129 378 c 1
 48 378 l 1
 53 522 180 599 301 599 c 0
 410 599 514 537 522 407 c 1
 522 -241 l 1xfd40
253 -100 m 1
 230 -93 208 -90 189 -90 c 0
 152 -90 126 -103 126 -135 c 0
 126 -158 148 -172 173 -172 c 0
 210 -172 241 -146 253 -100 c 1
100 38 m 0
 135 38 152 64 152 90 c 0xfcc0
 152 117 135 143 100 143 c 0
 64 143 47 117 47 90 c 0
 47 64 64 38 100 38 c 0
EndSplineSet
EndChar
StartChar: uni0E0F
Encoding: 175 3599 143
Width: 612
Flags: W
HStem: -240 51<66 79> -158 58<351 357> -99 48<66 85> -8 45<100 104> 378 44<103 129 103 290> 544 55<271 301>
VStem: -28 50<-157 -143> 3 44<79 97> 94 103<186 318> 152 45<79 97> 419 103<-123 407>
AnchorPoint: "BelowBase" 519.168 -241.152 basechar 0
Fore
522 -240 m 1xfda0
 439 -240 l 0
 424 -188 390 -158 355 -158 c 0
 323 -158 290 -183 270 -240 c 1
 227 -240 l 1
 220 -207 197 -172 177 -154 c 1
 161 -214 115 -240 70 -240 c 0
 20 -240 -28 -207 -28 -151 c 0
 -28 -85 19 -51 75 -51 c 0
 101 -51 129 -58 155 -74 c 1
 167 -45 195 -20 235 -5 c 1
 269 -43 l 1
 240 -51 207 -75 197 -104 c 1xfe60
 218 -115 240 -147 250 -169 c 1
 270 -126 310 -100 353 -100 c 0
 375 -100 398 -107 419 -123 c 1
 419 413 l 2
 419 499 347 544 271 544 c 0
 199 544 124 504 103 422 c 1
 290 422 l 1
 290 378 l 1
 238 378 l 2
 210 378 197 346 197 318 c 2xfca0
 197 92 l 2xfc60
 197 29 154 -8 100 -8 c 0
 36 -8 3 42 3 91 c 0
 3 138 33 185 94 187 c 1
 94 304 l 2
 94 329 109 373 129 378 c 1
 48 378 l 1
 53 522 180 599 301 599 c 0
 410 599 514 537 522 407 c 1
 522 -240 l 1xfda0
135 -120 m 1
 114 -105 94 -99 77 -99 c 0
 44 -99 22 -122 22 -147 c 0
 22 -172 43 -189 68 -189 c 0
 94 -189 125 -169 135 -120 c 1
100 37 m 0
 135 37 152 63 152 89 c 0
 152 115 135 141 100 141 c 0
 64 141 47 115 47 89 c 0xfd60
 47 63 64 37 100 37 c 0
EndSplineSet
EndChar
StartChar: uni0E10
Encoding: 176 3600 144
Width: 508
Flags: HW
HStem: -289 48<220 355> -243 42<74.6481 93> -74 40<298 321> -5 50<293 300> 166 44<140 150> 315 43<140 150> 489 76<348 365> 489 109<189 365>
VStem: 166 101<94 258> 172 49<-289 -201> 192 75<254 271> 221 41<-120 -112> 319 102<74 337> 354 65<-131 -120>
DStem: 17 445 86 478 298 370 358 407
Fore
442 558 m 0
 422 505 387 489 348 489 c 0
 286 489 212 528 156 528 c 0
 125 528 100 516 86 478 c 1
 358 407 l 2
 373 402 421 395 421 335 c 2
 421 106 l 2
 421 34 379 -5 293 -5 c 0
 221 -5 166 38 166 106 c 2
 166 169 l 1
 157 167 149 166 140 166 c 0
 78 166 41 215 43 269 c 0
 48 319 83 358 140 358 c 0
 229 359 267 313 267 258 c 2x3e88
 267 75 l 2
 267 61 275 45 293 45 c 0
 312 45 319 61 319 74 c 2
 319 333 l 2
 319 358 310 367 298 370 c 2
 17 445 l 1
 32 493 71 601 189 598 c 0x3d28
 235 598 310 565 365 565 c 0
 387 565 406 570 418 585 c 0
 430 601 459 599 442 558 c 0
419 -218 m 2
 419 -249 406 -289 355 -289 c 2
 172 -289 l 1xbc44
 172 -226 l 2
 172 -203 174 -178 164 -166 c 1
 163 -210 134 -243 84 -243 c 0x7c44
 46 -243 18 -223 8 -183 c 0
 -6 -132 41 -63 120 -84 c 1
 121 -71 123 -58 132 -46 c 1
 180 -52 l 1
 167 -66 163 -88 164 -106 c 1
 226 -134 221 -217 221 -241 c 1
 313 -241 l 2xbc44
 330 -241 330 -214 329 -197 c 1
 321 -200 l 2
 315 -203 306 -203 293 -201 c 0
 245 -197 221 -158 221 -120 c 0
 221 -77 250 -34 307 -34 c 0
 376 -34 412 -68 419 -129 c 1
 419 -218 l 2
310 -166 m 0
 340 -166 354 -143 354 -120 c 0
 354 -97 340 -74 310 -74 c 0
 278 -74 262 -97 262 -120 c 0x3c14
 262 -143 278 -166 310 -166 c 0
121 -124 m 1
 94 -117 48 -124 48 -163 c 0
 48 -183 60 -201 84 -201 c 0x7c
 115 -201 131 -160 121 -124 c 1
140 210 m 0
 175 210 192 236 192 262 c 0x3c20
 192 289 175 315 140 315 c 0
 104 315 87 289 87 262 c 0
 87 236 104 210 140 210 c 0
EndSplineSet
KernsSLIF: 212 31 1 0 215 31 1 0 214 31 1 0 213 31 1 0
Substitution: 0 65534 'nds0' uni0E10.descless
Substitution: 0 65534 'ndsc' uni0E10.descless
EndChar
StartChar: uni0E11
Encoding: 177 3601 145
Width: 780
Flags: W
HStem: 0 21G<275 358 584 687> 255 37<131 133> 390 37<131 133> 508 88<555 589>
VStem: 15 67<341 427> 180 40<335 343> 275 101<0 476> 584 103<0 482>
DStem: 112 536 117 599 186 459 186 525 468 490 516 470 393 269 358 0
Fore
687 0 m 1
 584 0 l 1
 584 473 l 2
 584 494 571 508 555 508 c 0
 541 508 525 497 516 470 c 2
 358 0 l 1
 275 0 l 1
 275 485 l 2
 275 505 267 521 250 525 c 1
 186 459 l 1
 112 536 l 1
 81 515 54 476 65 395 c 1
 81 421 112 427 131 427 c 0
 190 426 220 383 220 340 c 0
 220 297 190 255 131 255 c 0
 40 255 17 346 15 427 c 0
 14 478 35 559 117 599 c 1
 186 525 l 1
 257 599 l 1
 353 588 376 521 376 455 c 2
 376 273 l 2
 376 246 372 226 370 206 c 1
 375 204 l 1
 375 204 386 247 393 269 c 2
 468 490 l 2
 493 563 543 596 589 596 c 0
 641 596 687 554 687 482 c 2
 687 0 l 1
131 292 m 0
 164 292 180 316 180 341 c 0
 180 366 164 390 131 390 c 0
 98 390 82 366 82 341 c 0
 82 316 98 292 131 292 c 0
EndSplineSet
EndChar
StartChar: uni0E12
Encoding: 178 3602 146
Width: 798
Flags: W
HStem: 0 21G<89 192 627 710> 235 40<248 257> 379 43<248 266>
VStem: 25 50<384 409> 89 -14<109 402> 161 43<325 332> 309 44<87 92> 398 101<68 135 189 422> 607 103<132 520>
DStem: 169 535 174 598 257 459 257 521 343 598 346 535 257 521 257 459
Fore
710 0 m 9
 627 0 l 17
 622 78 544 129 499 135 c 1
 499 52 492 -8 406 -8 c 0
 340 -8 309 40 309 89 c 0
 309 138 339 187 398 190 c 1
 398 401 l 2
 398 482 384 511 346 535 c 1
 257 459 l 1
 169 535 l 1
 134 524 75 476 75 402 c 0
 75 300 158 227 172 164 c 1
 203 214 261 235 250 235 c 0
 192 235 161 281 161 330 c 0
 161 344 170 422 255 422 c 0
 316 422 357 382 357 327 c 0
 357 307 351 286 339 263 c 0
 301 189 201 146 192 65 c 1
 192 0 l 1
 89 0 l 1
 89 109 l 2
 89 158 25 261 25 384 c 0
 25 535 124 581 174 598 c 1
 257 521 l 1
 343 598 l 1
 407 581 499 539 499 396 c 2
 499 184 l 1
 518 180 574 167 607 132 c 1
 608 519 l 1
 659 582 l 2
 677 593 710 608 710 551 c 2
 710 551 710 57 710 0 c 9
398 68 m 2
 398 146 l 0
 370 144 353 116 353 90 c 0
 353 77 357 64 366 55 c 0
 376 45 398 46 398 68 c 2
257 275 m 0
 292 275 310 301 310 327 c 0
 310 353 292 379 257 379 c 0
 222 379 204 353 204 327 c 0
 204 301 222 275 257 275 c 0
EndSplineSet
EndChar
StartChar: uni0E13
Encoding: 179 3603 147
Width: 800
Flags: W
HStem: -9 43<644.783 659> 143 44<209 219> 378 44<88 117 88 275> 545 53<242 271>
VStem: 83 76<90 124> 83 103<124 326> 265 45<80 94> 379 103<0 401> 604 103<183 522> 706 45<80 94>
Fore
707 203 m 2xf780
 707 194 700 175 694 169 c 1
 731 156 751 120 751 84 c 0
 751 38 720 -9 656 -9 c 0
 607 -9 573 17 564 61 c 0
 559 83 561 111 578 131 c 1
 513 101 485 23 479 0 c 1
 379 0 l 1
 379 401 l 2
 379 496 312 545 242 545 c 0
 178 545 112 505 88 422 c 1
 276 422 l 1
 276 378 l 1
 253 378 226 378 226 378 c 2
 198 378 186 355 186 326 c 2
 186 183 l 1xf740
 197 186 208 187 217 187 c 0
 278 187 310 140 310 92 c 0
 310 45 279 -2 212 -6 c 0
 106 -11 83 80 83 124 c 2xfb
 83 315 l 2
 83 336 97 373 117 378 c 1
 34 378 l 1
 39 522 157 598 271 598 c 0
 375 598 475 534 482 401 c 1
 482 126 l 1
 504 147 545 184 604 183 c 1
 605 522 l 1
 656 585 l 2
 674 596 707 611 707 554 c 2
 707 203 l 2xf780
656 34 m 0
 689 34 706 58 706 83 c 0
 706 108 689 132 656 132 c 0
 623 132 606 108 606 83 c 0
 606 58 623 34 656 34 c 0
212 38 m 0
 248 38 265 64 265 90 c 0
 265 117 248 143 212 143 c 0
 176 143 159 117 159 90 c 0xfb
 159 64 176 38 212 38 c 0
EndSplineSet
KernsSLIF: 212 -15 1 0 215 -15 1 0 214 -15 1 0 213 -15 1 0
EndChar
StartChar: uni0E14
Encoding: 180 3604 148
Width: 608
Flags: W
HStem: 0 21G<101 203 418 519> 263 40<261 272> 407 43<261 280> 548 50<278 295>
VStem: 38 51<384 409> 101 -12<94 399> 175 44<351 360> 325 46<351 360> 418 101<0 417>
Fore
519 0 m 1
 418 0 l 1
 418 412 l 2
 418 470 381 548 278 548 c 0
 157 548 89 487 89 399 c 0
 89 323 157 240 183 163 c 1
 214 212 276 263 266 263 c 0
 207 263 175 309 175 358 c 0
 175 372 186 450 270 450 c 0
 330 450 371 410 371 356 c 0
 371 335 365 313 353 290 c 0
 315 217 206 115 203 65 c 1
 203 0 l 1
 101 0 l 1
 101 94 l 2
 101 177 38 270 38 384 c 0
 38 574 201 598 278 598 c 0
 399 598 519 545 519 412 c 2
 519 0 l 1
272 303 m 0
 308 303 325 329 325 355 c 0
 325 381 308 407 272 407 c 0
 236 407 219 381 219 355 c 0
 219 329 236 303 272 303 c 0
EndSplineSet
EndChar
StartChar: uni0E15
Encoding: 181 3605 149
Width: 611
Flags: W
HStem: 0 21G<103 206 418 519> 235 40<261 270> 379 43<261 279>
VStem: 38 51<384 404> 175 43<319 337> 323 48<327 337> 418 101<0 422>
DStem: 183 535 187 598 270 459 270 521 362 598 366 535 270 521 270 459
Fore
519 0 m 1
 418 0 l 1
 418 401 l 2
 418 482 404 511 366 535 c 1
 270 459 l 1
 183 535 l 1
 147 524 89 476 89 402 c 0
 89 315 174 224 187 161 c 1
 218 210 275 235 264 235 c 0
 206 235 175 281 175 330 c 0
 175 344 184 422 269 422 c 0
 330 422 371 382 371 327 c 0
 371 307 365 286 353 263 c 0
 315 189 215 146 206 65 c 1
 206 0 l 1
 103 0 l 1
 103 94 l 2
 103 192 38 255 38 384 c 0
 38 535 138 581 187 598 c 1
 270 521 l 1
 362 598 l 1
 427 581 519 539 519 396 c 2
 519 0 l 1
270 275 m 0
 306 275 323 301 323 327 c 0
 323 353 306 379 270 379 c 0
 235 379 218 353 218 327 c 0
 218 301 235 275 270 275 c 0
EndSplineSet
EndChar
StartChar: uni0E16
Encoding: 182 3606 150
Width: 602
Flags: W
HStem: 0 21G<410 511> 141 45<204 213> 378 44<89 275> 543 56<257 287>
VStem: 83 70<89 121> 83 103<121 326> 258 44<78.1459 92> 410 101<0 402>
Fore
511 0 m 1xf7
 410 0 l 1
 410 404 l 2
 410 496 335 543 257 543 c 0
 186 543 112 504 89 422 c 1
 276 422 l 1
 276 378 l 1
 253 378 226 378 226 378 c 2
 198 378 186 355 186 326 c 2
 186 326 186 229 186 183 c 1xf7
 195 185 203 186 211 186 c 0
 270 186 302 137 302 89 c 0
 302 43 273 -2 209 -6 c 0
 103 -12 83 77 83 121 c 2xfb
 83 315 l 2
 83 336 97 373 117 378 c 1
 34 378 l 1
 39 522 165 599 287 599 c 0
 397 599 504 535 511 402 c 1
 511 0 l 1xf7
206 37 m 0
 241 37 258 63 258 89 c 0
 258 115 241 141 206 141 c 0
 170 141 153 115 153 89 c 0xfb
 153 63 170 37 206 37 c 0
EndSplineSet
EndChar
StartChar: uni0E17
Encoding: 183 3607 151
Width: 655
Flags: W
HStem: 0 21G<154 237 462 565> 393 48<116 133> 545 51<116 133>
VStem: 21 49<482 496> 154 101<0 399> 176 79<479 497> 462 103<0 482>
DStem: 347 490 395 470 272 269 237 0
Fore
565 0 m 1xfa
 462 0 l 1
 462 473 l 2
 462 494 449 508 433 508 c 0
 420 508 404 497 395 470 c 2
 237 0 l 1
 154 0 l 1
 154 399 l 1xfa
 143 395 135 393 124 393 c 0
 57 393 21 444 21 494 c 0
 21 545 57 596 131 596 c 0
 264 596 255 492 255 479 c 2xf6
 255 273 l 2
 255 246 250 226 249 206 c 1
 253 204 l 1
 253 204 264 247 272 269 c 2
 347 490 l 2
 372 565 422 598 467 598 c 0
 518 598 565 555 565 482 c 2
 565 0 l 1xfa
123 441 m 0
 158 441 176 467 176 493 c 0xf6
 176 519 158 545 123 545 c 0
 88 545 70 519 70 493 c 0
 70 467 88 441 123 441 c 0
EndSplineSet
EndChar
StartChar: uni0E18
Encoding: 184 3608 152
Width: 508
Flags: W
HStem: 0 45<40 306> 489 76<346 363> 489 109<187 363>
VStem: 84 103<45 364> 318 101<99 337>
DStem: 15 445 84 478 296 370 356 407
Fore
441 558 m 0xd8
 420 505 386 489 346 489 c 0xd8
 285 489 210 528 154 528 c 0
 123 528 98 516 84 478 c 1
 356 407 l 2
 372 402 419 395 419 335 c 2
 419 120 l 2
 419 38 378 0 306 0 c 2
 40 0 l 1
 40 45 l 1
 84 45 l 1
 84 364 l 1
 187 364 l 1
 187 45 l 1
 250 45 l 2
 295 45 318 61 318 101 c 2
 318 333 l 2
 318 358 309 367 296 370 c 2
 15 445 l 1
 31 493 69 601 187 598 c 0xb8
 233 598 308 565 363 565 c 0
 385 565 404 570 416 585 c 0
 429 601 458 599 441 558 c 0xd8
EndSplineSet
EndChar
StartChar: uni0E19
Encoding: 185 3609 153
Width: 663
Flags: W
HStem: -8 46<504 512> 137 49<456 504> 393 49<116 131> 547 51<116 131>
VStem: 21 47<494 505> 154 101<0 395> 174 81<481 505> 405 49<84 94> 456 103<186 525> 554 50<84 94>
Fore
559 214 m 2xfd80
 559 206 551 189 544 183 c 1
 584 168 604 130 604 92 c 0
 604 42 571 -8 504 -8 c 0
 439 -8 405 40 405 86 c 0
 405 102 409 118 418 132 c 1
 307 124 246 34 235 0 c 1
 154 0 l 1
 154 396 l 1xfd40
 143 393 134 393 123 393 c 0
 120 393 l 0
 55 393 21 443 21 494 c 0
 21 546 56 598 129 598 c 0
 264 598 255 493 255 481 c 0xfb
 255 479 255 264 255 147 c 0
 255 135 253 123 252 111 c 1
 293 152 344 184 456 186 c 1
 456 525 l 1
 510 590 l 2
 524 599 559 616 559 558 c 2
 559 214 l 2xfd80
504 38 m 0
 537 38 554 63 554 88 c 0
 554 112 537 137 504 137 c 0
 471 137 454 112 454 88 c 0
 454 63 471 38 504 38 c 0
121 442 m 0
 156 442 174 468 174 494 c 0xfb
 174 521 156 547 121 547 c 0
 86 547 68 521 68 494 c 0
 68 468 86 442 121 442 c 0
EndSplineSet
KernsSLIF: 212 -46 1 0 215 -46 1 0 214 -46 1 0 213 -46 1 0
EndChar
StartChar: uni0E1A
Encoding: 186 3610 154
Width: 649
Flags: W
HStem: 0 45<98 441> 393 49<116 133> 547 51<116 133>
VStem: 21 47<483.404 497> 154 101<45 396> 174 81<479 496> 455 103<106 556>
Fore
558 120 m 2xfa
 561 74 531 0 441 0 c 2
 98 0 l 1
 98 45 l 1
 154 45 l 1
 154 396 l 1xfa
 143 395 132 393 124 393 c 0
 56 393 21 443 21 494 c 0
 21 546 57 598 131 598 c 0
 264 598 255 492 255 479 c 0xf6
 255 478 255 117 255 45 c 1
 399 45 l 2
 427 45 458 63 455 106 c 2
 456 524 l 1
 508 587 l 2
 527 599 561 613 558 556 c 2
 558 120 l 2xfa
121 442 m 0
 156 442 174 468 174 494 c 0xf6
 174 521 156 547 121 547 c 0
 86 547 68 521 68 494 c 0
 68 468 86 442 121 442 c 0
EndSplineSet
EndChar
StartChar: uni0E1B
Encoding: 187 3611 155
Width: 665
Flags: W
HStem: 0 45<98 456> 393 49<116 133> 547 51<116 133>
VStem: 21 47<483.404 497> 154 101<45 396> 174 81<479 496> 470 103<106 935>
AnchorPoint: "AboveBase" 407.04 629.76 basechar 0
Fore
573 120 m 2xfa
 576 74 547 0 456 0 c 2
 98 0 l 1
 98 45 l 1
 154 45 l 1
 154 396 l 1xfa
 143 395 132 393 124 393 c 0
 56 393 21 443 21 494 c 0
 21 546 57 598 131 598 c 0
 264 598 255 492 255 479 c 0xf6
 255 478 255 117 255 45 c 1
 415 45 l 2
 442 45 473 63 470 106 c 2
 470 903 l 1
 524 966 l 2
 542 978 576 992 573 935 c 2
 573 120 l 2xfa
121 442 m 0
 156 442 174 468 174 494 c 0xf6
 174 521 156 547 121 547 c 0
 86 547 68 521 68 494 c 0
 68 468 86 442 121 442 c 0
EndSplineSet
EndChar
StartChar: uni0E1C
Encoding: 188 3612 156
Width: 649
Flags: W
HStem: 0 21G<80 184 455 558> 397 48<195 210> 550 48<207 211>
VStem: 80 74<478 498> 80 101<0 399> 260 51<494 500> 455 103<0 554>
DStem: 324 287 324 382 444 66 436 187 324 382 324 287 203 183 194 66 324 287 324 382 444 66 436 187 324 382 324 287 203 183 194 66 324 287 324 382 444 66 436 187 324 382 324 287 203 183 194 66 324 287 324 382 444 66 436 187 324 382 324 287 203 183 194 66 324 287 324 382 444 66 436 187 324 382 324 287 203 183 194 66 324 287 324 382 444 66 436 187 324 382 324 287 203 183 194 66 324 287 324 382 444 66 436 187 324 382 324 287 203 183 194 66 324 287 324 382 444 66 436 187 324 382 324 287 203 183 194 66 324 287 324 382 444 66 436 187 324 382 324 287 203 183 194 66 324 287 324 382 444 66 436 187 324 382 324 287 203 183 194 66 324 287 324 382 444 66 436 187 324 382 324 287 203 183 194 66 324 287 324 382 444 66 436 187 324 382 324 287 203 183 194 66
Fore
558 0 m 1xee
 455 0 l 1
 455 34 l 2
 455 52 445 60 444 66 c 1
 324 287 l 1
 194 66 l 1
 192 60 184 54 184 34 c 2
 184 0 l 1
 80 0 l 1xee
 80 478 l 2xf6
 80 539 108 598 207 598 c 0
 276 598 311 547 311 496 c 0
 311 446 277 397 208 397 c 0
 199 397 190 397 181 399 c 1
 181 187 l 2
 181 163 175 129 175 129 c 1
 175 129 195 169 203 183 c 0
 306 350 324 382 324 382 c 1
 324 382 343 350 436 187 c 0
 445 172 461 132 461 132 c 1
 461 132 455 166 455 190 c 2
 456 522 l 1
 508 585 l 2
 527 598 561 611 558 554 c 2
 558 0 l 1xee
207 445 m 0
 242 445 260 471 260 498 c 0
 260 524 242 550 207 550 c 0
 172 550 154 524 154 498 c 0xf6
 154 471 172 445 207 445 c 0
EndSplineSet
EndChar
StartChar: uni0E1D
Encoding: 189 3613 157
Width: 662
Flags: W
HStem: 0 21G<80 184 470 573> 397 48<195 210> 550 48<207 211>
VStem: 80 74<478 498> 80 101<0 399> 260 51<494 500> 470 103<0 926>
DStem: 332 295 332 390 459 66 452 187 332 390 332 295 203 183 194 66 332 295 332 390 459 66 452 187 332 390 332 295 203 183 194 66 332 295 332 390 459 66 452 187 332 390 332 295 203 183 194 66 332 295 332 390 459 66 452 187 332 390 332 295 203 183 194 66 332 295 332 390 459 66 452 187 332 390 332 295 203 183 194 66 332 295 332 390 459 66 452 187 332 390 332 295 203 183 194 66 332 295 332 390 459 66 452 187 332 390 332 295 203 183 194 66 332 295 332 390 459 66 452 187 332 390 332 295 203 183 194 66 332 295 332 390 459 66 452 187 332 390 332 295 203 183 194 66 332 295 332 390 459 66 452 187 332 390 332 295 203 183 194 66 332 295 332 390 459 66 452 187 332 390 332 295 203 183 194 66 332 295 332 390 459 66 452 187 332 390 332 295 203 183 194 66 332 295 332 390 459 66 452 187 332 390 332 295 203 183 194 66
AnchorPoint: "AboveBase" 403.968 629.76 basechar 0
Fore
573 0 m 1xee
 470 0 l 1
 470 34 l 2
 470 52 461 60 459 66 c 2
 332 295 l 1
 194 66 l 2
 192 60 184 54 184 34 c 2
 184 0 l 1
 80 0 l 1xee
 80 478 l 2xf6
 80 539 108 598 207 598 c 0
 276 598 311 547 311 496 c 0
 311 446 277 397 208 397 c 0
 199 397 190 397 181 399 c 1
 181 187 l 2
 181 163 175 129 175 129 c 1
 175 129 195 169 203 183 c 2
 332 390 l 1
 452 187 l 2
 461 172 476 132 476 132 c 1
 476 132 470 166 470 190 c 2
 470 894 l 1
 524 957 l 2
 542 969 576 983 573 926 c 2
 573 0 l 1xee
207 445 m 0
 242 445 260 471 260 498 c 0
 260 524 242 550 207 550 c 0
 172 550 154 524 154 498 c 0xf6
 154 471 172 445 207 445 c 0
EndSplineSet
EndChar
StartChar: uni0E1E
Encoding: 190 3614 158
Width: 723
Flags: W
HStem: 0 21G<155 250 535 631> 392 49<117 134> 545 49<117 134>
VStem: 22 48<490 497> 155 102<0 394> 176 81<479 497> 530 101<239 561>
DStem: 387 588 393 450 273 249 250 0 393 450 399 588 535 0 513 249
Fore
631 0 m 1xfa
 535 0 l 1
 393 450 l 1
 250 0 l 1
 155 0 l 1
 155 395 l 1xfa
 144 393 134 392 126 392 c 0
 58 392 22 442 22 492 c 0
 22 543 58 594 132 594 c 0
 266 594 257 492 257 479 c 0xf6
 257 478 257 253 257 253 c 2
 257 226 247 160 247 160 c 1
 253 160 l 1
 253 160 264 217 273 249 c 2
 387 588 l 1
 399 588 l 1
 513 249 l 2
 522 217 533 160 533 160 c 1
 539 160 l 1
 539 160 530 226 530 253 c 2
 530 528 l 1
 584 591 l 2
 602 604 634 619 631 561 c 2
 631 0 l 1xfa
123 441 m 0
 158 441 176 467 176 493 c 0xf6
 176 519 158 545 123 545 c 0
 88 545 70 519 70 493 c 0
 70 467 88 441 123 441 c 0
EndSplineSet
EndChar
StartChar: uni0E1F
Encoding: 191 3615 159
Width: 723
Flags: HW
HStem: 0 21G<155 250 535 631> 392 49<117 134> 545 49<117 134>
VStem: 22 48<490 497> 155 102<0 394> 176 81<479 497> 530 101<239 926>
DStem: 387 588 393 450 273 249 250 0 393 450 399 588 535 0 513 249
AnchorPoint: "AboveBase" 465.408 629.76 basechar 0
Fore
631 0 m 1xfa
 535 0 l 1
 393 450 l 1
 250 0 l 1
 155 0 l 1
 155 395 l 1xfa
 144 393 134 392 126 392 c 0
 58 392 22 442 22 492 c 0
 22 543 58 594 132 594 c 0
 266 594 257 492 257 479 c 2xf6
 257 253 l 2
 257 226 247 160 247 160 c 1
 253 160 l 1
 253 160 264 217 273 249 c 2
 387 588 l 1
 399 588 l 1
 513 249 l 2
 522 217 533 160 533 160 c 1
 539 160 l 1
 539 160 530 226 530 253 c 2
 530 894 l 1
 584 957 l 2
 602 969 634 985 631 926 c 2
 631 0 l 1xfa
123 441 m 0
 158 441 176 467 176 493 c 0xf6
 176 519 158 545 123 545 c 0
 88 545 70 519 70 493 c 0
 70 467 88 441 123 441 c 0
EndSplineSet
EndChar
StartChar: uni0E20
Encoding: 192 3616 160
Width: 617
Flags: W
HStem: -8 45<106 110> 378 44<109 135 109 296> 544 55<277 307>
VStem: 9 44<87 95> 100 103<186 318> 159 44<87 94> 425 103<0 407>
Fore
528 0 m 1xfa
 425 0 l 1
 425 413 l 2
 425 499 353 544 277 544 c 0
 205 544 130 504 109 422 c 1
 296 422 l 1
 296 378 l 1
 244 378 l 2
 217 378 203 346 203 318 c 2xfa
 203 92 l 2xf6
 203 29 160 -8 106 -8 c 0
 42 -8 9 42 9 91 c 0
 9 138 39 185 100 187 c 1
 100 304 l 2
 100 329 115 373 135 378 c 1
 54 378 l 1
 59 522 186 599 307 599 c 0
 416 599 520 537 528 407 c 1
 528 0 l 1xfa
106 37 m 0
 142 37 159 63 159 89 c 0xf6
 159 115 142 141 106 141 c 0
 70 141 53 115 53 89 c 0
 53 63 70 37 106 37 c 0
EndSplineSet
EndChar
StartChar: uni0E21
Encoding: 193 3617 161
Width: 652
Flags: W
HStem: 0 21G<470 564> 392 49<116 133> 545 49<116 133>
VStem: 21 47<493 495> 43 46<103 121> 154 101<75 177 233 395> 174 81<479 495> 462 102<114 556>
Fore
564 0 m 25xf3
 470 0 l 17
 429 80 373 141 255 177 c 1
 255 138 257 104 253 78 c 0
 244 22 220 -8 160 -8 c 0
 80 -8 43 49 43 108 c 0
 43 167 81 228 154 233 c 1
 154 395 l 1xed
 143 393 132 392 124 392 c 0
 57 392 21 442 21 493 c 0
 21 543 57 594 131 594 c 0
 264 594 255 492 255 479 c 0
 255 478 255 275 255 224 c 1
 307 215 402 175 462 114 c 1
 462 524 l 1
 516 588 l 2
 528 599 567 616 564 556 c 2
 564 0 l 25xf3
154 75 m 2
 154 187 l 0
 118 186 89 149 89 112 c 0
 89 92 98 72 118 58 c 0
 129 52 154 52 154 75 c 2
121 441 m 0
 156 441 174 467 174 493 c 0
 174 519 156 545 121 545 c 0
 86 545 68 519 68 493 c 0xf3
 68 467 86 441 121 441 c 0
EndSplineSet
EndChar
StartChar: uni0E22
Encoding: 194 3618 162
Width: 603
Flags: W
HStem: -8 46<276 313> 283 44<238 278> 398 47<201 219> 550 48<207 219>
VStem: 74 80<452 498> 74 100<405 424> 260 51<487 505> 410 101<126 525>
Fore
511 174 m 2xf7
 511 65 433 -8 292 -8 c 0
 161 -8 74 49 74 163 c 2
 74 187 l 2
 74 257 114 289 141 306 c 1
 117 318 74 349 74 424 c 2xf7
 74 452 l 2xfb
 74 521 98 598 207 598 c 0
 276 598 311 547 311 496 c 0
 311 447 278 398 212 398 c 0
 200 398 184 399 174 407 c 1
 174 358 197 327 238 327 c 2
 278 327 l 1
 278 283 l 1
 238 283 l 2
 203 283 177 258 177 203 c 2
 177 124 l 2
 177 66 233 38 293 38 c 0
 361 38 410 71 410 126 c 2
 410 126 410 499 410 525 c 1
 461 590 l 2
 475 602 515 616 511 556 c 2
 511 174 l 2xf7
207 445 m 0
 242 445 260 471 260 498 c 0
 260 524 242 550 207 550 c 0
 172 550 154 524 154 498 c 0xfb
 154 471 172 445 207 445 c 0
EndSplineSet
EndChar
StartChar: uni0E23
Encoding: 195 3619 163
Width: 448
Flags: W
HStem: -3 49<222 234> 151 49<222 234> 530 68<159 183>
VStem: 123 50<92 110> 255 101<195 352> 278 78<92 114>
DStem: 15 445 83 478 232 387 298 422
Fore
413 559 m 0xf8
 384 468 289 499 270 505 c 0
 222 521 186 530 159 530 c 0
 121 530 99 513 83 478 c 1
 298 422 l 2
 333 413 356 393 356 350 c 2xf8
 356 114 l 2xf4
 356 100 367 -3 230 -3 c 0
 157 -3 123 47 123 97 c 0
 123 148 159 200 225 200 c 0
 226 200 l 0
 235 200 246 198 255 195 c 1
 255 350 l 2
 255 369 252 382 232 387 c 2
 15 445 l 1
 32 499 74 598 183 598 c 0
 237 598 307 566 350 566 c 0
 364 566 376 570 382 579 c 0
 399 604 424 599 413 559 c 0xf8
226 46 m 0
 261 46 278 72 278 98 c 0xf4
 278 125 261 151 226 151 c 0
 190 151 173 125 173 98 c 0
 173 72 190 46 226 46 c 0
EndSplineSet
KernsSLIF: 212 31 1 0 215 31 1 0 214 31 1 0 213 31 1 0
EndChar
StartChar: uni0E24
Encoding: 196 3620 164
Width: 599
Flags: W
HStem: 141 45<199 210> 378 44<86 272> 543 56<253 284>
VStem: 80 68<89 121> 80 103<121 326> 254 45<78.404 92> 406 101<-203 402>
Fore
508 402 m 0xee
 507 -169 l 1
 453 -233 l 2
 435 -246 406 -260 406 -203 c 2
 406 404 l 2
 406 496 331 543 253 543 c 0
 183 543 109 504 86 422 c 1
 273 422 l 1
 273 378 l 1
 250 378 223 378 223 378 c 2
 195 378 183 355 183 326 c 2
 183 326 183 229 183 183 c 1xee
 192 185 200 186 208 186 c 0
 266 186 299 137 299 89 c 0
 299 43 270 -2 206 -6 c 0
 100 -12 80 77 80 121 c 2xf6
 80 315 l 2
 80 336 94 373 114 378 c 1
 31 378 l 1
 36 522 162 599 284 599 c 0
 394 599 501 535 508 402 c 0xee
201 37 m 0
 236 37 254 63 254 89 c 0
 254 115 236 141 201 141 c 0
 166 141 148 115 148 89 c 0xf6
 148 63 166 37 201 37 c 0
EndSplineSet
EndChar
StartChar: uni0E25
Encoding: 197 3621 165
Width: 579
Flags: W
HStem: -5 46<198.031 200.874> 146 45<196 208> 376 54<257 280> 540 58<249 269>
VStem: 72 73<94 120> 72 103<120 283> 251 49<90 97> 387 101<0 432>
Fore
488 0 m 1xf7
 387 0 l 1
 387 283 l 2
 387 329 338 376 278 376 c 0
 214 376 175 329 175 276 c 2
 175 187 l 1xf7
 186 189 196 191 206 191 c 0
 267 191 300 143 300 95 c 0
 300 47 268 -1 201 -5 c 0
 104 -8 72 74 72 120 c 2xfb
 72 266 l 2
 72 350 146 430 257 430 c 0
 319 430 362 410 389 379 c 1
 389 393 389 422 389 422 c 2
 389 498 325 540 251 540 c 0
 184 540 109 505 68 430 c 1
 31 450 l 1
 86 554 179 598 267 598 c 0
 382 598 488 523 488 413 c 2
 488 0 l 1xf7
198 41 m 0
 234 41 251 67 251 94 c 0
 251 120 234 146 198 146 c 0
 162 146 145 120 145 94 c 0xfb
 145 67 162 41 198 41 c 0
EndSplineSet
EndChar
StartChar: uni0E26
Encoding: 198 3622 166
Width: 612
Flags: W
HStem: -8 45<100 104> 378 44<103 129 103 290> 544 55<271 301>
VStem: 3 44<81 93> 94 103<186 318> 152 45<81 93> 419 102<-203 407>
Fore
522 407 m 0xfa
 521 -169 l 1
 467 -233 l 2
 449 -246 419 -260 419 -203 c 2
 419 413 l 2
 419 499 347 544 271 544 c 0
 199 544 124 504 103 422 c 1
 290 422 l 1
 290 378 l 1
 238 378 l 2
 210 378 197 346 197 318 c 2xfa
 197 83 l 2xf6
 197 20 154 -8 100 -8 c 0
 36 -8 3 42 3 91 c 0
 3 138 33 185 94 187 c 1
 94 304 l 2
 94 329 109 373 129 378 c 1
 48 378 l 1
 53 522 180 599 301 599 c 0
 410 599 514 537 522 407 c 0xfa
100 37 m 0
 135 37 152 63 152 89 c 0xf6
 152 115 135 141 100 141 c 0
 64 141 47 115 47 89 c 0
 47 63 64 37 100 37 c 0
EndSplineSet
EndChar
StartChar: uni0E27
Encoding: 199 3623 167
Width: 502
Flags: W
HStem: -5 45<274 283> 144 46<274 283> 542 55<194 213>
VStem: 181 47<88 94> 310 103<186 441> 334 79<92 131>
Fore
413 131 m 2xf4
 413 46 379 -5 276 -5 c 0
 224 -5 183 37 181 89 c 0
 180 143 215 189 276 190 c 0
 292 190 301 189 310 186 c 1
 310 441 l 2
 310 505 257 542 196 542 c 0
 139 542 76 509 45 436 c 1
 5 458 l 1
 42 554 128 597 211 597 c 0
 314 597 413 532 413 421 c 2xf8
 413 131 l 2xf4
281 40 m 0
 316 40 334 66 334 92 c 0xf4
 334 118 316 144 281 144 c 0
 246 144 228 118 228 92 c 0
 228 66 246 40 281 40 c 0
EndSplineSet
EndChar
StartChar: uni0E28
Encoding: 200 3624 168
Width: 589
Flags: W
HStem: 0 21G<89 192 399 501> 249 44<245 259> 398 46<245 259> 545 54<232 266>
VStem: 25 49<401 417.903> 89 -15<233 401> 89 103<0 235> 399 102<0 396>
Fore
338 401 m 1
 352 409 379 436 390 452 c 1
 370 510 321 545 249 545 c 0
 141 545 74 482 74 401 c 0
 74 361 101 333 114 319 c 1
 117 319 l 1
 134 390 164 444 255 444 c 0
 295 444 319 427 338 401 c 1
399 386 m 17
 382 375 362 361 349 356 c 1
 356 307 326 249 257 249 c 0
 232 249 212 257 200 266 c 1
 194 255 192 233 192 206 c 2
 192 0 l 1
 89 0 l 1
 89 233 l 2
 89 275 25 304 25 401 c 0
 25 525 123 599 247 599 c 0
 323 599 398 581 444 539 c 1
 453 554 467 601 465 627 c 1
 567 627 l 1
 558 561 515 498 488 468 c 1
 496 450 501 427 501 396 c 2
 501 0 l 1
 399 0 l 1
 399 386 l 17
252 293 m 0
 288 293 305 319 305 346 c 0
 305 372 288 398 252 398 c 0
 216 398 199 372 199 346 c 0
 199 319 216 293 252 293 c 0
EndSplineSet
EndChar
StartChar: uni0E29
Encoding: 201 3625 169
Width: 662
Flags: W
HStem: 0 45<98 456> 361 38<275 293> 396 49<115 133> 549 49<115 133>
VStem: 20 48<494 499> 154 80<45 321> 154 101<45 217 45 483> 174 81<483 499> 470 103<108 556>
Fore
573 120 m 2xda80
 576 74 547 0 456 0 c 2
 98 0 l 1
 98 45 l 1
 154 45 l 1xdc80
 154 399 l 1xda80
 143 397 132 396 124 396 c 0xba80
 55 396 20 446 20 496 c 0
 20 547 56 598 131 598 c 0
 264 598 255 496 255 483 c 2
 255 395 l 1
 272 401 276 399 287 399 c 0
 386 399 404 266 326 238 c 1
 402 215 476 296 472 361 c 1
 472 524 l 1
 524 587 l 2
 542 599 576 613 573 556 c 2
 573 120 l 2xda80
470 108 m 0
 470 243 l 1
 402 161 301 174 255 217 c 1
 255 217 255 75 255 45 c 1x9a80
 415 45 l 2
 442 45 470 65 470 108 c 0
284 263 m 0
 317 263 334 288 334 312 c 0
 334 336 317 361 284 361 c 0
 251 361 234 336 234 312 c 0xdc80
 234 288 251 263 284 263 c 0
121 445 m 0xb980
 156 445 174 471 174 497 c 0
 174 523 156 549 121 549 c 0
 86 549 68 523 68 497 c 0
 68 471 86 445 121 445 c 0xb980
EndSplineSet
EndChar
StartChar: uni0E2A
Encoding: 202 3626 170
Width: 577
Flags: W
HStem: -5 46<198.031 200.874> 146 45<196 208> 335 47<275 288> 540 57<249 275>
VStem: 72 73<94 120> 72 103<120 240> 251 49<90 97> 387 101<0 413>
Fore
567 627 m 17xf7
 562 584 521 528 470 490 c 1
 478 478 488 452 488 413 c 2
 488 0 l 1
 387 0 l 1
 387 226 l 2
 387 283 336 335 276 335 c 0
 212 335 175 290 175 238 c 2
 175 187 l 1xf7
 186 189 196 191 206 191 c 0
 267 191 300 143 300 95 c 0
 300 47 268 -1 201 -5 c 0
 104 -8 72 74 72 120 c 2xfb
 72 227 l 2
 72 324 155 372 190 381 c 1
 238 402 319 449 369 488 c 1
 344 523 301 540 255 540 c 0
 185 540 107 501 68 430 c 1
 31 450 l 1
 84 551 177 597 268 597 c 0
 325 597 381 579 425 544 c 1
 447 570 461 599 465 627 c 1
 567 627 l 17xf7
390 326 m 1
 390 415 l 2
 390 422 390 430 387 436 c 1
 359 419 312 396 275 382 c 1
 313 382 370 366 390 326 c 1
198 41 m 0
 234 41 251 67 251 94 c 0
 251 120 234 146 198 146 c 0
 162 146 145 120 145 94 c 0xfb
 145 67 162 41 198 41 c 0
EndSplineSet
EndChar
StartChar: uni0E2B
Encoding: 203 3627 171
Width: 651
Flags: W
HStem: 0 21G<144 247 459 562> 397 48<108 123> 549 49<108 123>
VStem: 13 46<486.146 504> 144 103<0 113 0 483> 165 81<483 505> 386 48<500 504> 459 103<0 385> 540 47<495 504>
Fore
562 0 m 1xf3
 459 0 l 1
 459 374 l 2
 459 388 458 396 453 402 c 1
 344 330 266 175 258 157 c 0
 250 134 247 114 247 97 c 2
 247 0 l 1
 144 0 l 1
 144 402 l 1xfb
 135 399 124 397 114 397 c 0
 48 397 13 448 13 498 c 0
 13 548 48 598 123 598 c 0
 255 598 246 496 246 483 c 2
 246 247 l 1
 304 338 386 413 415 433 c 1
 395 453 386 476 386 500 c 0
 386 550 426 598 487 598 c 0
 555 598 587 550 587 502 c 0xf680
 587 470 573 438 545 422 c 1
 554 411 562 399 562 376 c 2
 562 0 l 1xf3
112 445 m 0
 148 445 165 471 165 497 c 0xf6
 165 523 148 549 112 549 c 0
 76 549 59 523 59 497 c 0
 59 471 76 445 112 445 c 0
487 448 m 0
 522 448 540 474 540 500 c 0xf280
 540 526 522 552 487 552 c 0
 452 552 434 526 434 500 c 0
 434 474 452 448 487 448 c 0
EndSplineSet
EndChar
StartChar: uni0E2C
Encoding: 204 3628 172
Width: 712
Flags: W
HStem: 0 21G<146 241 525 624> 396 49<108 125> 549 49<108 125> 594 45<528 532>
VStem: 13 48<486.146 500> 146 101<0 398> 166 81<483 501> 434 44<543 552> 522 102<239 482>
DStem: 370 558 375 404 266 249 241 0 375 404 379 558 525 0 501 249
Fore
753 644 m 17xdd80
 748 542 654 492 624 482 c 1
 624 0 l 1
 525 0 l 1
 375 404 l 1
 241 0 l 1
 146 0 l 1
 146 399 l 1xdd80
 135 397 124 396 117 396 c 0
 49 396 13 446 13 497 c 0
 13 547 49 598 123 598 c 0
 257 598 247 496 247 483 c 2xeb80
 247 253 l 2
 247 226 238 160 238 160 c 1
 244 160 l 1
 244 160 257 217 266 249 c 2
 370 558 l 1
 379 558 l 1
 501 249 l 2
 510 217 524 160 524 160 c 1
 530 160 l 1
 530 160 522 226 522 253 c 2
 522 455 l 1
 462 459 434 504 434 548 c 0
 434 593 466 639 528 639 c 0
 584 639 621 607 624 545 c 1
 642 558 667 598 662 644 c 1
 753 644 l 17xdd80
528 499 m 0
 561 499 578 523 578 546 c 0
 578 570 561 594 528 594 c 0
 495 594 478 570 478 546 c 0
 478 523 495 499 528 499 c 0
114 445 m 0
 149 445 166 471 166 497 c 0
 166 523 149 549 114 549 c 0xeb80
 78 549 61 523 61 497 c 0
 61 471 78 445 114 445 c 0
EndSplineSet
EndChar
StartChar: uni0E2D
Encoding: 205 3629 173
Width: 566
Flags: W
HStem: -8 46<275 288> 246 49<190 207> 540 58<233 254>
VStem: 71 76<315 347> 71 103<151 250> 252 49<343 349> 373 105<124 432>
Fore
478 158 m 2xee
 478 22 329 -8 275 -8 c 0
 203 -8 71 18 71 160 c 2xee
 71 315 l 2xf6
 71 359 101 449 200 445 c 0
 269 443 301 394 301 346 c 0
 301 296 268 246 205 246 c 0
 195 246 185 247 174 250 c 1
 174 124 l 2
 175 67 225 38 275 38 c 0
 324 38 373 66 373 124 c 2
 373 422 l 2
 373 498 309 540 235 540 c 0
 168 540 93 505 52 430 c 1
 15 450 l 1
 70 554 165 598 254 598 c 0
 370 598 478 523 478 413 c 2
 478 158 l 2xee
200 295 m 0
 235 295 252 321 252 347 c 0
 252 373 235 399 200 399 c 0
 164 399 147 373 147 347 c 0xf6
 147 321 164 295 200 295 c 0
EndSplineSet
EndChar
StartChar: uni0E2E
Encoding: 206 3630 174
Width: 566
Flags: HW
HStem: -8 46<275 282> 177 46<198 205> 327 45<188.262 199.875> 543 51<229 257>
VStem: 41 68<464 484> 71 76<241 275> 71 103<151 180> 252 48<264.146 281> 373 105<124 424>
Fore
498 602 m 17
 487 564 470 533 450 508 c 1
 467 484 478 452 478 413 c 2
 478 158 l 2
 478 22 329 -8 275 -8 c 0
 203 -8 71 18 71 160 c 2xf380
 71 241 l 2xf580
 71 286 101 375 200 372 c 0
 268 370 300 323 300 275 c 0
 300 226 266 177 203 177 c 0
 194 177 184 178 174 180 c 1
 174 124 l 2xf380
 175 67 225 38 275 38 c 0
 324 38 373 66 373 124 c 2
 373 124 373 410 373 422 c 0
 373 430 373 438 372 445 c 1
 318 419 261 413 226 410 c 0
 112 401 41 419 41 464 c 0
 41 543 148 594 257 594 c 0
 304 594 350 585 389 564 c 1
 395 576 398 590 401 602 c 1
 498 602 l 17
346 501 m 1
 317 531 272 543 229 543 c 0
 167 543 109 518 109 484 c 0xf980
 109 467 141 450 226 455 c 0
 278 458 316 475 346 501 c 1
200 223 m 0
 235 223 252 249 252 275 c 0
 252 301 235 327 200 327 c 0
 164 327 147 301 147 275 c 0xf580
 147 249 164 223 200 223 c 0
EndSplineSet
EndChar
StartChar: uni0E2F
Encoding: 207 3631 175
Width: 539
Flags: W
HStem: 0 21G<335 438> 391 48<185 210> 391 207<120 185> 553 45<112 130>
VStem: 17 49<501 503> 171 50<501 503> 335 103<0 594>
Fore
438 0 m 1xce
 335 0 l 1
 335 432 l 1
 290 402 234 391 185 391 c 0xce
 131 391 84 403 63 418 c 0
 31 440 17 471 17 501 c 0
 17 551 57 598 120 598 c 0xae
 180 598 221 551 221 501 c 0
 221 480 214 458 197 439 c 1
 323 439 350 525 350 594 c 1
 438 594 l 1
 438 0 l 1xce
118 449 m 0
 154 449 171 475 171 501 c 0
 171 527 154 553 118 553 c 0x9e
 83 553 66 527 66 501 c 0
 66 475 83 449 118 449 c 0
EndSplineSet
EndChar
StartChar: uni0E30
Encoding: 208 3632 176
Width: 460
Flags: W
HStem: -6 54<190 215.887> 152 45<115.822 132> 396 54<190 214.368> 554 45<115.822 132>
VStem: 31 47<95 109 497 511> 177 46<95 108 497 510>
Fore
409 594 m 17
 392 444 293 396 190 396 c 0
 68 396 31 456 31 499 c 0
 31 544 52 599 129 599 c 0
 192 599 223 558 223 508 c 0
 223 492 220 464 197 450 c 1
 301 452 326 521 321 594 c 1
 409 594 l 17
127 456 m 0
 160 456 177 480 177 505 c 0
 177 530 160 554 127 554 c 0
 94 554 78 530 78 505 c 0
 78 480 94 456 127 456 c 0
409 192 m 17
 392 41 293 -6 190 -6 c 0
 68 -6 31 54 31 97 c 0
 31 141 52 197 129 197 c 0
 192 197 223 155 223 106 c 0
 223 89 220 61 197 48 c 1
 301 49 326 118 321 192 c 1
 409 192 l 17
127 54 m 0
 160 54 177 78 177 103 c 0
 177 128 160 152 127 152 c 0
 94 152 78 128 78 103 c 0
 78 78 94 54 127 54 c 0
EndSplineSet
EndChar
StartChar: uni0E31
Encoding: 209 3633 177
Width: 0
Flags: W
HStem: 676 49<-169 -135> 880 49<-281 -263>
VStem: -376 53<819 837> -218 52<819 837>
AnchorPoint: "AboveMark" -93.6963 983.04 basemark 0
AnchorPoint: "AboveBase" -93.6963 629.76 mark 0
Fore
157 923 m 17
 114 740 -22 674 -151 676 c 0
 -269 676 -376 736 -376 823 c 0
 -376 882 -332 929 -272 929 c 0
 -209 929 -166 885 -166 826 c 0
 -166 786 -187 753 -229 736 c 1
 -203 729 -176 725 -149 725 c 0
 -49 725 42 783 55 923 c 1
 157 923 l 17
-270 776 m 0
 -235 776 -218 802 -218 828 c 0
 -218 854 -235 880 -270 880 c 0
 -306 880 -323 854 -323 828 c 0
 -323 802 -306 776 -270 776 c 0
EndSplineSet
EndChar
StartChar: uni0E32
Encoding: 210 3634 178
Width: 427
Flags: W
HStem: 0 21G<235 338> 541 57<142 182>
VStem: 235 103<0 465>
Fore
338 0 m 1
 235 0 l 1
 235 460 l 2
 235 513 192 541 142 541 c 0
 100 541 53 522 22 483 c 1
 -6 509 l 1
 35 566 112 598 182 598 c 0
 264 598 338 554 338 453 c 2
 338 0 l 1
EndSplineSet
EndChar
StartChar: uni0E33
Encoding: 211 3635 179
Width: 427
Flags: W
HStem: 0 21G<235 338> 541 57<142 182> 673 54<-143.738 -127> 831 57<-143.738 -127>
VStem: -240 55<768.146 785> -79 54<768.146 785> 235 103<0 465>
Fore
338 0 m 1
 235 0 l 1
 235 460 l 2
 235 513 192 541 142 541 c 0
 100 541 53 522 22 483 c 1
 -6 509 l 1
 35 566 112 598 182 598 c 0
 264 598 338 554 338 453 c 2
 338 0 l 1
-132 673 m 0
 -204 673 -240 727 -240 780 c 0
 -240 834 -204 888 -132 888 c 0
 -60 888 -25 834 -25 780 c 0
 -25 727 -60 673 -132 673 c 0
-132 727 m 0
 -96 727 -79 753 -79 779 c 0
 -79 805 -96 831 -132 831 c 0
 -168 831 -185 805 -185 779 c 0
 -185 753 -168 727 -132 727 c 0
EndSplineSet
MultipleSubs: 0 1 'ccmp' uni0E4D uni0E32
EndChar
StartChar: uni0E34
Encoding: 212 3636 180
Width: 0
Flags: W
HStem: 726 45<-442 -392> 839 55<-330 -312>
AnchorPoint: "AboveMark" -142.848 983.04 basemark 0
AnchorPoint: "AboveBase" -93.6963 629.76 mark 0
Fore
-72 636 m 1
 -207 694 -316 726 -427 726 c 0
 -469 726 -510 722 -553 713 c 1
 -522 833 -419 894 -317 894 c 0
 -194 894 -72 808 -72 636 c 1
-132 708 m 1
 -161 788 -243 839 -325 839 c 0
 -378 839 -431 818 -468 768 c 1
 -449 770 -430 771 -409 771 c 0
 -320 771 -216 750 -132 708 c 1
EndSplineSet
EndChar
StartChar: uni0E35
Encoding: 213 3637 181
Width: 0
Flags: W
HStem: 726 45<-442 -392> 839 55<-330 -312>
AnchorPoint: "AboveMark" -142.848 983.04 basemark 0
AnchorPoint: "AboveBase" -93.6963 629.76 mark 0
Fore
-72 636 m 1
 -207 694 -316 726 -427 726 c 0
 -469 726 -510 722 -553 713 c 1
 -523 833 -420 894 -317 894 c 0
 -274 894 -231 883 -194 862 c 1
 -194 948 l 1
 -94 948 l 1
 -94 750 l 1
 -80 717 -72 679 -72 636 c 1
-132 708 m 1
 -161 788 -243 839 -325 839 c 0
 -378 839 -431 818 -468 768 c 1
 -449 770 -430 771 -409 771 c 0
 -320 771 -216 750 -132 708 c 1
EndSplineSet
EndChar
StartChar: uni0E36
Encoding: 214 3638 182
Width: 0
Flags: W
HStem: 726 45<-442 -392> 839 55<-330 -312> 906 46<-143 -132>
VStem: -94 49<855 861>
AnchorPoint: "AboveMark" -142.848 983.04 basemark 0
AnchorPoint: "AboveBase" -93.6963 629.76 mark 0
Fore
-72 636 m 1
 -207 694 -316 726 -427 726 c 0
 -469 726 -510 722 -553 713 c 1
 -523 834 -419 894 -317 894 c 0
 -291 894 -265 890 -240 882 c 1
 -235 911 -207 952 -143 952 c 0
 -77 952 -45 906 -45 859 c 0
 -45 823 -64 786 -103 770 c 1
 -83 733 -72 688 -72 636 c 1
-132 708 m 1
 -161 788 -243 839 -325 839 c 0
 -378 839 -431 818 -468 768 c 1
 -449 770 -430 771 -409 771 c 0
 -320 771 -216 750 -132 708 c 1
-143 808 m 0
 -110 808 -94 832 -94 857 c 0
 -94 882 -110 906 -143 906 c 0
 -176 906 -192 882 -192 857 c 0
 -192 832 -176 808 -143 808 c 0
EndSplineSet
EndChar
StartChar: uni0E37
Encoding: 215 3639 183
Width: 0
Flags: W
HStem: 726 45<-442 -392> 839 55<-330 -313> 839 110<-325 -309>
VStem: -175 78<849 949>
AnchorPoint: "AboveMark" -204.288 983.04 basemark 0
AnchorPoint: "AboveBase" -93.6963 629.76 mark 0
Fore
-72 636 m 1xb0
 -207 694 -316 726 -427 726 c 0
 -469 726 -510 722 -553 713 c 1
 -522 834 -416 895 -313 894 c 1xd0
 -312 949 l 1
 -240 949 l 1
 -238 879 l 1
 -214 872 -194 860 -175 849 c 1
 -174 949 l 1
 -97 949 l 1
 -95 754 l 1
 -81 720 -72 680 -72 636 c 1xb0
-132 708 m 1
 -161 788 -243 839 -325 839 c 0
 -378 839 -431 818 -468 768 c 1
 -449 770 -430 771 -409 771 c 0
 -320 771 -216 750 -132 708 c 1
EndSplineSet
EndChar
StartChar: uni0E38
Encoding: 216 3640 184
Width: 0
Flags: W
HStem: -227 41<-220 -207>
VStem: -304 46<-150 -130> -192 97<-307 -149> -169 74<-151 -141>
AnchorPoint: "BelowBase" -93.6963 -52.2236 mark 0
Fore
-95 -307 m 1xe0
 -192 -307 l 1
 -192 -226 l 1
 -198 -227 -209 -227 -218 -227 c 0
 -275 -226 -304 -185 -304 -142 c 0
 -304 -100 -275 -56 -218 -52 c 1
 -147 -49 -100 -83 -95 -149 c 1
 -95 -307 l 1xe0
-169 -141 m 0xd0
 -169 -117 -189 -97 -212 -97 c 0
 -243 -97 -258 -115 -258 -141 c 0
 -258 -164 -238 -186 -212 -186 c 0
 -184 -186 -169 -164 -169 -141 c 0xd0
EndSplineSet
EndChar
StartChar: uni0E39
Encoding: 217 3641 185
Width: 0
Flags: W
HStem: -319 39<-217 -198> -214 37<-338 -330> -88 37<-338 -330>
VStem: -417 38<-132 -126> -312 75<-240 -151> -192 98<-257 -57>
AnchorPoint: "BelowBase" -93.6963 -52.2236 mark 0
Fore
-94 -212 m 2
 -94 -270 -129 -319 -198 -319 c 0
 -267 -319 -312 -281 -312 -226 c 2
 -312 -210 l 1
 -316 -212 -323 -214 -332 -214 c 0
 -388 -213 -417 -172 -417 -132 c 0
 -417 -91 -388 -51 -332 -51 c 0
 -263 -51 -235 -92 -237 -151 c 1
 -237 -257 l 1
 -238 -269 -227 -280 -215 -280 c 0
 -201 -280 -192 -272 -192 -257 c 2
 -192 -57 l 1
 -94 -57 l 1
 -94 -212 l 2
-290 -132 m 0
 -290 -108 -310 -88 -333 -88 c 0
 -362 -88 -379 -106 -379 -132 c 0
 -379 -155 -359 -177 -333 -177 c 0
 -306 -177 -290 -155 -290 -132 c 0
EndSplineSet
EndChar
StartChar: uni0E3A
Encoding: 218 3642 186
Width: 0
Flags: W
AnchorPoint: "BelowBase" -93.6963 -43.0078 mark 0
Fore
-141 -174 m 0
 -187 -174 -210 -141 -210 -108 c 0
 -210 -76 -187 -43 -141 -43 c 0
 -96 -43 -74 -76 -74 -108 c 0
 -74 -141 -96 -174 -141 -174 c 0
EndSplineSet
EndChar
StartChar: zerospace
Encoding: 220 8203 187
Width: 814
Flags: W
HStem: 0 61<100 629>
VStem: 100 67<-187 -42> 680 68<-187 61>
Fore
748 -187 m 1
 680 -187 l 1
 680 -54 l 2
 680 -17 660 0 617 0 c 2
 220 0 l 2
 184 0 167 -15 167 -49 c 2
 167 -187 l 1
 100 -187 l 1
 100 61 l 1
 748 61 l 1
 748 -187 l 1
EndSplineSet
EndChar
StartChar: dottedcircle
Encoding: 221 9676 188
Width: 649
Flags: W
HStem: -14 77<344 351> 23 77<192 201> 34 77<476 478> 118 77<89 99> 131 75<561 563> 270 77<52 60> 399 77<561 563> 406 76<97 99> 501 77<201 207> 535 76<343 351>
VStem: 14 77<307 309> 52 77<155 163> 60 75<445 451> 152 77<53.8714 72> 163 77<538 547> 306 76<23 25 574 580> 425 77<530 539> 438 77<72 74> 522 76<167 169 439 447> 559 77<301 309>
Fore
86 462 m 6
190 554 m 6
180 80 m 6
78 172 m 6
464 89 m 6
548 184 m 6
548 456 m 6
452 547 m 6
585 318 m 6
41 324 m 6
332 591 m 6
97 482 m 4,11,12
 120 482 135 465 135 445 c 4,13,14
 135 424 120 406 97 406 c 4,15,16
 77 406 60 424 60 445 c 4,17,18
 60 465 77 482 97 482 c 4,11,12
97 445 m 4,19,-1
 97 445 l 4,20,-1
 97 445 l 4,21,-1
 97 445 l 4,22,-1
 97 445 l 4,19,-1
201 578 m 4,23,24
 223 578 240 561 240 538 c 4,25,26
 240 518 223 501 201 501 c 4,27,28
 181 501 163 518 163 538 c 4,29,30
 163 561 181 578 201 578 c 4,23,24
201 538 m 4,31,-1
 201 538 l 4,32,-1
 201 538 l 4,33,-1
 201 538 l 4,34,-1
 201 538 l 4,31,-1
192 100 m 4,35,36
 212 100 229 83 229 63 c 4,37,38
 229 41 212 23 192 23 c 4,39,40
 169 23 152 41 152 63 c 4,41,42
 152 83 169 100 192 100 c 4,35,36
192 63 m 4,43,-1
 192 63 l 4,44,-1
 192 63 l 4,45,-1
 192 63 l 4,46,-1
 192 63 l 4,43,-1
89 195 m 4,47,48
 112 195 129 177 129 155 c 4,49,50
 129 135 112 118 89 118 c 4,51,52
 69 118 52 135 52 155 c 4,53,54
 52 177 69 195 89 195 c 4,47,48
89 155 m 4,55,-1
 89 155 l 4,56,-1
 89 155 l 4,57,-1
 89 155 l 4,58,-1
 89 155 l 4,55,-1
476 111 m 4,59,60
 498 111 515 94 515 72 c 4,61,62
 515 52 498 34 476 34 c 4,63,64
 455 34 438 52 438 72 c 4,65,66
 438 94 455 111 476 111 c 4,59,60
476 72 m 4,67,-1
 476 72 l 4,68,-1
 476 72 l 4,69,-1
 476 72 l 4,70,-1
 476 72 l 4,67,-1
561 206 m 4,71,72
 581 206 598 189 598 167 c 4,73,74
 598 146 581 131 561 131 c 4,75,76
 538 131 522 146 522 167 c 4,77,78
 522 189 538 206 561 206 c 4,71,72
561 167 m 4,79,-1
 561 167 l 4,80,-1
 561 167 l 4,81,-1
 561 167 l 4,82,-1
 561 167 l 4,79,-1
561 476 m 4,83,84
 581 476 598 459 598 439 c 4,85,86
 598 418 581 399 561 399 c 4,87,88
 538 399 522 418 522 439 c 4,89,90
 522 459 538 476 561 476 c 4,83,84
561 439 m 4,91,-1
 561 439 l 4,92,-1
 561 439 l 4,93,-1
 561 439 l 4,94,-1
 561 439 l 4,91,-1
462 570 m 4,95,96
 485 570 502 551 502 530 c 4,97,98
 502 510 485 493 462 493 c 4,99,100
 442 493 425 510 425 530 c 4,101,102
 425 551 442 570 462 570 c 4,95,96
462 530 m 4,103,-1
 462 530 l 4,104,-1
 462 530 l 4,105,-1
 462 530 l 4,106,-1
 462 530 l 4,103,-1
596 339 m 4,107,108
 617 339 636 321 636 301 c 4,109,110
 636 280 617 263 596 263 c 4,111,112
 576 263 559 280 559 301 c 4,113,114
 559 321 576 339 596 339 c 4,107,108
596 301 m 4,115,-1
 596 301 l 4,116,-1
 596 301 l 4,117,-1
 596 301 l 4,118,-1
 596 301 l 4,115,-1
52 347 m 4,119,120
 74 347 91 329 91 307 c 4,121,122
 91 287 74 270 52 270 c 4,123,124
 32 270 14 287 14 307 c 4,125,126
 14 329 32 347 52 347 c 4,119,120
52 307 m 4,127,-1
 52 307 l 4,128,-1
 52 307 l 4,129,-1
 52 307 l 4,130,-1
 52 307 l 4,127,-1
344 63 m 4,131,132
 366 63 382 46 382 23 c 4,133,134
 382 3 366 -14 344 -14 c 4,135,136
 324 -14 306 3 306 23 c 4,137,138
 306 46 324 63 344 63 c 4,131,132
344 23 m 4,139,-1
 344 23 l 4,140,-1
 344 23 l 4,141,-1
 344 23 l 4,142,-1
 344 23 l 4,139,-1
343 611 m 4,143,144
 364 611 381 594 381 574 c 4,145,146
 381 551 364 535 343 535 c 4,147,148
 321 535 304 551 304 574 c 4,149,150
 304 594 321 611 343 611 c 4,143,144
343 574 m 4,151,-1
 343 574 l 4,152,-1
 343 574 l 4,153,-1
 343 574 l 4,154,-1
 343 574 l 4,151,-1
EndSplineSet
EndChar
StartChar: uni0E3F
Encoding: 223 3647 189
Width: 752
Flags: HW
HStem: -11 43<38 66.4909> 347 65<250 338> 667 64<433 451.971> 694 40<38 62.0737>
VStem: 144 106<86 347 88 650> 339 93<-118 -9 51 333 412 667 736 834> 541 112<521 555> 564 124<185 219>
Fore
688 200 m 0
 688 58 596 -8 433 -9 c 1
 432 -118 l 1
 341 -118 l 1
 339 -11 l 1
 38 -9 l 1
 38 32 l 1
 129 32 144 58 144 88 c 2
 144 637 l 2
 144 665 129 693 38 694 c 1
 38 734 l 1xdd
 78 734 287 736 339 736 c 1
 341 834 l 1
 432 834 l 1
 433 731 l 1
 571 731 653 677 653 541 c 0xee
 653 445 605 399 535 381 c 1
 614 367 688 312 688 200 c 0
338 412 m 1
 338 673 l 0
 281 676 250 676 250 650 c 2
 250 412 l 1
 338 412 l 1
541 536 m 0
 541 627 498 668 433 667 c 1
 433 415 l 1
 519 418 541 478 541 536 c 0
338 51 m 9
 338 347 l 0
 319 347 267 347 250 347 c 1
 250 100 l 2
 250 68 250 40 338 51 c 9
564 203 m 0xcd
 564 278 515 330 433 333 c 1
 433 55 l 1
 527 65 564 114 564 203 c 0xcd
EndSplineSet
EndChar
StartChar: uni0E40
Encoding: 224 3648 190
Width: 337
Flags: W
HStem: -8 46<195 213> 143 43<187 213>
VStem: 84 70<90 118> 84 103<118 524> 260 44<90 92>
Fore
201 187 m 0xd8
 270 187 304 139 304 90 c 0
 304 41 269 -8 200 -8 c 0
 124 -8 84 57 84 118 c 2xe8
 84 524 l 1
 140 587 l 2
 154 601 187 613 187 556 c 2
 187 556 187 255 187 186 c 1
 190 186 198 187 201 187 c 0xd8
207 38 m 0
 242 38 260 64 260 90 c 0
 260 117 242 143 207 143 c 0
 172 143 154 117 154 90 c 0
 154 64 172 38 207 38 c 0
EndSplineSet
EndChar
StartChar: uni0E41
Encoding: 225 3649 191
Width: 609
Flags: W
HStem: -8 45<195 213 467 485> 141 45<187 213 458 485>
VStem: 84 69<89 118> 84 103<118 524> 258 46<78.1459 94> 355 69<89 118> 355 103<118 524> 529 46<87 93>
Fore
472 187 m 0xcb
 540 187 575 139 575 91 c 0
 575 41 540 -8 470 -8 c 0
 395 -8 355 57 355 118 c 1xcd
 355 524 l 1
 410 587 l 2
 424 601 458 613 458 556 c 2
 458 556 458 255 458 186 c 1
 461 186 468 187 472 187 c 0xcb
201 187 m 0
 270 187 304 139 304 90 c 0
 304 41 269 -8 200 -8 c 0
 124 -8 84 57 84 118 c 2xe9
 84 524 l 1
 140 587 l 2
 154 601 187 613 187 556 c 2
 187 556 187 255 187 186 c 1xd9
 190 186 198 187 201 187 c 0
476 37 m 0
 512 37 529 63 529 89 c 0
 529 115 512 141 476 141 c 0
 441 141 424 115 424 89 c 0xcd
 424 63 441 37 476 37 c 0
206 37 m 0
 241 37 258 63 258 89 c 0
 258 115 241 141 206 141 c 0
 170 141 153 115 153 89 c 0xe9
 153 63 170 37 206 37 c 0
EndSplineSet
EndChar
StartChar: uni0E42
Encoding: 226 3650 192
Width: 339
Flags: W
HStem: -8 45<235 245> 141 46<235 255> 897 74<69 86>
VStem: 121 69<89 118> 121 103<118 697> 296 45<78.404 92>
DStem: -66 831 2 854 100 742 192 750
Fore
346 905 m 0xec
 319 828 266 834 224 848 c 0
 166 868 101 897 69 897 c 0
 46 897 31 897 2 854 c 1
 192 750 l 2
 219 734 224 717 224 690 c 2
 224 690 224 255 224 186 c 1xec
 229 187 235 187 238 187 c 0
 307 187 341 139 341 90 c 0
 341 41 306 -8 237 -8 c 0
 161 -8 121 57 121 118 c 2xf4
 121 691 l 2
 121 720 109 737 100 742 c 2
 -66 831 l 1
 -31 906 12 971 86 971 c 0
 130 971 226 913 280 913 c 0
 294 913 305 916 312 925 c 0
 330 948 356 945 346 905 c 0xec
243 37 m 0
 278 37 296 63 296 89 c 0
 296 115 278 141 243 141 c 0
 208 141 190 115 190 89 c 0xf4
 190 63 208 37 243 37 c 0
EndSplineSet
EndChar
StartChar: uni0E43
Encoding: 227 3651 193
Width: 362
Flags: W
HStem: -8 45<255 268> 141 45<244 268> 671 46<33 44> 794 48<33 44> 912 59<69 85>
VStem: 79 46<757 761> 141 69<89 118> 141 103<118 841> 316 45<78.404 92>
Fore
258 187 m 0xfd80
 327 187 361 139 361 90 c 0
 361 41 326 -8 257 -8 c 0
 181 -8 141 57 141 118 c 2xfe80
 141 842 l 2
 141 885 105 912 71 912 c 0
 29 912 -14 894 -20 817 c 1
 -1 839 31 842 37 842 c 0
 96 842 125 800 125 757 c 0
 125 714 95 671 35 671 c 0
 -48 671 -72 765 -69 829 c 1
 -61 908 -9 971 85 971 c 0
 186 971 244 903 244 823 c 2
 244 186 l 1
 247 186 255 187 258 187 c 0xfd80
42 794 m 0
 15 794 0 777 0 756 c 0
 0 739 12 717 38 717 c 0
 66 717 79 737 79 757 c 0
 79 775 67 794 42 794 c 0
263 37 m 0
 298 37 316 63 316 89 c 0
 316 115 298 141 263 141 c 0
 228 141 210 115 210 89 c 0
 210 63 228 37 263 37 c 0
EndSplineSet
EndChar
StartChar: uni0E44
Encoding: 228 3652 194
Width: 388
Flags: W
HStem: -8 45<282 292> 141 43<272 290> 662 41<47 54> 925 46<153 172>
VStem: -45 75<743 920> 73 60<723 874> 170 68<89 118> 170 102<118 873> 343 46<87 93>
Fore
286 187 m 0xfd80
 355 187 389 139 389 91 c 0
 389 41 353 -8 284 -8 c 0
 209 -8 170 57 170 118 c 1xfe80
 170 902 l 2
 170 915 164 925 153 925 c 0
 139 925 133 912 133 902 c 2
 133 750 l 2
 133 702 109 662 47 662 c 0
 -11 660 -45 702 -45 754 c 2
 -45 909 l 2
 -45 917 -46 926 -56 935 c 0
 -68 948 -74 951 -88 963 c 2
 -111 989 -86 1012 -57 995 c 2
 4 965 l 2
 27 952 30 940 30 920 c 2
 30 723 l 2
 30 714 41 703 52 703 c 0
 61 703 73 713 73 723 c 2
 73 868 l 2
 73 926 103 971 172 971 c 0
 241 971 272 920 272 871 c 2
 272 871 272 253 272 184 c 1
 275 184 280 187 286 187 c 0xfd80
290 37 m 0
 326 37 343 63 343 89 c 0
 343 115 326 141 290 141 c 0
 255 141 238 115 238 89 c 0
 238 63 255 37 290 37 c 0
EndSplineSet
EndChar
StartChar: uni0E45
Encoding: 229 3653 195
Width: 304
Flags: W
HStem: 541 57<18 58>
VStem: 111 103<-214 465>
Fore
214 -180 m 1
 158 -244 l 2
 140 -257 111 -270 111 -214 c 2
 111 460 l 2
 111 513 68 541 18 541 c 0
 -24 541 -72 522 -103 483 c 1
 -131 509 l 1
 -89 566 -12 598 58 598 c 0
 140 598 214 554 214 453 c 2
 214 -180 l 1
EndSplineSet
EndChar
StartChar: uni0E46
Encoding: 230 3654 196
Width: 703
Flags: W
HStem: 255 37<350 352> 390 37<350 352>
VStem: 235 65<341 427> 400 39<337 343> 504 100<-214 467>
DStem: 330 536 335 599 406 459 406 525
Fore
604 -180 m 1
 551 -244 l 2
 533 -257 504 -264 504 -214 c 2
 504 485 l 2
 504 505 487 521 470 525 c 1
 406 459 l 1
 330 536 l 1
 300 515 275 476 284 395 c 1
 301 421 332 427 350 427 c 0
 410 426 439 383 439 340 c 0
 439 298 409 255 350 255 c 0
 260 255 237 346 235 427 c 0
 233 478 253 559 335 599 c 1
 406 525 l 1
 476 599 l 1
 573 588 604 521 604 455 c 2
 604 -180 l 1
350 292 m 0
 383 292 400 316 400 341 c 0
 400 366 383 390 350 390 c 0
 317 390 300 366 300 341 c 0
 300 316 317 292 350 292 c 0
EndSplineSet
EndChar
StartChar: uni0E47
Encoding: 231 3655 197
Width: 0
Flags: W
HStem: 656 49<-182 -163> 796 46<-174 -163>
VStem: -501 75<799 816> -129 49<747 759>
AnchorPoint: "AboveMark" -288.768 629.76 mark 0
AnchorPoint: "AboveBase" -129.024 629.76 mark 0
Fore
-71 1025 m 17
 -72 902 -161 885 -227 888 c 0
 -264 889 -301 892 -343 895 c 0
 -389 899 -426 865 -426 814 c 0
 -426 795 -421 773 -409 750 c 1
 -389 817 -306 793 -269 754 c 1
 -269 754 -258 742 -260 757 c 0
 -263 813 -219 842 -174 842 c 0
 -127 842 -80 813 -80 753 c 0
 -80 687 -126 656 -172 656 c 0
 -280 656 -300 736 -346 736 c 0
 -384 736 -387 680 -364 656 c 1
 -425 657 l 1
 -479 705 -502 764 -501 816 c 0
 -499 895 -440 959 -344 948 c 0
 -310 943 -269 940 -237 938 c 0
 -220 937 -157 935 -167 1025 c 1
 -71 1025 l 17
-174 705 m 0
 -144 705 -129 728 -129 750 c 0
 -129 773 -144 796 -174 796 c 0
 -204 796 -218 773 -218 750 c 0
 -218 728 -204 705 -174 705 c 0
EndSplineSet
EndChar
StartChar: uni0E48
Encoding: 232 3656 198
Width: 0
Flags: W
AnchorPoint: "AboveMark" -142.848 983.04 mark 0
Fore
-91 1227 m 1
 -104 1021 l 1
 -181 1021 l 1
 -195 1227 l 1
 -91 1227 l 1
EndSplineSet
Substitution: 0 65534 'loww' uni0E48.low
Substitution: 0 65534 'amni' uni0E4D
EndChar
StartChar: uni0E49
Encoding: 233 3657 199
Width: 0
Flags: W
HStem: 1187 42<-190 -176>
VStem: -269 42<1146 1152> -146 46<1138.81 1153>
AnchorPoint: "AboveMark" -46.0801 983.04 mark 0
Fore
152 1229 m 17
 120 957 -198 991 -244 994 c 1
 -244 1029 l 1
 -204 1034 -189 1052 -180 1071 c 1
 -180 1074 l 1
 -180 1074 -189 1071 -203 1072 c 0
 -247 1079 -269 1115 -269 1150 c 0
 -269 1190 -242 1229 -186 1229 c 0
 -100 1229 -100 1152 -100 1150 c 0
 -100 1077 -138 1043 -138 1043 c 1
 -138 1040 l 1
 -138 1040 49 1035 63 1229 c 1
 152 1229 l 17
-187 1109 m 0
 -160 1109 -146 1128 -146 1148 c 0
 -146 1168 -160 1187 -187 1187 c 0
 -214 1187 -227 1168 -227 1148 c 0
 -227 1128 -214 1109 -187 1109 c 0
EndSplineSet
Substitution: 0 65534 'loww' uni0E49.low
Substitution: 0 65534 'amni' uni0E4D
EndChar
StartChar: uni0E4A
Encoding: 234 3658 200
Width: 0
Flags: W
HStem: 986 35<-246 -236> 1089 35<-246 -236>
VStem: -212 35<1049 1059> -97 56<1102 1123>
AnchorPoint: "AboveMark" -175.104 983.04 mark 0
Fore
66 1226 m 17
 75 1098 -5 986 -144 986 c 1
 -144 1021 l 1
 -110 1039 -97 1072 -97 1102 c 0
 -97 1136 -113 1167 -135 1175 c 1
 -190 1137 l 1
 -253 1178 l 1
 -284 1172 -298 1130 -295 1107 c 1
 -292 1104 l 1
 -292 1104 -280 1124 -246 1124 c 0
 -206 1124 -177 1098 -177 1057 c 0
 -177 1014 -204 986 -246 986 c 0
 -310 986 -349 1043 -349 1115 c 0
 -349 1160 -310 1227 -249 1232 c 1
 -190 1183 l 1
 -132 1232 l 1
 -65 1212 -41 1166 -41 1123 c 0
 -41 1097 -49 1073 -61 1055 c 1
 -58 1054 l 1
 -17 1080 12 1141 -8 1226 c 1
 66 1226 l 17
-246 1021 m 0
 -223 1021 -212 1038 -212 1055 c 0
 -212 1072 -223 1089 -246 1089 c 0
 -268 1089 -279 1072 -279 1055 c 0
 -279 1038 -268 1021 -246 1021 c 0
EndSplineSet
Substitution: 0 65534 'loww' uni0E4A.low
Substitution: 0 65534 'amni' uni0E4D
EndChar
StartChar: uni0E4B
Encoding: 235 3659 201
Width: 0
Flags: W
HStem: 1071 75<-275 -181 -104 -11>
DStem: -181 1147 -104 1147 -275 1146 -11 1146
AnchorPoint: "AboveMark" -142.848 983.04 mark 0
Fore
-11 1072 m 1
 -104 1071 l 1
 -106 992 l 1
 -180 992 l 1
 -181 1071 l 1
 -275 1072 l 1
 -275 1146 l 1
 -181 1147 l 1
 -183 1226 l 1
 -103 1226 l 1
 -104 1147 l 1
 -11 1146 l 1
 -11 1072 l 1
EndSplineSet
MinimumDistance: x8,9 
Substitution: 0 65534 'loww' uni0E4B.low
Substitution: 0 65534 'amni' uni0E4D
EndChar
StartChar: uni0E4C
Encoding: 236 3660 202
Width: 0
Flags: W
HStem: 895 42<-160 -152>
VStem: -249 46<974 985> -121 47<974 985>
AnchorPoint: "AboveMark" -159.744 890.88 mark 0
Fore
37 1170 m 17
 11 1074 -100 1055 -124 1049 c 1
 -124 1046 l 1
 -100 1044 -74 1018 -74 977 c 0
 -74 931 -109 895 -160 895 c 0
 -215 895 -249 937 -249 983 c 0
 -249 1023 -220 1075 -129 1092 c 0
 -83 1101 -51 1135 -41 1192 c 1
 37 1170 l 17
-160 937 m 0
 -134 937 -121 958 -121 978 c 0
 -121 999 -134 1020 -160 1020 c 0
 -188 1020 -203 999 -203 978 c 0
 -203 958 -188 937 -160 937 c 0
EndSplineSet
Substitution: 0 65534 'loww' uni0E4C.low
EndChar
StartChar: uni0E4D
Encoding: 237 3661 203
Width: 0
Flags: W
HStem: 673 54<-143.738 -127> 831 57<-143.738 -127>
VStem: -240 55<768 786> -79 54<768 786>
AnchorPoint: "AboveMark" -132.096 629.76 mark 0
AnchorPoint: "AboveMark" -132.096 983.04 basemark 0
AnchorPoint: "AboveBase" -61.4404 629.76 mark 0
Fore
-132 673 m 0
 -204 673 -240 727 -240 780 c 0
 -240 834 -204 888 -132 888 c 0
 -60 888 -25 834 -25 780 c 0
 -25 727 -60 673 -132 673 c 0
-132 727 m 0
 -96 727 -79 753 -79 779 c 0
 -79 805 -96 831 -132 831 c 0
 -168 831 -185 805 -185 779 c 0
 -185 753 -168 727 -132 727 c 0
EndSplineSet
Substitution: 0 65534 'G006' uni0E4B
Substitution: 0 65534 'G005' uni0E4A
Substitution: 0 65534 'G004' uni0E49
Substitution: 0 65534 'G003' uni0E48
EndChar
StartChar: uni0E4E
Encoding: 238 3662 204
Width: 0
Flags: W
HStem: 662 55<-172 -141>
VStem: -261 69<748 759>
AnchorPoint: "AboveBase" -93.6963 629.76 mark 0
Fore
-9 909 m 1
 -88 902 -101 863 -77 823 c 1
 -118 760 l 1
 -167 793 -192 773 -192 751 c 0
 -192 730 -172 717 -141 717 c 1
 -172 662 l 1
 -224 662 -261 703 -261 750 c 0
 -261 833 -181 849 -152 828 c 1
 -149 831 l 1
 -167 874 -151 962 -18 962 c 1
 -9 909 l 1
EndSplineSet
EndChar
StartChar: uni0E4F
Encoding: 239 3663 205
Width: 737
Flags: W
HStem: -14 79<369 378> 152 77<369 378> 364 77<369 378> 527 80<369 378>
VStem: 57 80<296 307> 221 80<296 307> 436 75<296 307> 599 80<296 307>
Fore
679 296 m 0
 679 126 536 -14 369 -14 c 0
 197 -14 57 126 57 296 c 0
 57 468 197 607 369 607 c 0
 536 607 679 468 679 296 c 0
599 296 m 0
 599 424 496 527 369 527 c 0
 238 527 137 424 137 296 c 0
 137 169 238 65 369 65 c 0
 496 65 599 169 599 296 c 0
511 296 m 0
 511 217 445 152 369 152 c 0
 286 152 221 217 221 296 c 0
 221 379 286 441 369 441 c 0
 445 441 511 379 511 296 c 0
436 296 m 0
 436 333 406 364 369 364 c 0
 332 364 301 333 301 296 c 0
 301 260 332 229 369 229 c 0
 406 229 436 260 436 296 c 0
EndSplineSet
EndChar
StartChar: uni0E50
Encoding: 240 3664 206
Width: 645
Flags: W
HStem: -9 55<323 327> 430 60<323 327>
VStem: 38 106<230 248> 498 106<230 248>
Fore
604 237 m 0
 604 92 475 -9 323 -9 c 0
 166 -9 38 89 38 238 c 0
 38 384 166 490 323 490 c 0
 475 490 604 384 604 237 c 0
498 238 m 0
 498 336 425 430 323 430 c 0
 215 430 144 341 144 237 c 0
 144 137 221 46 323 46 c 0
 424 46 498 144 498 238 c 0
EndSplineSet
EndChar
StartChar: uni0E51
Encoding: 241 3665 207
Width: 645
Flags: W
HStem: 98 53<295 313> 243 49<295 313> 427 57<319 340>
VStem: 40 100<232 252> 207 51<192 204> 350 69<164 197> 504 100<218 252>
Fore
604 232 m 0
 604 100 521 -8 398 -37 c 1
 338 -14 l 1
 495 32 504 149 504 233 c 0
 504 362 419 427 319 427 c 0
 209 427 140 346 140 232 c 0
 140 46 318 2 346 111 c 1
 329 100 315 98 301 98 c 0
 243 98 207 144 207 194 c 0
 207 249 246 292 306 292 c 0
 381 292 419 232 419 164 c 0
 419 -72 40 -75 40 232 c 0
 40 392 172 484 319 484 c 0
 465 484 604 390 604 232 c 0
304 151 m 0
 335 151 350 174 350 197 c 0
 350 220 335 243 304 243 c 0
 274 243 258 220 258 197 c 0
 258 174 274 151 304 151 c 0
EndSplineSet
EndChar
StartChar: uni0E52
Encoding: 242 3666 208
Width: 645
Flags: W
HStem: -2 48<194 493> 86 43<290 311> 221 46<290 311>
VStem: 37 92<115 575> 180 74<285 325> 347 46<173 179> 536 83<189 271>
Fore
619 252 m 0
 619 201 621 154 613 112 c 0
 602 49 588 -2 481 -2 c 2
 194 -2 l 2
 86 -2 37 57 37 134 c 2
 37 561 l 2
 37 648 26 667 26 667 c 1
 9 725 54 717 72 703 c 1
 109 660 l 1
 109 660 129 637 129 561 c 2
 129 117 l 2
 129 75 160 46 194 46 c 2
 482 46 l 2
 516 46 524 71 527 91 c 0
 532 127 536 181 536 236 c 0
 536 326 524 417 485 425 c 0
 456 432 427 366 419 321 c 0
 413 283 366 280 359 323 c 0
 353 362 333 430 298 425 c 0
 269 422 254 377 254 311 c 0
 254 294 255 275 257 255 c 1
 266 263 287 267 303 267 c 0
 363 267 393 222 393 177 c 0
 393 132 363 86 303 86 c 0
 238 86 203 132 190 192 c 0
 183 229 180 264 180 296 c 0
 180 414 224 490 292 490 c 0
 350 490 375 439 387 401 c 0
 389 396 389 390 389 390 c 1
 392 390 l 1
 392 390 392 396 393 401 c 0
 407 438 438 490 493 490 c 0
 585 490 619 384 619 252 c 0
301 129 m 0
 332 129 347 152 347 175 c 0
 347 198 332 221 301 221 c 0
 270 221 255 198 255 175 c 0
 255 152 270 129 301 129 c 0
EndSplineSet
EndChar
StartChar: uni0E53
Encoding: 243 3667 209
Width: 645
Flags: HW
HStem: -8 49<183.297 199> 134 49<183.257 199> 424 64<208 214 435 443>
VStem: 38 97<240 281> 240 49<77.6668 95> 292 67<194 229.115> 512 94<231 270>
Fore
571 8 m 9
 521 -5 l 0
 501 -6 472 -12 481 32 c 0
 502 121 512 197 512 258 c 0
 512 364 483 425 437 425 c 0
 389 425 365 354 361 244 c 0
 360 229 359 218 359 194 c 0
 358 138 290 140 292 194 c 0
 292 217 293 229 293 243 c 0
 293 338 257 424 212 424 c 0
 178 424 135 381 135 268 c 0
 135 239 137 206 144 167 c 1
 154 174 172 183 194 183 c 0
 250 183 289 138 289 88 c 0
 289 35 250 -8 194 -8 c 0
 132 -8 86 35 66 92 c 0
 49 139 38 197 38 255 c 0
 38 373 83 488 210 488 c 0
 275 488 310 432 324 402 c 1
 350 467 392 488 441 488 c 0
 555 488 606 386 606 242 c 0
 606 172 594 91 571 8 c 9
194 41 m 0
 224 41 240 64 240 88 c 0
 240 111 224 134 194 134 c 0
 163 134 148 111 148 88 c 0
 148 64 163 41 194 41 c 0
EndSplineSet
EndChar
StartChar: uni0E54
Encoding: 244 3668 210
Width: 645
Flags: W
HStem: 421 66<367 386> 424 66<285 304>
VStem: 46 100<252 269> 249 72<244 267> 414 50<258 269>
Fore
622 659 m 0xb8
 614 521 527 421 373 421 c 0xb8
 355 421 323 424 304 424 c 0
 192 424 147 332 146 252 c 0
 146 149 209 37 332 46 c 0
 347 48 372 49 386 49 c 1
 319 89 249 166 249 244 c 0
 249 324 312 367 375 362 c 0
 432 358 464 318 464 260 c 0
 464 195 398 154 344 172 c 1
 372 127 468 57 559 65 c 0
 565 65 584 68 590 68 c 0
 628 68 607 31 607 31 c 1
 587 -2 l 1
 587 -2 492 0 402 3 c 0
 346 5 330 0 289 -3 c 0
 169 -9 46 80 46 252 c 0
 46 413 164 490 292 490 c 0x78
 330 490 339 487 367 487 c 0
 458 487 522 551 522 713 c 1
 602 688 l 2
 614 685 625 679 622 659 c 0xb8
367 221 m 0
 398 221 414 244 414 267 c 0
 414 290 398 313 367 313 c 0
 336 313 321 290 321 267 c 0
 321 244 336 221 367 221 c 0
EndSplineSet
EndChar
StartChar: uni0E55
Encoding: 245 3669 211
Width: 645
Flags: W
HStem: 421 187<346 381> 424 46<304 344> 562 46<333 351>
VStem: 46 100<253 269> 247 52<505 526> 249 72<246 267> 390 52<507 526> 414 50<259 269>
Fore
622 660 m 0x9a
 614 519 519 422 381 421 c 0x9a
 361 421 323 424 304 424 c 0
 192 424 147 333 146 253 c 0
 146 151 223 35 346 45 c 0
 361 46 370 49 386 49 c 1
 306 91 249 167 249 246 c 0
 249 326 312 369 375 364 c 0
 432 359 464 319 464 261 c 0x55
 464 197 398 154 344 174 c 1
 372 129 468 58 559 66 c 0
 565 66 584 69 590 69 c 0
 628 69 607 32 607 32 c 1
 587 -2 l 1
 587 -2 493 0 404 3 c 0
 362 5 330 0 289 -3 c 0
 169 -9 46 81 46 253 c 0
 46 407 151 476 250 488 c 1
 247 498 247 505 247 511 c 0
 247 570 289 608 346 608 c 0
 404 608 442 568 442 511 c 0
 442 507 l 1
 481 530 525 590 521 714 c 1
 602 690 l 2
 614 687 625 680 622 660 c 0x9a
344 470 m 0x7a
 375 470 390 493 390 516 c 0
 390 539 375 562 344 562 c 0
 314 562 299 539 299 516 c 0
 299 493 314 470 344 470 c 0x7a
367 221 m 0
 398 221 414 244 414 267 c 0
 414 290 398 313 367 313 c 0
 336 313 321 290 321 267 c 0x15
 321 244 336 221 367 221 c 0
EndSplineSet
EndChar
StartChar: uni0E56
Encoding: 246 3670 212
Width: 645
Flags: W
HStem: -9 54<310 329> 103 51<183 201> 246 52<192 201> 429 64<306 312> 690 20G<61 144>
VStem: 238 51<196 202> 493 100<238 248>
Fore
593 238 m 0
 593 97 499 -9 310 -9 c 0
 5 -9 18 298 192 298 c 0
 250 298 289 253 289 198 c 0
 289 149 255 103 194 103 c 0
 187 103 181 104 177 104 c 1
 201 75 240 45 310 45 c 0
 416 45 493 132 493 238 c 0
 493 352 407 429 306 429 c 0
 264 429 214 424 172 399 c 0
 157 390 109 396 114 449 c 1
 114 556 86 614 46 677 c 0
 38 688 37 710 61 710 c 2
 144 710 l 1
 163 679 197 584 194 478 c 1
 224 488 269 493 306 493 c 0
 468 493 593 396 593 238 c 0
192 154 m 0
 222 154 238 177 238 200 c 0
 238 223 222 246 192 246 c 0
 162 246 146 223 146 200 c 0
 146 177 162 154 192 154 c 0
EndSplineSet
EndChar
StartChar: uni0E57
Encoding: 247 3671 213
Width: 645
Flags: W
HStem: -6 47<167 185> 134 50<167 185>
VStem: 24 85<264 298> 220 49<86 97> 431 77<264 298> 558 78<376 426>
Fore
598 682 m 0
 624 606 636 516 636 426 c 0
 636 225 574 27 462 -5 c 1
 462 -5 382 -18 393 31 c 1
 393 31 410 106 418 154 c 0
 427 207 431 252 431 288 c 0
 431 386 402 424 375 424 c 0
 336 424 310 367 306 332 c 0
 303 316 301 296 300 273 c 0
 296 238 247 237 243 273 c 1
 243 296 240 318 238 333 c 0
 232 372 204 424 172 424 c 0
 148 424 109 393 109 284 c 0
 109 252 112 212 121 164 c 1
 134 180 152 184 175 184 c 0
 230 184 269 141 269 91 c 0
 269 38 232 -6 175 -6 c 0
 103 -6 66 45 49 103 c 0
 33 160 24 217 24 269 c 0
 24 391 71 484 174 488 c 0
 212 490 255 455 272 406 c 1
 290 455 336 490 375 488 c 0
 462 484 508 397 508 278 c 0
 508 212 494 136 464 58 c 1
 478 61 492 84 498 97 c 0
 536 173 558 272 558 376 c 0
 558 467 541 562 504 648 c 1
 544 700 l 2
 561 722 579 737 598 682 c 0
174 41 m 0
 204 41 220 64 220 88 c 0
 220 111 204 134 174 134 c 0
 143 134 128 111 128 88 c 0
 128 64 143 41 174 41 c 0
EndSplineSet
EndChar
StartChar: uni0E58
Encoding: 248 3672 214
Width: 645
Flags: W
HStem: -9 21G<428 494> 298 52<499 509> 416 66<364 380.256>
VStem: 31 101<225 262> 398 55<244 262>
Fore
610 651 m 0
 601 518 504 416 381 416 c 0
 352 416 327 418 303 418 c 0
 184 418 132 336 132 246 c 0
 132 175 149 117 190 83 c 1
 198 120 224 210 284 235 c 1
 338 227 l 1
 338 31 504 20 516 157 c 1
 439 143 398 201 398 250 c 0
 398 313 442 350 499 350 c 0
 579 350 604 296 607 246 c 0
 621 66 533 -9 455 -9 c 0
 401 -9 304 -2 278 132 c 1
 261 101 250 35 246 -11 c 1
 167 -12 31 66 31 247 c 0
 32 409 149 487 275 487 c 0
 304 487 341 482 364 482 c 0
 445 482 511 554 507 708 c 1
 590 684 l 2
 602 680 613 671 610 651 c 0
499 206 m 0
 530 206 546 229 546 252 c 0
 546 275 530 298 499 298 c 0
 468 298 453 275 453 252 c 0
 453 229 468 206 499 206 c 0
EndSplineSet
EndChar
StartChar: uni0E59
Encoding: 249 3673 215
Width: 645
Flags: W
HStem: -6 46<229.257 243> 132 49<229.257 243> 341 80<496 512>
VStem: 286 49<76.0392 91>
Fore
647 656 m 0
 659 447 605 341 510 341 c 0
 441 341 429 416 390 418 c 0
 372 419 370 390 373 373 c 1
 378 362 395 338 399 330 c 0
 478 200 573 0 573 0 c 1
 496 0 l 2
 472 0 461 14 453 29 c 2
 453 29 378 180 323 275 c 0
 260 384 206 444 151 407 c 0
 98 373 120 230 177 154 c 1
 187 164 207 181 241 181 c 0
 296 181 335 140 335 86 c 0
 335 35 293 -6 240 -6 c 0
 197 -6 155 12 120 57 c 0
 20 177 -6 379 104 458 c 0
 132 476 223 510 312 433 c 1
 321 461 353 482 386 482 c 0
 461 484 461 421 505 421 c 0
 551 421 565 515 536 708 c 1
 630 680 l 2
 642 677 647 671 647 656 c 0
240 40 m 0
 270 40 286 63 286 86 c 0
 286 109 270 132 240 132 c 0
 209 132 194 109 194 86 c 0
 194 63 209 40 240 40 c 0
EndSplineSet
EndChar
StartChar: uni0E5A
Encoding: 250 3674 216
Width: 731
Flags: W
HStem: 0 21G<335 438 527 630> 391 48<185 210> 391 207<120 185> 553 45<112 130>
VStem: 17 49<501 503> 171 50<501 503> 335 103<0 594> 527 103<0 594>
Fore
438 0 m 1xcf
 335 0 l 1
 335 432 l 1
 290 402 234 391 185 391 c 0xcf
 131 391 84 403 63 418 c 0
 31 440 17 471 17 501 c 0
 17 551 57 598 120 598 c 0xaf
 180 598 221 551 221 501 c 0
 221 480 214 458 197 439 c 1
 323 439 350 525 350 594 c 1
 438 594 l 1
 438 0 l 1xcf
118 449 m 0
 154 449 171 475 171 501 c 0
 171 527 154 553 118 553 c 0x9f
 83 553 66 527 66 501 c 0
 66 475 83 449 118 449 c 0
630 0 m 1
 527 0 l 1
 527 594 l 1
 630 594 l 1
 630 0 l 1
EndSplineSet
EndChar
StartChar: uni0E5B
Encoding: 251 3675 217
Width: 1293
Flags: W
HStem: 37 67<292 311.319> 389 40<237.823 255> 562 68<245 263>
VStem: 6 71<315 358> 157 47<324 342> 290 45<324 342>
DStem: 613 441 633 611 694 69 705 270 757 554 780 372 705 270 727 69 780 372 790 554 852 63 854 273 926 548 928 367 854 273 852 63 928 367 926 548 1000 112 997 295 1048 492 1057 350 997 295 1000 112
Fore
1306 247 m 1
 1306 247 1263 281 1235 246 c 0
 1200 201 1152 181 1115 243 c 0
 1112 247 1069 329 1057 350 c 1
 1000 112 l 1
 928 367 l 1
 852 63 l 1
 780 372 l 1
 727 69 l 1
 694 69 l 1
 613 441 l 1
 602 402 585 309 578 283 c 0
 518 86 404 37 290 37 c 0
 140 37 6 160 6 338 c 0
 6 527 118 630 257 630 c 0
 574 630 530 198 301 198 c 0
 217 198 157 253 157 338 c 0
 157 387 194 429 247 429 c 0
 300 429 335 390 335 338 c 0
 335 283 300 258 293 260 c 1
 293 257 l 1
 438 253 487 562 255 562 c 0
 160 562 77 478 77 336 c 0
 77 200 177 108 292 104 c 0
 367 104 464 149 510 303 c 0
 528 364 544 404 601 611 c 1
 633 611 l 1
 705 270 l 1
 757 554 l 1
 790 554 l 1
 854 273 l 1
 926 548 l 1
 997 295 l 1
 1048 492 l 1
 1115 347 1144 295 1144 295 c 2
 1160 264 1180 249 1207 289 c 0
 1243 339 1306 306 1306 306 c 1
 1306 247 l 1
290 336 m 0
 290 361 273 389 247 389 c 0
 218 389 204 361 204 336 c 0
 204 306 223 283 247 283 c 0
 273 283 290 306 290 336 c 0
EndSplineSet
EndChar
StartChar: uni0E38.low
Encoding: 252 63256 218
Width: 0
Flags: W
HStem: -392 40<-189 -182>
VStem: -264 40<-323 -311> -163 88<-458 -321> -147 72<-323 -313>
Fore
-75 -458 m 1xe0
 -163 -458 l 1
 -163 -392 l 1
 -169 -392 -177 -392 -186 -392 c 0
 -238 -392 -264 -355 -264 -316 c 0
 -264 -278 -238 -238 -187 -233 c 1
 -123 -230 -80 -261 -75 -321 c 1
 -75 -458 l 1xe0
-147 -313 m 0xd0
 -147 -293 -167 -275 -184 -275 c 0
 -209 -275 -224 -290 -224 -313 c 0
 -224 -336 -207 -352 -184 -352 c 0
 -161 -352 -147 -336 -147 -313 c 0xd0
EndSplineSet
EndChar
StartChar: uni0E39.low
Encoding: 253 63257 219
Width: 0
Flags: W
HStem: -476 54<-185 -169> -387 35<-292 -285> -275 35<-300.904 -285>
VStem: -366 37<-313 -311> -270 66<-404 -384> -252 48<-330 -311> -163 89<-402 -240>
Fore
-74 -379 m 2xfa
 -74 -432 -106 -476 -169 -476 c 0
 -232 -476 -270 -442 -270 -390 c 2
 -270 -384 l 1xfa
 -275 -386 -281 -387 -289 -387 c 0
 -340 -386 -366 -350 -366 -313 c 0
 -366 -276 -340 -240 -289 -240 c 0
 -227 -240 -203 -276 -204 -330 c 1xf6
 -204 -402 l 2
 -204 -415 -195 -422 -183 -422 c 0
 -172 -422 -163 -416 -163 -402 c 2
 -163 -240 l 1
 -74 -240 l 1
 -74 -379 l 2xfa
-252 -313 m 0xf6
 -252 -293 -270 -275 -290 -275 c 0
 -316 -275 -329 -290 -329 -313 c 0
 -329 -336 -315 -352 -290 -352 c 0
 -266 -352 -252 -336 -252 -313 c 0xf6
EndSplineSet
EndChar
StartChar: uni0E3A.low
Encoding: 254 63258 220
Width: 0
Flags: W
Fore
-123 -335 m 0
 -164 -335 -185 -306 -185 -276 c 0
 -185 -246 -164 -217 -123 -217 c 0
 -85 -217 -66 -246 -66 -275 c 0
 -66 -305 -85 -335 -123 -335 c 0
EndSplineSet
EndChar
StartChar: multiply
Encoding: 256 215 222
Width: 619
Flags: W
DStem: 75 458 138 521 243 286 309 352 243 286 309 220 72 118 138 51 309 220 375 286 481 49 544 117 478 521 542 458 309 352 375 286
Fore
544 117 m 1
 481 49 l 1
 309 220 l 1
 138 51 l 1
 72 118 l 1
 243 286 l 1
 75 458 l 1
 138 521 l 1
 309 352 l 1
 478 521 l 1
 542 458 l 1
 375 286 l 1
 544 117 l 1
EndSplineSet
EndChar
StartChar: divide
Encoding: 257 247 223
Width: 546
Flags: W
HStem: 2 129<261.782 276> 212 81<20 527> 375 130<262.268 276>
VStem: 209 129<54.7823 69 439 451>
Fore
338 439 m 0
 338 401 309 375 273 375 c 0
 238 375 209 407 209 439 c 0
 209 475 235 505 273 505 c 0
 309 505 338 479 338 439 c 0
527 212 m 1
 20 212 l 1
 20 293 l 1
 527 293 l 1
 527 212 l 1
338 66 m 0
 338 26 309 2 273 2 c 0
 238 2 209 31 209 66 c 0
 209 98 235 131 273 131 c 0
 309 131 338 101 338 66 c 0
EndSplineSet
EndChar
StartChar: registered
Encoding: 258 174 224
Width: 774
Flags: W
HStem: -25 70<364 403> 147 37<381.333 390> 309 41<350 366> 485 39<226 259 226 358> 613 69<365 403>
VStem: 34 70<329 352> 266 84<204 309 204 472> 442 85<419 431> 673 67<329 352>
Fore
568 147 m 1
 495 147 l 0
 464 147 444 190 425 232 c 0
 393 296 402 309 350 309 c 1
 350 204 l 2
 350 192 355 189 364 187 c 2
 390 184 l 1
 390 147 l 1
 224 147 l 1
 224 186 l 1
 246 187 l 2
 260 189 266 194 266 204 c 2
 266 468 l 2
 266 484 264 485 247 485 c 2
 226 485 l 1
 226 524 l 1
 396 524 l 2
 484 524 527 495 527 429 c 0
 527 378 493 330 450 326 c 1
 482 318 493 283 507 253 c 0
 524 221 527 187 568 186 c 1
 568 147 l 1
442 421 m 0
 442 465 418 488 376 485 c 2
 358 484 l 2
 350 484 350 467 350 458 c 2
 350 352 l 1
 359 350 l 2
 406 350 442 364 442 421 c 0
389 45 m 0
 545 45 673 172 673 329 c 0
 673 485 545 613 389 613 c 0
 232 613 104 485 104 329 c 0
 104 172 232 45 389 45 c 0
34 329 m 0
 34 524 192 682 387 682 c 0
 582 682 740 524 740 329 c 0
 740 134 582 -25 387 -25 c 0
 192 -25 34 134 34 329 c 0
EndSplineSet
EndChar
StartChar: fi
Encoding: 259 64257 225
Width: 555
Flags: W
HStem: 0 23<15 22.8333 300 307.4 523.667 536> 417 44<15 70 209 319> 661 30<286 313>
VStem: 70 139<63 417> 349 137<81 384>
Fore
209 417 m 1
 209 81 l 2
 209 42 221 29 256 23 c 1
 256 0 l 1
 15 0 l 1
 15 23 l 1
 62 29 70 41 70 83 c 2
 70 417 l 1
 15 417 l 1
 15 461 l 1
 70 461 l 1
 73 549 88 598 127 637 c 0
 166 672 221 691 294 691 c 0
 404 691 472 656 472 599 c 0
 472 564 445 539 407 539 c 0
 369 539 343 561 343 593 c 0
 343 605 346 617 350 627 c 0
 352 630 352 633 352 634 c 0
 352 649 328 661 297 661 c 0
 265 661 242 650 229 628 c 0
 214 601 209 565 209 461 c 1
 316 461 l 2
 352 461 395 464 486 473 c 1
 486 81 l 2
 486 41 499 26 536 23 c 1
 536 0 l 1
 300 0 l 1
 300 23 l 1
 337 28 349 41 349 81 c 2
 349 382 l 2
 349 409 340 417 313 417 c 2
 209 417 l 1
EndSplineSet
LCarets: 0 65535 '    ' 1 0 
Ligature: 0 2 'liga' f i
EndChar
StartChar: fl
Encoding: 260 64258 226
Width: 555
Flags: W
HStem: 0 23<15 22.8333> 417 44<15 70 209 349> 658 33<271 301>
VStem: 70 139<63 417> 349 137<64.964 417 461 690>
Fore
349 417 m 1
 209 417 l 1
 209 81 l 2
 209 42 221 29 256 23 c 1
 256 0 l 1
 15 0 l 1
 15 23 l 1
 62 29 70 41 70 83 c 2
 70 417 l 1
 15 417 l 1
 15 461 l 1
 70 461 l 1
 75 552 86 598 119 633 c 0
 152 671 205 691 271 691 c 0
 325 691 366 683 420 661 c 1
 469 690 l 1
 486 690 l 1
 486 81 l 2
 486 45 499 26 524 25 c 2
 536 23 l 1
 536 0 l 1
 300 0 l 1
 300 23 l 1
 309 25 l 2
 337 28 349 45 349 81 c 2
 349 417 l 1
349 461 m 1
 349 560 l 1
 335 562 327 579 327 595 c 0
 327 601 330 609 335 620 c 0
 338 627 340 633 340 637 c 0
 340 650 324 658 297 658 c 0
 231 658 209 625 209 523 c 2
 209 461 l 1
 349 461 l 1
EndSplineSet
LCarets: 0 65535 '    ' 1 0 
Ligature: 0 2 'liga' f l
EndChar
StartChar: ff
Encoding: 261 64256 227
Width: 609
Flags: W
HStem: 0 23<248.8 256 300 312.667 517 536> 417 44<15 70 209 349 486 574> 661 30<286 304 526 545>
VStem: 70 139<65.0927 417 461 484.623> 352 134<583 633> 543 123<581 592>
Fore
666 590 m 0
 666 554 640 529 603 529 c 0
 573 529 543 551 543 583 c 0
 543 609 565 625 565 642 c 0
 565 658 548 661 536 661 c 0
 491 661 486 617 486 583 c 2
 486 461 l 1
 574 461 l 1
 574 417 l 1
 486 417 l 1
 486 81 l 2
 486 45 498 25 536 23 c 1
 536 0 l 1
 300 0 l 1
 300 23 l 1
 338 26 349 45 349 81 c 2
 349 417 l 1
 209 417 l 1
 209 81 l 2
 209 47 220 28 256 23 c 1
 256 0 l 1
 15 0 l 1
 15 23 l 1
 56 29 70 37 70 83 c 2
 70 417 l 1
 15 417 l 1
 15 461 l 1
 70 461 l 1
 73 608 133 691 291 691 c 0
 335 691 384 686 423 666 c 1
 456 686 494 691 530 691 c 0
 589 691 666 661 666 590 c 0
354 560 m 1
 347 568 343 582 343 593 c 0
 343 606 346 621 352 633 c 1
 352 656 313 661 297 661 c 0
 195 661 209 532 209 461 c 1
 349 461 l 1
 349 494 349 527 354 560 c 1
EndSplineSet
LCarets: 0 65535 '    ' 1 0 
Ligature: 0 2 'liga' f f
EndChar
StartChar: ffi
Encoding: 262 64259 228
Width: 832
Flags: W
HStem: 0 23<248.8 256 300 312.667 527.4 535 579 591.667 794 813> 417 44<15 70 209 349 486 596> 661 30<286 304 566 581>
VStem: 70 139<65.0927 417 461 484.623> 349 137<65.1768 417 461 500.703> 620 129<591 603> 625 140<81 384>
Fore
813 0 m 1xfa
 579 0 l 1
 579 23 l 1
 617 26 625 47 625 81 c 2
 625 382 l 2xfa
 625 409 617 417 590 417 c 2
 486 417 l 1
 486 81 l 2
 486 47 497 28 535 23 c 1
 535 0 l 1
 300 0 l 1
 300 23 l 1
 338 26 349 47 349 81 c 2
 349 417 l 1
 209 417 l 1
 209 81 l 2
 209 47 220 28 256 23 c 1
 256 0 l 1
 15 0 l 1
 15 23 l 1
 56 29 70 37 70 83 c 2
 70 417 l 1
 15 417 l 1
 15 461 l 1
 70 461 l 1
 73 608 133 691 291 691 c 0
 338 691 395 684 437 661 c 1
 475 684 523 691 568 691 c 0
 627 691 749 678 749 601 c 0
 749 561 721 539 683 539 c 0
 650 539 620 558 620 593 c 0xfc
 620 606 623 621 628 633 c 1
 628 656 590 661 574 661 c 0
 472 661 486 532 486 461 c 1
 593 461 l 2
 650 461 707 469 765 473 c 1
 765 81 l 2
 765 45 775 25 813 23 c 1
 813 0 l 1xfa
359 557 m 1
 349 565 343 579 343 593 c 0
 343 606 346 621 352 633 c 1
 352 656 313 661 297 661 c 0
 195 661 209 532 209 461 c 1
 349 461 l 1
 349 494 350 524 359 557 c 1
EndSplineSet
LCarets: 0 65535 '    ' 2 0 0 
Ligature: 0 2 'liga' ff i
Ligature: 0 2 'liga' f f i
EndChar
StartChar: ffl
Encoding: 263 64260 229
Width: 832
Flags: W
HStem: 0 23<248.8 256 300 312.667 527.4 535 579 591 793 813> 417 44<15 70 209 349 486 625> 658 33<554 581>
VStem: 70 139<65.0927 417 461 484.623> 343 143<529 593> 625 140<64.3969 417 461 690>
Fore
813 0 m 1
 579 0 l 1
 579 23 l 1
 615 26 625 47 625 81 c 2
 625 417 l 1
 486 417 l 1
 486 81 l 2
 486 47 497 28 535 23 c 1
 535 0 l 1
 300 0 l 1
 300 23 l 1
 338 26 349 47 349 81 c 2
 349 417 l 1
 209 417 l 1
 209 81 l 2
 209 47 220 28 256 23 c 1
 256 0 l 1
 15 0 l 1
 15 23 l 1
 56 29 70 37 70 83 c 2
 70 417 l 1
 15 417 l 1
 15 461 l 1
 70 461 l 1
 73 608 133 691 291 691 c 0
 337 691 393 686 431 662 c 1
 469 686 513 691 555 691 c 0
 601 691 658 680 699 661 c 1
 746 690 l 1
 765 690 l 1
 765 81 l 2
 765 45 773 25 813 23 c 1
 813 0 l 1
625 461 m 1
 625 560 l 1
 611 562 603 583 603 595 c 0
 603 609 617 625 617 636 c 0
 617 658 587 658 570 658 c 0
 492 658 486 589 486 529 c 2
 486 461 l 1
 625 461 l 1
357 557 m 1
 347 565 343 579 343 593 c 0
 343 606 346 621 352 633 c 1
 352 656 313 661 297 661 c 0
 195 661 209 532 209 461 c 1
 349 461 l 1
 349 494 350 524 357 557 c 1
EndSplineSet
LCarets: 0 65535 '    ' 2 0 0 
Ligature: 0 2 'liga' ff l
Ligature: 0 2 'liga' f f l
EndChar
